%TF.GenerationSoftware,KiCad,Pcbnew,9.0.0*%
%TF.CreationDate,2025-06-04T23:05:04+02:00*%
%TF.ProjectId,SI4684,53493436-3834-42e6-9b69-6361645f7063,A*%
%TF.SameCoordinates,Original*%
%TF.FileFunction,Paste,Top*%
%TF.FilePolarity,Positive*%
%FSLAX46Y46*%
G04 Gerber Fmt 4.6, Leading zero omitted, Abs format (unit mm)*
G04 Created by KiCad (PCBNEW 9.0.0) date 2025-06-04 23:05:04*
%MOMM*%
%LPD*%
G01*
G04 APERTURE LIST*
G04 Aperture macros list*
%AMRoundRect*
0 Rectangle with rounded corners*
0 $1 Rounding radius*
0 $2 $3 $4 $5 $6 $7 $8 $9 X,Y pos of 4 corners*
0 Add a 4 corners polygon primitive as box body*
4,1,4,$2,$3,$4,$5,$6,$7,$8,$9,$2,$3,0*
0 Add four circle primitives for the rounded corners*
1,1,$1+$1,$2,$3*
1,1,$1+$1,$4,$5*
1,1,$1+$1,$6,$7*
1,1,$1+$1,$8,$9*
0 Add four rect primitives between the rounded corners*
20,1,$1+$1,$2,$3,$4,$5,0*
20,1,$1+$1,$4,$5,$6,$7,0*
20,1,$1+$1,$6,$7,$8,$9,0*
20,1,$1+$1,$8,$9,$2,$3,0*%
G04 Aperture macros list end*
%ADD10C,0.000000*%
%ADD11RoundRect,0.237500X-0.237500X0.250000X-0.237500X-0.250000X0.237500X-0.250000X0.237500X0.250000X0*%
%ADD12RoundRect,0.250000X0.350000X0.450000X-0.350000X0.450000X-0.350000X-0.450000X0.350000X-0.450000X0*%
%ADD13RoundRect,0.200000X0.275000X-0.200000X0.275000X0.200000X-0.275000X0.200000X-0.275000X-0.200000X0*%
%ADD14RoundRect,0.225000X-0.225000X-0.250000X0.225000X-0.250000X0.225000X0.250000X-0.225000X0.250000X0*%
%ADD15R,0.250000X0.600000*%
%ADD16R,0.600000X0.250000*%
%ADD17R,1.500000X1.500000*%
%ADD18RoundRect,0.237500X-0.237500X0.300000X-0.237500X-0.300000X0.237500X-0.300000X0.237500X0.300000X0*%
%ADD19RoundRect,0.250000X0.475000X-0.337500X0.475000X0.337500X-0.475000X0.337500X-0.475000X-0.337500X0*%
%ADD20R,1.200000X1.400000*%
%ADD21RoundRect,0.250000X-0.475000X0.337500X-0.475000X-0.337500X0.475000X-0.337500X0.475000X0.337500X0*%
%ADD22RoundRect,0.125000X-0.125000X-0.137500X0.125000X-0.137500X0.125000X0.137500X-0.125000X0.137500X0*%
%ADD23RoundRect,0.237500X0.237500X-0.287500X0.237500X0.287500X-0.237500X0.287500X-0.237500X-0.287500X0*%
%ADD24RoundRect,0.225000X0.250000X-0.225000X0.250000X0.225000X-0.250000X0.225000X-0.250000X-0.225000X0*%
%ADD25RoundRect,0.250000X-0.350000X-0.450000X0.350000X-0.450000X0.350000X0.450000X-0.350000X0.450000X0*%
%ADD26RoundRect,0.218750X-0.256250X0.218750X-0.256250X-0.218750X0.256250X-0.218750X0.256250X0.218750X0*%
%ADD27RoundRect,0.225000X0.225000X0.250000X-0.225000X0.250000X-0.225000X-0.250000X0.225000X-0.250000X0*%
%ADD28RoundRect,0.250000X0.295000X-0.295000X0.295000X0.295000X-0.295000X0.295000X-0.295000X-0.295000X0*%
%ADD29RoundRect,0.062500X0.062500X-0.337500X0.062500X0.337500X-0.062500X0.337500X-0.062500X-0.337500X0*%
%ADD30RoundRect,0.062500X0.337500X-0.062500X0.337500X0.062500X-0.337500X0.062500X-0.337500X-0.062500X0*%
%ADD31RoundRect,0.225000X-0.250000X0.225000X-0.250000X-0.225000X0.250000X-0.225000X0.250000X0.225000X0*%
%ADD32RoundRect,0.250000X-0.337500X-0.475000X0.337500X-0.475000X0.337500X0.475000X-0.337500X0.475000X0*%
%ADD33RoundRect,0.150000X-0.512500X-0.150000X0.512500X-0.150000X0.512500X0.150000X-0.512500X0.150000X0*%
%ADD34RoundRect,0.200000X-0.275000X0.200000X-0.275000X-0.200000X0.275000X-0.200000X0.275000X0.200000X0*%
%ADD35RoundRect,0.250000X0.285000X-0.285000X0.285000X0.285000X-0.285000X0.285000X-0.285000X-0.285000X0*%
%ADD36RoundRect,0.237500X-0.237500X0.287500X-0.237500X-0.287500X0.237500X-0.287500X0.237500X0.287500X0*%
%ADD37RoundRect,0.237500X-0.287500X-0.237500X0.287500X-0.237500X0.287500X0.237500X-0.287500X0.237500X0*%
%ADD38RoundRect,0.100000X-0.637500X-0.100000X0.637500X-0.100000X0.637500X0.100000X-0.637500X0.100000X0*%
%ADD39RoundRect,0.200000X0.200000X0.275000X-0.200000X0.275000X-0.200000X-0.275000X0.200000X-0.275000X0*%
G04 APERTURE END LIST*
D10*
%TO.C,U7*%
G36*
X98010000Y-86845000D02*
G01*
X97410000Y-86845000D01*
X97410000Y-86595000D01*
X98010000Y-86595000D01*
X98010000Y-86845000D01*
G37*
G36*
X98010000Y-87345000D02*
G01*
X97410000Y-87345000D01*
X97410000Y-87095000D01*
X98010000Y-87095000D01*
X98010000Y-87345000D01*
G37*
G36*
X98010000Y-87845000D02*
G01*
X97410000Y-87845000D01*
X97410000Y-87595000D01*
X98010000Y-87595000D01*
X98010000Y-87845000D01*
G37*
G36*
X98010000Y-88345000D02*
G01*
X97410000Y-88345000D01*
X97410000Y-88095000D01*
X98010000Y-88095000D01*
X98010000Y-88345000D01*
G37*
G36*
X98587000Y-86272000D02*
G01*
X98337000Y-86272000D01*
X98337000Y-85672000D01*
X98587000Y-85672000D01*
X98587000Y-86272000D01*
G37*
G36*
X98587000Y-89272000D02*
G01*
X98337000Y-89272000D01*
X98337000Y-88672000D01*
X98587000Y-88672000D01*
X98587000Y-89272000D01*
G37*
G36*
X99810000Y-88072000D02*
G01*
X98610000Y-88072000D01*
X98610000Y-86872000D01*
X99810000Y-86872000D01*
X99810000Y-88072000D01*
G37*
G36*
X99085000Y-86272000D02*
G01*
X98835000Y-86272000D01*
X98835000Y-85672000D01*
X99085000Y-85672000D01*
X99085000Y-86272000D01*
G37*
G36*
X99087000Y-89272000D02*
G01*
X98837000Y-89272000D01*
X98837000Y-88672000D01*
X99087000Y-88672000D01*
X99087000Y-89272000D01*
G37*
G36*
X99585000Y-86272000D02*
G01*
X99335000Y-86272000D01*
X99335000Y-85672000D01*
X99585000Y-85672000D01*
X99585000Y-86272000D01*
G37*
G36*
X99587000Y-89272000D02*
G01*
X99337000Y-89272000D01*
X99337000Y-88672000D01*
X99587000Y-88672000D01*
X99587000Y-89272000D01*
G37*
G36*
X100085000Y-86272000D02*
G01*
X99835000Y-86272000D01*
X99835000Y-85672000D01*
X100085000Y-85672000D01*
X100085000Y-86272000D01*
G37*
G36*
X100087000Y-89272000D02*
G01*
X99837000Y-89272000D01*
X99837000Y-88672000D01*
X100087000Y-88672000D01*
X100087000Y-89272000D01*
G37*
G36*
X101010000Y-86845000D02*
G01*
X100410000Y-86845000D01*
X100410000Y-86595000D01*
X101010000Y-86595000D01*
X101010000Y-86845000D01*
G37*
G36*
X101010000Y-87345000D02*
G01*
X100410000Y-87345000D01*
X100410000Y-87095000D01*
X101010000Y-87095000D01*
X101010000Y-87345000D01*
G37*
G36*
X101010000Y-87845000D02*
G01*
X100410000Y-87845000D01*
X100410000Y-87595000D01*
X101010000Y-87595000D01*
X101010000Y-87845000D01*
G37*
G36*
X101010000Y-88345000D02*
G01*
X100410000Y-88345000D01*
X100410000Y-88095000D01*
X101010000Y-88095000D01*
X101010000Y-88345000D01*
G37*
%TD*%
D11*
%TO.C,R30*%
X80590000Y-103242500D03*
X80590000Y-101417500D03*
%TD*%
D12*
%TO.C,R14*%
X103130000Y-93780000D03*
X101130000Y-93780000D03*
%TD*%
D13*
%TO.C,R13*%
X109240000Y-104905000D03*
X109240000Y-103255000D03*
%TD*%
D14*
%TO.C,C17*%
X109205000Y-107470000D03*
X110755000Y-107470000D03*
%TD*%
D15*
%TO.C,U7*%
X98462000Y-88972000D03*
X98961000Y-88972000D03*
X99462000Y-88972000D03*
X99961000Y-88972000D03*
D16*
X100710000Y-88220000D03*
X100710000Y-87720000D03*
X100710000Y-87220000D03*
X100710000Y-86720000D03*
D15*
X99960000Y-85972000D03*
X99460000Y-85972000D03*
X98960000Y-85972000D03*
X98462000Y-85972000D03*
D16*
X97710000Y-86720000D03*
X97710000Y-87220000D03*
X97710000Y-87720000D03*
X97710000Y-88220000D03*
D17*
X99210000Y-87472000D03*
%TD*%
D18*
%TO.C,C5*%
X100880000Y-116757500D03*
X100880000Y-118482500D03*
%TD*%
D19*
%TO.C,C16*%
X104750000Y-86130000D03*
X104750000Y-84055000D03*
%TD*%
D20*
%TO.C,X1*%
X109020000Y-109480000D03*
X109020000Y-111680000D03*
X110720000Y-111680000D03*
X110720000Y-109480000D03*
%TD*%
D21*
%TO.C,C11*%
X118670000Y-104785000D03*
X118670000Y-106860000D03*
%TD*%
D13*
%TO.C,R5*%
X106140000Y-104915000D03*
X106140000Y-103265000D03*
%TD*%
D22*
%TO.C,U2*%
X82590000Y-104905000D03*
X83390000Y-104905000D03*
X84190000Y-104905000D03*
X84990000Y-104905000D03*
X84990000Y-107280000D03*
X84190000Y-107280000D03*
X83390000Y-107280000D03*
X82590000Y-107280000D03*
%TD*%
D21*
%TO.C,C28*%
X89070000Y-101750000D03*
X89070000Y-103825000D03*
%TD*%
D23*
%TO.C,L1*%
X102400000Y-118485000D03*
X102400000Y-116735000D03*
%TD*%
D14*
%TO.C,C35*%
X92966400Y-101582356D03*
X94516400Y-101582356D03*
%TD*%
D24*
%TO.C,C19*%
X111980000Y-95895000D03*
X111980000Y-94345000D03*
%TD*%
D25*
%TO.C,R17*%
X102550000Y-89360000D03*
X104550000Y-89360000D03*
%TD*%
D21*
%TO.C,C8*%
X112540000Y-103452500D03*
X112540000Y-105527500D03*
%TD*%
D26*
%TO.C,L2*%
X113980000Y-112132500D03*
X113980000Y-113707500D03*
%TD*%
D13*
%TO.C,R10*%
X115110000Y-95985000D03*
X115110000Y-94335000D03*
%TD*%
%TO.C,R25*%
X97780000Y-118635000D03*
X97780000Y-116985000D03*
%TD*%
D14*
%TO.C,C26*%
X96085000Y-101590000D03*
X97635000Y-101590000D03*
%TD*%
D27*
%TO.C,C20*%
X107455000Y-100200000D03*
X105905000Y-100200000D03*
%TD*%
D13*
%TO.C,R11*%
X110305000Y-92326000D03*
X110305000Y-90676000D03*
%TD*%
D24*
%TO.C,C7*%
X108880000Y-115085000D03*
X108880000Y-113535000D03*
%TD*%
%TO.C,C29*%
X94541200Y-104935956D03*
X94541200Y-103385956D03*
%TD*%
%TO.C,C12*%
X107352100Y-115090856D03*
X107352100Y-113540856D03*
%TD*%
D28*
%TO.C,U5*%
X111185000Y-100035000D03*
X112535000Y-100035000D03*
X111185000Y-98685000D03*
X112535000Y-98685000D03*
D29*
X110860000Y-101310000D03*
X111360000Y-101310000D03*
X111860000Y-101310000D03*
X112360000Y-101310000D03*
X112860000Y-101310000D03*
D30*
X113810000Y-100360000D03*
X113810000Y-99860000D03*
X113810000Y-99360000D03*
X113810000Y-98860000D03*
X113810000Y-98360000D03*
D29*
X112860000Y-97410000D03*
X112360000Y-97410000D03*
X111860000Y-97410000D03*
X111360000Y-97410000D03*
X110860000Y-97410000D03*
D30*
X109910000Y-98360000D03*
X109910000Y-98860000D03*
X109910000Y-99360000D03*
X109910000Y-99860000D03*
X109910000Y-100360000D03*
%TD*%
D21*
%TO.C,C10*%
X116550000Y-104802500D03*
X116550000Y-106877500D03*
%TD*%
D31*
%TO.C,C3*%
X103930000Y-118265000D03*
X103930000Y-119815000D03*
%TD*%
D13*
%TO.C,R26*%
X96290000Y-117455000D03*
X96290000Y-115805000D03*
%TD*%
D27*
%TO.C,C40*%
X95963600Y-109405556D03*
X94413600Y-109405556D03*
%TD*%
D11*
%TO.C,R32*%
X85820000Y-100457500D03*
X85820000Y-102282500D03*
%TD*%
D32*
%TO.C,C31*%
X88802500Y-110890000D03*
X90877500Y-110890000D03*
%TD*%
D13*
%TO.C,R12*%
X107700000Y-104904044D03*
X107700000Y-103254044D03*
%TD*%
D33*
%TO.C,U6*%
X88472500Y-106617500D03*
X88472500Y-107567500D03*
X88472500Y-108517500D03*
X90747500Y-108517500D03*
X90747500Y-106617500D03*
%TD*%
D13*
%TO.C,R8*%
X116845000Y-92325000D03*
X116845000Y-90675000D03*
%TD*%
D12*
%TO.C,R7*%
X101750000Y-91540000D03*
X99750000Y-91540000D03*
%TD*%
D27*
%TO.C,C41*%
X95963600Y-111335956D03*
X94413600Y-111335956D03*
%TD*%
D34*
%TO.C,R1*%
X118460000Y-93725000D03*
X118460000Y-95375000D03*
%TD*%
D21*
%TO.C,C9*%
X114580000Y-103452500D03*
X114580000Y-105527500D03*
%TD*%
D35*
%TO.C,U3*%
X99861600Y-112964756D03*
X101181600Y-112964756D03*
X102501600Y-112964756D03*
X103821600Y-112964756D03*
X99861600Y-111644756D03*
X101181600Y-111644756D03*
X102501600Y-111644756D03*
X103821600Y-111644756D03*
X99861600Y-110324756D03*
X101181600Y-110324756D03*
X102501600Y-110324756D03*
X103821600Y-110324756D03*
X99861600Y-109004756D03*
X101181600Y-109004756D03*
X102501600Y-109004756D03*
X103821600Y-109004756D03*
D29*
X99091600Y-114434756D03*
X99591600Y-114434756D03*
X100091600Y-114434756D03*
X100591600Y-114434756D03*
X101091600Y-114434756D03*
X101591600Y-114434756D03*
X102091600Y-114434756D03*
X102591600Y-114434756D03*
X103091600Y-114434756D03*
X103591600Y-114434756D03*
X104091600Y-114434756D03*
X104591600Y-114434756D03*
D30*
X105291600Y-113734756D03*
X105291600Y-113234756D03*
X105291600Y-112734756D03*
X105291600Y-112234756D03*
X105291600Y-111734756D03*
X105291600Y-111234756D03*
X105291600Y-110734756D03*
X105291600Y-110234756D03*
X105291600Y-109734756D03*
X105291600Y-109234756D03*
X105291600Y-108734756D03*
X105291600Y-108234756D03*
D29*
X104591600Y-107534756D03*
X104091600Y-107534756D03*
X103591600Y-107534756D03*
X103091600Y-107534756D03*
X102591600Y-107534756D03*
X102091600Y-107534756D03*
X101591600Y-107534756D03*
X101091600Y-107534756D03*
X100591600Y-107534756D03*
X100091600Y-107534756D03*
X99591600Y-107534756D03*
X99091600Y-107534756D03*
D30*
X98391600Y-108234756D03*
X98391600Y-108734756D03*
X98391600Y-109234756D03*
X98391600Y-109734756D03*
X98391600Y-110234756D03*
X98391600Y-110734756D03*
X98391600Y-111234756D03*
X98391600Y-111734756D03*
X98391600Y-112234756D03*
X98391600Y-112734756D03*
X98391600Y-113234756D03*
X98391600Y-113734756D03*
%TD*%
D24*
%TO.C,C15*%
X113500000Y-95895000D03*
X113500000Y-94345000D03*
%TD*%
D19*
%TO.C,C22*%
X102710000Y-86127500D03*
X102710000Y-84052500D03*
%TD*%
D27*
%TO.C,C38*%
X95976600Y-107576756D03*
X94426600Y-107576756D03*
%TD*%
D13*
%TO.C,R3*%
X102540000Y-104915000D03*
X102540000Y-103265000D03*
%TD*%
D36*
%TO.C,L3*%
X99340000Y-116745000D03*
X99340000Y-118495000D03*
%TD*%
D24*
%TO.C,C6*%
X112440000Y-113685000D03*
X112440000Y-112135000D03*
%TD*%
D37*
%TO.C,L4*%
X103995000Y-116270000D03*
X105745000Y-116270000D03*
%TD*%
D13*
%TO.C,R2*%
X100980000Y-104915000D03*
X100980000Y-103265000D03*
%TD*%
D31*
%TO.C,C14*%
X110760000Y-103305000D03*
X110760000Y-104855000D03*
%TD*%
D14*
%TO.C,C4*%
X94384000Y-113190156D03*
X95934000Y-113190156D03*
%TD*%
D11*
%TO.C,R31*%
X82170000Y-101417500D03*
X82170000Y-103242500D03*
%TD*%
D13*
%TO.C,R4*%
X104606000Y-104915000D03*
X104606000Y-103265000D03*
%TD*%
D24*
%TO.C,C21*%
X110230000Y-95895000D03*
X110230000Y-94345000D03*
%TD*%
%TO.C,C30*%
X92712400Y-104935956D03*
X92712400Y-103385956D03*
%TD*%
D38*
%TO.C,U4*%
X81020000Y-94550000D03*
X81020000Y-95200000D03*
X81020000Y-95850000D03*
X81020000Y-96500000D03*
X81020000Y-97150000D03*
X81020000Y-97800000D03*
X81020000Y-98450000D03*
X81020000Y-99100000D03*
X86745000Y-99100000D03*
X86745000Y-98450000D03*
X86745000Y-97800000D03*
X86745000Y-97150000D03*
X86745000Y-96500000D03*
X86745000Y-95850000D03*
X86745000Y-95200000D03*
X86745000Y-94550000D03*
%TD*%
D24*
%TO.C,C25*%
X96170000Y-104865000D03*
X96170000Y-103315000D03*
%TD*%
%TO.C,C23*%
X97740000Y-104845000D03*
X97740000Y-103295000D03*
%TD*%
D27*
%TO.C,C18*%
X108450000Y-101730000D03*
X106900000Y-101730000D03*
%TD*%
D31*
%TO.C,C34*%
X113665000Y-90731000D03*
X113665000Y-92281000D03*
%TD*%
D27*
%TO.C,C1*%
X92632000Y-113190156D03*
X91082000Y-113190156D03*
%TD*%
D39*
%TO.C,R15*%
X90125000Y-96930000D03*
X88475000Y-96930000D03*
%TD*%
D33*
%TO.C,U1*%
X92122000Y-115354156D03*
X92122000Y-116304156D03*
X92122000Y-117254156D03*
X94397000Y-117254156D03*
X94397000Y-115354156D03*
%TD*%
D31*
%TO.C,C39*%
X111995000Y-90726000D03*
X111995000Y-92276000D03*
%TD*%
D13*
%TO.C,R9*%
X115320000Y-92335000D03*
X115320000Y-90685000D03*
%TD*%
%TO.C,R6*%
X99420000Y-104905000D03*
X99420000Y-103255000D03*
%TD*%
M02*
