%TF.GenerationSoftware,KiCad,Pcbnew,9.0.0*%
%TF.CreationDate,2025-06-04T20:21:36+02:00*%
%TF.ProjectId,SI4684,53493436-3834-42e6-9b69-6361645f7063,A*%
%TF.SameCoordinates,Original*%
%TF.FileFunction,Legend,Bot*%
%TF.FilePolarity,Positive*%
%FSLAX46Y46*%
G04 Gerber Fmt 4.6, Leading zero omitted, Abs format (unit mm)*
G04 Created by KiCad (PCBNEW 9.0.0) date 2025-06-04 20:21:36*
%MOMM*%
%LPD*%
G01*
G04 APERTURE LIST*
%ADD10C,0.150000*%
%ADD11C,0.120000*%
%ADD12C,0.254000*%
G04 APERTURE END LIST*
D10*
X112382857Y-112394819D02*
X112716190Y-111918628D01*
X112954285Y-112394819D02*
X112954285Y-111394819D01*
X112954285Y-111394819D02*
X112573333Y-111394819D01*
X112573333Y-111394819D02*
X112478095Y-111442438D01*
X112478095Y-111442438D02*
X112430476Y-111490057D01*
X112430476Y-111490057D02*
X112382857Y-111585295D01*
X112382857Y-111585295D02*
X112382857Y-111728152D01*
X112382857Y-111728152D02*
X112430476Y-111823390D01*
X112430476Y-111823390D02*
X112478095Y-111871009D01*
X112478095Y-111871009D02*
X112573333Y-111918628D01*
X112573333Y-111918628D02*
X112954285Y-111918628D01*
X112001904Y-111490057D02*
X111954285Y-111442438D01*
X111954285Y-111442438D02*
X111859047Y-111394819D01*
X111859047Y-111394819D02*
X111620952Y-111394819D01*
X111620952Y-111394819D02*
X111525714Y-111442438D01*
X111525714Y-111442438D02*
X111478095Y-111490057D01*
X111478095Y-111490057D02*
X111430476Y-111585295D01*
X111430476Y-111585295D02*
X111430476Y-111680533D01*
X111430476Y-111680533D02*
X111478095Y-111823390D01*
X111478095Y-111823390D02*
X112049523Y-112394819D01*
X112049523Y-112394819D02*
X111430476Y-112394819D01*
X110954285Y-112394819D02*
X110763809Y-112394819D01*
X110763809Y-112394819D02*
X110668571Y-112347200D01*
X110668571Y-112347200D02*
X110620952Y-112299580D01*
X110620952Y-112299580D02*
X110525714Y-112156723D01*
X110525714Y-112156723D02*
X110478095Y-111966247D01*
X110478095Y-111966247D02*
X110478095Y-111585295D01*
X110478095Y-111585295D02*
X110525714Y-111490057D01*
X110525714Y-111490057D02*
X110573333Y-111442438D01*
X110573333Y-111442438D02*
X110668571Y-111394819D01*
X110668571Y-111394819D02*
X110859047Y-111394819D01*
X110859047Y-111394819D02*
X110954285Y-111442438D01*
X110954285Y-111442438D02*
X111001904Y-111490057D01*
X111001904Y-111490057D02*
X111049523Y-111585295D01*
X111049523Y-111585295D02*
X111049523Y-111823390D01*
X111049523Y-111823390D02*
X111001904Y-111918628D01*
X111001904Y-111918628D02*
X110954285Y-111966247D01*
X110954285Y-111966247D02*
X110859047Y-112013866D01*
X110859047Y-112013866D02*
X110668571Y-112013866D01*
X110668571Y-112013866D02*
X110573333Y-111966247D01*
X110573333Y-111966247D02*
X110525714Y-111918628D01*
X110525714Y-111918628D02*
X110478095Y-111823390D01*
X91164819Y-112182142D02*
X90688628Y-111848809D01*
X91164819Y-111610714D02*
X90164819Y-111610714D01*
X90164819Y-111610714D02*
X90164819Y-111991666D01*
X90164819Y-111991666D02*
X90212438Y-112086904D01*
X90212438Y-112086904D02*
X90260057Y-112134523D01*
X90260057Y-112134523D02*
X90355295Y-112182142D01*
X90355295Y-112182142D02*
X90498152Y-112182142D01*
X90498152Y-112182142D02*
X90593390Y-112134523D01*
X90593390Y-112134523D02*
X90641009Y-112086904D01*
X90641009Y-112086904D02*
X90688628Y-111991666D01*
X90688628Y-111991666D02*
X90688628Y-111610714D01*
X90260057Y-112563095D02*
X90212438Y-112610714D01*
X90212438Y-112610714D02*
X90164819Y-112705952D01*
X90164819Y-112705952D02*
X90164819Y-112944047D01*
X90164819Y-112944047D02*
X90212438Y-113039285D01*
X90212438Y-113039285D02*
X90260057Y-113086904D01*
X90260057Y-113086904D02*
X90355295Y-113134523D01*
X90355295Y-113134523D02*
X90450533Y-113134523D01*
X90450533Y-113134523D02*
X90593390Y-113086904D01*
X90593390Y-113086904D02*
X91164819Y-112515476D01*
X91164819Y-112515476D02*
X91164819Y-113134523D01*
X90164819Y-113467857D02*
X90164819Y-114134523D01*
X90164819Y-114134523D02*
X91164819Y-113705952D01*
X93914819Y-96306666D02*
X94629104Y-96306666D01*
X94629104Y-96306666D02*
X94771961Y-96259047D01*
X94771961Y-96259047D02*
X94867200Y-96163809D01*
X94867200Y-96163809D02*
X94914819Y-96020952D01*
X94914819Y-96020952D02*
X94914819Y-95925714D01*
X94914819Y-97306666D02*
X94914819Y-96735238D01*
X94914819Y-97020952D02*
X93914819Y-97020952D01*
X93914819Y-97020952D02*
X94057676Y-96925714D01*
X94057676Y-96925714D02*
X94152914Y-96830476D01*
X94152914Y-96830476D02*
X94200533Y-96735238D01*
X91356354Y-114974824D02*
X91208826Y-114944635D01*
X91208826Y-114944635D02*
X91002630Y-114825588D01*
X91002630Y-114825588D02*
X90943961Y-114736729D01*
X90943961Y-114736729D02*
X90926531Y-114671680D01*
X90926531Y-114671680D02*
X90932910Y-114565392D01*
X90932910Y-114565392D02*
X90980530Y-114482914D01*
X90980530Y-114482914D02*
X91069388Y-114424245D01*
X91069388Y-114424245D02*
X91134437Y-114406815D01*
X91134437Y-114406815D02*
X91240725Y-114413195D01*
X91240725Y-114413195D02*
X91429492Y-114467193D01*
X91429492Y-114467193D02*
X91535780Y-114473573D01*
X91535780Y-114473573D02*
X91600829Y-114456143D01*
X91600829Y-114456143D02*
X91689687Y-114397474D01*
X91689687Y-114397474D02*
X91737306Y-114314996D01*
X91737306Y-114314996D02*
X91743686Y-114208707D01*
X91743686Y-114208707D02*
X91726256Y-114143659D01*
X91726256Y-114143659D02*
X91667587Y-114054800D01*
X91667587Y-114054800D02*
X91461390Y-113935753D01*
X91461390Y-113935753D02*
X91313863Y-113905563D01*
X91048997Y-113697657D02*
X90342801Y-114444635D01*
X90342801Y-114444635D02*
X90534986Y-113730807D01*
X90534986Y-113730807D02*
X90012886Y-114254159D01*
X90012886Y-114254159D02*
X90306690Y-113269086D01*
X89438955Y-113152999D02*
X89105622Y-113730350D01*
X89835628Y-112942132D02*
X89684681Y-113679770D01*
X89684681Y-113679770D02*
X89148570Y-113370246D01*
X106382822Y-119200849D02*
X107248847Y-118700849D01*
X107248847Y-118700849D02*
X107129800Y-118494652D01*
X107129800Y-118494652D02*
X107017132Y-118394744D01*
X107017132Y-118394744D02*
X106887034Y-118359884D01*
X106887034Y-118359884D02*
X106780746Y-118366264D01*
X106780746Y-118366264D02*
X106591979Y-118420263D01*
X106591979Y-118420263D02*
X106468261Y-118491691D01*
X106468261Y-118491691D02*
X106327114Y-118628169D01*
X106327114Y-118628169D02*
X106268445Y-118717027D01*
X106268445Y-118717027D02*
X106233585Y-118847125D01*
X106233585Y-118847125D02*
X106263774Y-118994652D01*
X106263774Y-118994652D02*
X106382822Y-119200849D01*
X105620917Y-117881191D02*
X105906632Y-118376063D01*
X105763774Y-118128627D02*
X106629800Y-117628627D01*
X106629800Y-117628627D02*
X106553701Y-117782534D01*
X106553701Y-117782534D02*
X106518841Y-117912632D01*
X106518841Y-117912632D02*
X106525221Y-118018920D01*
X114328961Y-93430061D02*
X114219849Y-93326282D01*
X114219849Y-93326282D02*
X114108070Y-93116056D01*
X114108070Y-93116056D02*
X114105403Y-93009610D01*
X114105403Y-93009610D02*
X114125093Y-92945209D01*
X114125093Y-92945209D02*
X114186827Y-92858452D01*
X114186827Y-92858452D02*
X114270917Y-92813741D01*
X114270917Y-92813741D02*
X114377363Y-92811074D01*
X114377363Y-92811074D02*
X114441764Y-92830764D01*
X114441764Y-92830764D02*
X114528521Y-92892498D01*
X114528521Y-92892498D02*
X114659989Y-93038323D01*
X114659989Y-93038323D02*
X114746746Y-93100057D01*
X114746746Y-93100057D02*
X114811147Y-93119747D01*
X114811147Y-93119747D02*
X114917593Y-93117080D01*
X114917593Y-93117080D02*
X115001683Y-93072369D01*
X115001683Y-93072369D02*
X115063418Y-92985612D01*
X115063418Y-92985612D02*
X115083107Y-92921211D01*
X115083107Y-92921211D02*
X115080440Y-92814765D01*
X115080440Y-92814765D02*
X114968661Y-92604539D01*
X114968661Y-92604539D02*
X114859549Y-92500760D01*
X114745104Y-92184088D02*
X113750377Y-92443334D01*
X113750377Y-92443334D02*
X114291631Y-91939817D01*
X114291631Y-91939817D02*
X113571531Y-92106973D01*
X113571531Y-92106973D02*
X114342699Y-91427276D01*
X113940295Y-90670464D02*
X114163853Y-91090915D01*
X114163853Y-91090915D02*
X113765758Y-91356518D01*
X113765758Y-91356518D02*
X113785447Y-91292117D01*
X113785447Y-91292117D02*
X113782781Y-91185671D01*
X113782781Y-91185671D02*
X113671002Y-90975446D01*
X113671002Y-90975446D02*
X113584245Y-90913711D01*
X113584245Y-90913711D02*
X113519844Y-90894022D01*
X113519844Y-90894022D02*
X113413398Y-90896688D01*
X113413398Y-90896688D02*
X113203172Y-91008467D01*
X113203172Y-91008467D02*
X113141438Y-91095224D01*
X113141438Y-91095224D02*
X113121749Y-91159625D01*
X113121749Y-91159625D02*
X113124415Y-91266071D01*
X113124415Y-91266071D02*
X113236194Y-91476296D01*
X113236194Y-91476296D02*
X113322951Y-91538031D01*
X113322951Y-91538031D02*
X113387352Y-91557720D01*
X81190819Y-99051905D02*
X82000342Y-99051905D01*
X82000342Y-99051905D02*
X82095580Y-99099524D01*
X82095580Y-99099524D02*
X82143200Y-99147143D01*
X82143200Y-99147143D02*
X82190819Y-99242381D01*
X82190819Y-99242381D02*
X82190819Y-99432857D01*
X82190819Y-99432857D02*
X82143200Y-99528095D01*
X82143200Y-99528095D02*
X82095580Y-99575714D01*
X82095580Y-99575714D02*
X82000342Y-99623333D01*
X82000342Y-99623333D02*
X81190819Y-99623333D01*
X82190819Y-100623333D02*
X82190819Y-100051905D01*
X82190819Y-100337619D02*
X81190819Y-100337619D01*
X81190819Y-100337619D02*
X81333676Y-100242381D01*
X81333676Y-100242381D02*
X81428914Y-100147143D01*
X81428914Y-100147143D02*
X81476533Y-100051905D01*
X81286057Y-101004286D02*
X81238438Y-101051905D01*
X81238438Y-101051905D02*
X81190819Y-101147143D01*
X81190819Y-101147143D02*
X81190819Y-101385238D01*
X81190819Y-101385238D02*
X81238438Y-101480476D01*
X81238438Y-101480476D02*
X81286057Y-101528095D01*
X81286057Y-101528095D02*
X81381295Y-101575714D01*
X81381295Y-101575714D02*
X81476533Y-101575714D01*
X81476533Y-101575714D02*
X81619390Y-101528095D01*
X81619390Y-101528095D02*
X82190819Y-100956667D01*
X82190819Y-100956667D02*
X82190819Y-101575714D01*
X114882789Y-107776399D02*
X114852600Y-107923927D01*
X114852600Y-107923927D02*
X114733553Y-108130123D01*
X114733553Y-108130123D02*
X114644694Y-108188792D01*
X114644694Y-108188792D02*
X114579645Y-108206222D01*
X114579645Y-108206222D02*
X114473357Y-108199843D01*
X114473357Y-108199843D02*
X114390879Y-108152223D01*
X114390879Y-108152223D02*
X114332210Y-108063365D01*
X114332210Y-108063365D02*
X114314780Y-107998316D01*
X114314780Y-107998316D02*
X114321160Y-107892028D01*
X114321160Y-107892028D02*
X114375158Y-107703261D01*
X114375158Y-107703261D02*
X114381538Y-107596973D01*
X114381538Y-107596973D02*
X114364108Y-107531924D01*
X114364108Y-107531924D02*
X114305439Y-107443066D01*
X114305439Y-107443066D02*
X114222961Y-107395447D01*
X114222961Y-107395447D02*
X114116672Y-107389067D01*
X114116672Y-107389067D02*
X114051624Y-107406497D01*
X114051624Y-107406497D02*
X113962765Y-107465166D01*
X113962765Y-107465166D02*
X113843718Y-107671363D01*
X113843718Y-107671363D02*
X113813528Y-107818890D01*
X113605622Y-108083756D02*
X114352600Y-108789952D01*
X114352600Y-108789952D02*
X113638772Y-108597767D01*
X113638772Y-108597767D02*
X114162124Y-109119867D01*
X114162124Y-109119867D02*
X113177051Y-108826063D01*
X112772289Y-109527131D02*
X112867527Y-109362174D01*
X112867527Y-109362174D02*
X112956386Y-109303505D01*
X112956386Y-109303505D02*
X113021434Y-109286075D01*
X113021434Y-109286075D02*
X113192771Y-109275025D01*
X113192771Y-109275025D02*
X113381538Y-109329024D01*
X113381538Y-109329024D02*
X113711453Y-109519500D01*
X113711453Y-109519500D02*
X113770122Y-109608359D01*
X113770122Y-109608359D02*
X113787551Y-109673407D01*
X113787551Y-109673407D02*
X113781172Y-109779695D01*
X113781172Y-109779695D02*
X113685934Y-109944653D01*
X113685934Y-109944653D02*
X113597075Y-110003322D01*
X113597075Y-110003322D02*
X113532026Y-110020752D01*
X113532026Y-110020752D02*
X113425738Y-110014372D01*
X113425738Y-110014372D02*
X113219542Y-109895324D01*
X113219542Y-109895324D02*
X113160873Y-109806466D01*
X113160873Y-109806466D02*
X113143443Y-109741417D01*
X113143443Y-109741417D02*
X113149823Y-109635129D01*
X113149823Y-109635129D02*
X113245061Y-109470172D01*
X113245061Y-109470172D02*
X113333919Y-109411503D01*
X113333919Y-109411503D02*
X113398968Y-109394073D01*
X113398968Y-109394073D02*
X113505256Y-109400453D01*
X96084819Y-79616666D02*
X96799104Y-79616666D01*
X96799104Y-79616666D02*
X96941961Y-79569047D01*
X96941961Y-79569047D02*
X97037200Y-79473809D01*
X97037200Y-79473809D02*
X97084819Y-79330952D01*
X97084819Y-79330952D02*
X97084819Y-79235714D01*
X96084819Y-79997619D02*
X96084819Y-80664285D01*
X96084819Y-80664285D02*
X97084819Y-80235714D01*
X115436663Y-99361969D02*
X116150948Y-99361969D01*
X116150948Y-99361969D02*
X116293805Y-99314350D01*
X116293805Y-99314350D02*
X116389044Y-99219112D01*
X116389044Y-99219112D02*
X116436663Y-99076255D01*
X116436663Y-99076255D02*
X116436663Y-98981017D01*
X115436663Y-100266731D02*
X115436663Y-100076255D01*
X115436663Y-100076255D02*
X115484282Y-99981017D01*
X115484282Y-99981017D02*
X115531901Y-99933398D01*
X115531901Y-99933398D02*
X115674758Y-99838160D01*
X115674758Y-99838160D02*
X115865234Y-99790541D01*
X115865234Y-99790541D02*
X116246186Y-99790541D01*
X116246186Y-99790541D02*
X116341424Y-99838160D01*
X116341424Y-99838160D02*
X116389044Y-99885779D01*
X116389044Y-99885779D02*
X116436663Y-99981017D01*
X116436663Y-99981017D02*
X116436663Y-100171493D01*
X116436663Y-100171493D02*
X116389044Y-100266731D01*
X116389044Y-100266731D02*
X116341424Y-100314350D01*
X116341424Y-100314350D02*
X116246186Y-100361969D01*
X116246186Y-100361969D02*
X116008091Y-100361969D01*
X116008091Y-100361969D02*
X115912853Y-100314350D01*
X115912853Y-100314350D02*
X115865234Y-100266731D01*
X115865234Y-100266731D02*
X115817615Y-100171493D01*
X115817615Y-100171493D02*
X115817615Y-99981017D01*
X115817615Y-99981017D02*
X115865234Y-99885779D01*
X115865234Y-99885779D02*
X115912853Y-99838160D01*
X115912853Y-99838160D02*
X116008091Y-99790541D01*
X146574663Y-105776969D02*
X147288948Y-105776969D01*
X147288948Y-105776969D02*
X147431805Y-105729350D01*
X147431805Y-105729350D02*
X147527044Y-105634112D01*
X147527044Y-105634112D02*
X147574663Y-105491255D01*
X147574663Y-105491255D02*
X147574663Y-105396017D01*
X146574663Y-106729350D02*
X146574663Y-106253160D01*
X146574663Y-106253160D02*
X147050853Y-106205541D01*
X147050853Y-106205541D02*
X147003234Y-106253160D01*
X147003234Y-106253160D02*
X146955615Y-106348398D01*
X146955615Y-106348398D02*
X146955615Y-106586493D01*
X146955615Y-106586493D02*
X147003234Y-106681731D01*
X147003234Y-106681731D02*
X147050853Y-106729350D01*
X147050853Y-106729350D02*
X147146091Y-106776969D01*
X147146091Y-106776969D02*
X147384186Y-106776969D01*
X147384186Y-106776969D02*
X147479424Y-106729350D01*
X147479424Y-106729350D02*
X147527044Y-106681731D01*
X147527044Y-106681731D02*
X147574663Y-106586493D01*
X147574663Y-106586493D02*
X147574663Y-106348398D01*
X147574663Y-106348398D02*
X147527044Y-106253160D01*
X147527044Y-106253160D02*
X147479424Y-106205541D01*
D11*
%TO.C,R29*%
X111512936Y-111025000D02*
X111967064Y-111025000D01*
X111512936Y-109555000D02*
X111967064Y-109555000D01*
%TO.C,R27*%
X91625000Y-112597936D02*
X91625000Y-113052064D01*
X93095000Y-112597936D02*
X93095000Y-113052064D01*
%TO.C,J1*%
X103200000Y-95310000D02*
X103200000Y-97970000D01*
X98060000Y-97970000D02*
X103200000Y-97970000D01*
X98060000Y-95310000D02*
X103200000Y-95310000D01*
X98060000Y-95310000D02*
X98060000Y-97970000D01*
X96790000Y-95310000D02*
X95460000Y-95310000D01*
X95460000Y-95310000D02*
X95460000Y-96640000D01*
%TO.C,SW4*%
X87211338Y-115067539D02*
X87171337Y-115136820D01*
X88923967Y-114301179D02*
X87971338Y-113751179D01*
X91039171Y-117277538D02*
X90999170Y-117346819D01*
X91799170Y-115961179D02*
X90846542Y-115411180D01*
%TO.C,D1*%
X106915924Y-117434567D02*
X107715923Y-118820208D01*
X107715923Y-118820208D02*
X108504006Y-118365208D01*
X109429525Y-115348254D02*
X110504525Y-117210209D01*
X109716442Y-117665208D02*
X110504525Y-117210209D01*
X106709224Y-116976555D02*
X106543436Y-117349401D01*
X106303436Y-116933709D01*
X106709224Y-116976555D01*
G36*
X106709224Y-116976555D02*
G01*
X106543436Y-117349401D01*
X106303436Y-116933709D01*
X106709224Y-116976555D01*
G37*
%TO.C,SW5*%
X113943269Y-89622065D02*
X114459687Y-90593307D01*
X115285350Y-88908468D02*
X115355986Y-88870910D01*
X115501916Y-92553450D02*
X116018334Y-93524693D01*
X117360414Y-92811096D02*
X117431050Y-92773538D01*
D12*
%TO.C,U12*%
X72050000Y-100290000D02*
X72050000Y-100232500D01*
X72050000Y-100353000D02*
X72050000Y-100290000D01*
X75450000Y-98634500D02*
X75450000Y-101945500D01*
X75697000Y-98039500D02*
X75906000Y-97830000D01*
X75746500Y-102660500D02*
X75796000Y-102710000D01*
X79233000Y-107536000D02*
X79400000Y-107536000D01*
X79337000Y-95149500D02*
X79354500Y-105459500D01*
X79354500Y-105459500D02*
X79718000Y-105459500D01*
X79676000Y-95150000D02*
X79343000Y-95150000D01*
X83819000Y-95150000D02*
X81481500Y-95150000D01*
X83819000Y-105460000D02*
X81481500Y-105460000D01*
X85581500Y-105460000D02*
X86496000Y-105460000D01*
X86496000Y-95150000D02*
X85581500Y-95150000D01*
X86496000Y-95250000D02*
X86496000Y-95150000D01*
X86496000Y-95409000D02*
X86496000Y-95250000D01*
X86496000Y-97934000D02*
X86496000Y-97171000D01*
X86496000Y-100884000D02*
X86496000Y-99696000D01*
X86496000Y-103409000D02*
X86496000Y-102646000D01*
X86496000Y-105460000D02*
X86496000Y-105171000D01*
X72050000Y-100232500D02*
G75*
G02*
X79246500Y-93036500I7196855J-855D01*
G01*
X75450000Y-98634500D02*
G75*
G02*
X75697000Y-98039500I845031J-2026D01*
G01*
X75925500Y-102803000D02*
G75*
G02*
X75450001Y-101945500I535390J857470D01*
G01*
X76832500Y-96891500D02*
G75*
G02*
X79300000Y-96090000I2467184J-3396502D01*
G01*
X79220500Y-93036500D02*
G75*
G02*
X83759499Y-94626002I-410J-7276730D01*
G01*
X79233000Y-107536000D02*
G75*
G02*
X72050000Y-100353000I0J7183000D01*
G01*
X79306000Y-104490000D02*
G75*
G02*
X76838500Y-103688500I918J4201803D01*
G01*
X83795000Y-105940500D02*
G75*
G02*
X79256000Y-107530000I-4539023J5686134D01*
G01*
X84986000Y-95610000D02*
G75*
G02*
X86252500Y-97987500I-5513768J-4463282D01*
G01*
X86182500Y-102526500D02*
G75*
G02*
X84916000Y-104904000I-6786160J2088920D01*
G01*
D11*
%TO.C,SW6*%
X114209144Y-110208789D02*
X113659145Y-111161414D01*
X114975503Y-111921416D02*
X115044785Y-111961415D01*
X115869144Y-107333584D02*
X115319144Y-108286212D01*
X117185503Y-108093585D02*
X117254785Y-108133584D01*
%TO.C,J7*%
X97630000Y-78620000D02*
X97630000Y-79950000D01*
X98960000Y-78620000D02*
X97630000Y-78620000D01*
X100230000Y-78620000D02*
X100230000Y-81280000D01*
X100230000Y-78620000D02*
X102830000Y-78620000D01*
X100230000Y-81280000D02*
X102830000Y-81280000D01*
X102830000Y-78620000D02*
X102830000Y-81280000D01*
%TO.C,J6*%
X106319697Y-84320000D02*
X106319697Y-99620000D01*
X108979697Y-81720000D02*
X107649697Y-81720000D01*
X108979697Y-83050000D02*
X108979697Y-81720000D01*
X108979697Y-84320000D02*
X106319697Y-84320000D01*
X108979697Y-84320000D02*
X108979697Y-99620000D01*
X108979697Y-99620000D02*
X106319697Y-99620000D01*
%TO.C,J5*%
X90819697Y-84320000D02*
X90819697Y-99620000D01*
X93479697Y-81720000D02*
X92149697Y-81720000D01*
X93479697Y-83050000D02*
X93479697Y-81720000D01*
X93479697Y-84320000D02*
X90819697Y-84320000D01*
X93479697Y-84320000D02*
X93479697Y-99620000D01*
X93479697Y-99620000D02*
X90819697Y-99620000D01*
%TD*%
M02*
