M48
; DRILL file {KiCad 9.0.0} date 2025-06-04T20:21:40+0200
; FORMAT={-:-/ absolute / inch / decimal}
; #@! TF.CreationDate,2025-06-04T20:21:40+02:00
; #@! TF.GenerationSoftware,Kicad,Pcbnew,9.0.0
; #@! TF.FileFunction,Plated,1,2,PTH
FMAT,2
INCH
; #@! TA.AperFunction,Plated,PTH,ViaDrill
T1C0.0157
; #@! TA.AperFunction,Plated,PTH,ComponentDrill
T2C0.0295
; #@! TA.AperFunction,Plated,PTH,ComponentDrill
T3C0.0374
; #@! TA.AperFunction,Plated,PTH,ComponentDrill
T4C0.0394
%
G90
G05
T1
X3.552Y-4.0449
X3.6851Y-4.1863
X3.6855Y-4.0371
X4.2402Y-4.0651
X4.2933Y-4.6422
X4.3008Y-4.0652
T2
X4.385Y-3.2886
X4.385Y-3.3673
X4.385Y-3.4461
T3
X3.4183Y-4.5574
X3.5683Y-4.644
X4.5537Y-4.4216
X4.5664Y-3.4861
X4.6403Y-4.2715
X4.6478Y-3.639
T4
X3.4827Y-3.5287
X3.4827Y-3.6287
X3.6279Y-3.2697
X3.6279Y-3.3697
X3.6279Y-3.4697
X3.6279Y-3.5697
X3.6279Y-3.6697
X3.6279Y-3.7697
X3.6279Y-3.8697
X3.7736Y-3.2693
X3.7736Y-3.3693
X3.7736Y-3.4693
X3.7736Y-3.5693
X3.8106Y-3.8047
X3.8961Y-3.1476
X3.9106Y-3.8047
X3.9961Y-3.1476
X4.0106Y-3.8047
X4.2382Y-3.2697
X4.2382Y-3.3697
X4.2382Y-3.4697
X4.2382Y-3.5697
X4.2382Y-3.6697
X4.2382Y-3.7697
X4.2382Y-3.8697
M30
