%TF.GenerationSoftware,KiCad,Pcbnew,9.0.0*%
%TF.CreationDate,2025-06-05T22:29:36+02:00*%
%TF.ProjectId,SI4684,53493436-3834-42e6-9b69-6361645f7063,A*%
%TF.SameCoordinates,Original*%
%TF.FileFunction,Copper,L2,Bot*%
%TF.FilePolarity,Positive*%
%FSLAX46Y46*%
G04 Gerber Fmt 4.6, Leading zero omitted, Abs format (unit mm)*
G04 Created by KiCad (PCBNEW 9.0.0) date 2025-06-05 22:29:36*
%MOMM*%
%LPD*%
G01*
G04 APERTURE LIST*
G04 Aperture macros list*
%AMRoundRect*
0 Rectangle with rounded corners*
0 $1 Rounding radius*
0 $2 $3 $4 $5 $6 $7 $8 $9 X,Y pos of 4 corners*
0 Add a 4 corners polygon primitive as box body*
4,1,4,$2,$3,$4,$5,$6,$7,$8,$9,$2,$3,0*
0 Add four circle primitives for the rounded corners*
1,1,$1+$1,$2,$3*
1,1,$1+$1,$4,$5*
1,1,$1+$1,$6,$7*
1,1,$1+$1,$8,$9*
0 Add four rect primitives between the rounded corners*
20,1,$1+$1,$2,$3,$4,$5,0*
20,1,$1+$1,$4,$5,$6,$7,0*
20,1,$1+$1,$6,$7,$8,$9,0*
20,1,$1+$1,$8,$9,$2,$3,0*%
G04 Aperture macros list end*
%TA.AperFunction,SMDPad,CuDef*%
%ADD10RoundRect,0.237500X0.250000X0.237500X-0.250000X0.237500X-0.250000X-0.237500X0.250000X-0.237500X0*%
%TD*%
%TA.AperFunction,SMDPad,CuDef*%
%ADD11R,0.350000X2.500000*%
%TD*%
%TA.AperFunction,SMDPad,CuDef*%
%ADD12RoundRect,0.200000X-0.200000X-0.275000X0.200000X-0.275000X0.200000X0.275000X-0.200000X0.275000X0*%
%TD*%
%TA.AperFunction,SMDPad,CuDef*%
%ADD13RoundRect,0.200000X-0.275000X0.200000X-0.275000X-0.200000X0.275000X-0.200000X0.275000X0.200000X0*%
%TD*%
%TA.AperFunction,SMDPad,CuDef*%
%ADD14RoundRect,0.150000X-0.150000X0.587500X-0.150000X-0.587500X0.150000X-0.587500X0.150000X0.587500X0*%
%TD*%
%TA.AperFunction,SMDPad,CuDef*%
%ADD15RoundRect,0.250000X0.431939X-1.598141X1.168061X-1.173141X-0.431939X1.598141X-1.168061X1.173141X0*%
%TD*%
%TA.AperFunction,ComponentPad*%
%ADD16RoundRect,0.250000X0.625000X-0.350000X0.625000X0.350000X-0.625000X0.350000X-0.625000X-0.350000X0*%
%TD*%
%TA.AperFunction,ComponentPad*%
%ADD17O,1.750000X1.200000*%
%TD*%
%TA.AperFunction,ComponentPad*%
%ADD18R,1.700000X1.700000*%
%TD*%
%TA.AperFunction,ComponentPad*%
%ADD19O,1.700000X1.700000*%
%TD*%
%TA.AperFunction,SMDPad,CuDef*%
%ADD20RoundRect,0.165000X0.550920X0.184221X-0.115920X0.569221X-0.550920X-0.184221X0.115920X-0.569221X0*%
%TD*%
%TA.AperFunction,SMDPad,CuDef*%
%ADD21RoundRect,0.180000X0.573731X0.153731X-0.153731X0.573731X-0.573731X-0.153731X0.153731X-0.573731X0*%
%TD*%
%TA.AperFunction,ComponentPad*%
%ADD22C,0.950000*%
%TD*%
%TA.AperFunction,SMDPad,CuDef*%
%ADD23RoundRect,0.210000X0.712654X0.154352X-0.222654X0.694352X-0.712654X-0.154352X0.222654X-0.694352X0*%
%TD*%
%TA.AperFunction,SMDPad,CuDef*%
%ADD24RoundRect,0.175000X-0.314054X0.193958X0.010946X-0.368958X0.314054X-0.193958X-0.010946X0.368958X0*%
%TD*%
%TA.AperFunction,SMDPad,CuDef*%
%ADD25RoundRect,0.165000X-0.580703X0.015315X-0.085756X-0.574540X0.580703X-0.015315X0.085756X0.574540X0*%
%TD*%
%TA.AperFunction,SMDPad,CuDef*%
%ADD26RoundRect,0.180000X-0.591709X0.051768X-0.051768X-0.591709X0.591709X-0.051768X0.051768X0.591709X0*%
%TD*%
%TA.AperFunction,SMDPad,CuDef*%
%ADD27RoundRect,0.210000X-0.722467X0.098698X-0.028256X-0.728630X0.722467X-0.098698X0.028256X0.728630X0*%
%TD*%
%TA.AperFunction,SMDPad,CuDef*%
%ADD28R,1.300000X1.200000*%
%TD*%
%TA.AperFunction,SMDPad,CuDef*%
%ADD29R,1.400000X1.300000*%
%TD*%
%TA.AperFunction,SMDPad,CuDef*%
%ADD30RoundRect,0.250000X0.450000X-0.350000X0.450000X0.350000X-0.450000X0.350000X-0.450000X-0.350000X0*%
%TD*%
%TA.AperFunction,SMDPad,CuDef*%
%ADD31RoundRect,0.165000X-0.184221X0.550920X-0.569221X-0.115920X0.184221X-0.550920X0.569221X0.115920X0*%
%TD*%
%TA.AperFunction,SMDPad,CuDef*%
%ADD32RoundRect,0.180000X-0.153731X0.573731X-0.573731X-0.153731X0.153731X-0.573731X0.573731X0.153731X0*%
%TD*%
%TA.AperFunction,SMDPad,CuDef*%
%ADD33RoundRect,0.210000X-0.154352X0.712654X-0.694352X-0.222654X0.154352X-0.712654X0.694352X0.222654X0*%
%TD*%
%TA.AperFunction,SMDPad,CuDef*%
%ADD34RoundRect,0.250000X-0.450000X0.350000X-0.450000X-0.350000X0.450000X-0.350000X0.450000X0.350000X0*%
%TD*%
%TA.AperFunction,ViaPad*%
%ADD35C,0.800000*%
%TD*%
%TA.AperFunction,ViaPad*%
%ADD36C,0.500000*%
%TD*%
%TA.AperFunction,Conductor*%
%ADD37C,0.200000*%
%TD*%
%TA.AperFunction,Conductor*%
%ADD38C,0.250000*%
%TD*%
%TA.AperFunction,Conductor*%
%ADD39C,0.500000*%
%TD*%
%TA.AperFunction,Conductor*%
%ADD40C,0.400000*%
%TD*%
%TA.AperFunction,Conductor*%
%ADD41C,0.800000*%
%TD*%
%TA.AperFunction,Conductor*%
%ADD42C,0.300000*%
%TD*%
G04 APERTURE END LIST*
D10*
%TO.P,R34,1*%
%TO.N,Net-(U13-RST)*%
X99490000Y-90870000D03*
%TO.P,R34,2*%
%TO.N,+3.3VA*%
X97665000Y-90870000D03*
%TD*%
D11*
%TO.P,U13,1,GND*%
%TO.N,GND*%
X103330000Y-88000000D03*
%TO.P,U13,2,LEDK*%
%TO.N,/LEDK*%
X102830000Y-88000000D03*
%TO.P,U13,3,LEDA*%
%TO.N,Net-(U13-LEDA)*%
X102330000Y-88000000D03*
%TO.P,U13,4,VDD*%
%TO.N,+3.3VA*%
X101830000Y-88000000D03*
%TO.P,U13,5,RS*%
%TO.N,LCD_DC*%
X101330000Y-88000000D03*
%TO.P,U13,6,CS*%
%TO.N,LCD_CS*%
X100830000Y-88000000D03*
%TO.P,U13,7,SCK*%
%TO.N,CLK*%
X100330000Y-88000000D03*
%TO.P,U13,8,DAT*%
%TO.N,MOSI*%
X99830000Y-88000000D03*
%TO.P,U13,9,RST*%
%TO.N,Net-(U13-RST)*%
X99330000Y-88000000D03*
%TO.P,U13,10,TP_VCC*%
%TO.N,+3.3VA*%
X98830000Y-88000000D03*
%TO.P,U13,11,TP_GND*%
%TO.N,GND*%
X98330000Y-88000000D03*
%TO.P,U13,12,TP_RST*%
%TO.N,+3.3VA*%
X97830000Y-88000000D03*
%TO.P,U13,13,TP_INT*%
%TO.N,TP2_INT*%
X97330000Y-88000000D03*
%TO.P,U13,14,TP_SDA*%
%TO.N,SDA*%
X96830000Y-88000000D03*
%TO.P,U13,15,TP_SCL*%
%TO.N,SCL*%
X96330000Y-88000000D03*
%TD*%
D12*
%TO.P,R22,1*%
%TO.N,+3.3VA*%
X101510000Y-90360000D03*
%TO.P,R22,2*%
%TO.N,Net-(U13-LEDA)*%
X103160000Y-90360000D03*
%TD*%
D13*
%TO.P,R19,1*%
%TO.N,GND*%
X96020000Y-80485000D03*
%TO.P,R19,2*%
%TO.N,Net-(Q2-G)*%
X96020000Y-82135000D03*
%TD*%
%TO.P,R18,1*%
%TO.N,Net-(Q2-G)*%
X100920000Y-82650000D03*
%TO.P,R18,2*%
%TO.N,+3.3VA*%
X100920000Y-84300000D03*
%TD*%
D14*
%TO.P,Q2,1,G*%
%TO.N,Net-(Q2-G)*%
X102495000Y-82953748D03*
%TO.P,Q2,2,S*%
%TO.N,GND*%
X104395000Y-82953748D03*
%TO.P,Q2,3,D*%
%TO.N,/LEDK*%
X103445000Y-84828748D03*
%TD*%
D15*
%TO.P,ANT1,2,Shield*%
%TO.N,GND*%
X106890000Y-119790000D03*
X111783044Y-116965001D03*
%TD*%
D16*
%TO.P,J3,1,Pin_1*%
%TO.N,Net-(J3-Pin_1)*%
X111380000Y-87530000D03*
D17*
%TO.P,J3,2,Pin_2*%
%TO.N,GND*%
X111380000Y-85530000D03*
%TO.P,J3,3,Pin_3*%
%TO.N,Net-(J3-Pin_3)*%
X111380000Y-83530000D03*
%TD*%
D18*
%TO.P,J8,1,Pin_1*%
%TO.N,P1*%
X88460000Y-92170000D03*
D19*
%TO.P,J8,2,Pin_2*%
%TO.N,P0*%
X88460000Y-89630000D03*
%TD*%
D20*
%TO.P,SW4,1,1*%
%TO.N,GND*%
X91280607Y-116539358D03*
%TO.P,SW4,2,2*%
%TO.N,P4*%
X87729902Y-114489359D03*
D21*
%TO.P,SW4,SH*%
%TO.N,N/C*%
X90610512Y-117999999D03*
D22*
X90635510Y-117956697D03*
D23*
X89817754Y-114973093D03*
D21*
X86800000Y-115800000D03*
D22*
X86824998Y-115756699D03*
%TD*%
D24*
%TO.P,D1,1,K*%
%TO.N,GND*%
X107150000Y-116520001D03*
%TO.P,D1,2,A*%
X108795448Y-115570001D03*
%TO.P,D1,3,K*%
%TO.N,Net-(ANT1-A)*%
X109172723Y-118123462D03*
%TD*%
D18*
%TO.P,J1,1,Pin_1*%
%TO.N,I2SLRC*%
X96790000Y-96640000D03*
D19*
%TO.P,J1,2,Pin_2*%
%TO.N,I2SCLK*%
X99330000Y-96640000D03*
%TO.P,J1,3,Pin_3*%
%TO.N,I2SDIN*%
X101870000Y-96640000D03*
%TD*%
D25*
%TO.P,SW5,1,1*%
%TO.N,P2*%
X114152480Y-88642772D03*
%TO.P,SW5,2,2*%
%TO.N,GND*%
X116787911Y-91783553D03*
D22*
%TO.P,SW5,SH*%
%TO.N,N/C*%
X115243432Y-87531543D03*
D26*
X115281736Y-87499405D03*
D27*
X114991418Y-90614904D03*
D26*
X118110000Y-90870000D03*
D22*
X118071697Y-90902140D03*
%TD*%
D28*
%TO.P,U12,1,EH*%
%TO.N,GND*%
X84700000Y-105690000D03*
%TO.P,U12,2,EH*%
X80600000Y-105690000D03*
%TO.P,U12,5,EH*%
%TO.N,unconnected-(U12-EH-Pad5)*%
X80600000Y-94890000D03*
%TO.P,U12,6,EH*%
%TO.N,GND*%
X84700000Y-94890000D03*
D29*
%TO.P,U12,A,A*%
%TO.N,P7*%
X87000000Y-96290000D03*
%TO.P,U12,B,B*%
%TO.N,P5*%
X87000000Y-104290000D03*
%TO.P,U12,C,C*%
%TO.N,GND*%
X87000000Y-101765000D03*
%TO.P,U12,S,S*%
%TO.N,P6*%
X87000000Y-98815000D03*
%TD*%
D30*
%TO.P,R28,1*%
%TO.N,+3V3*%
X111995000Y-92701000D03*
%TO.P,R28,2*%
%TO.N,P2*%
X111995000Y-90701000D03*
%TD*%
D31*
%TO.P,SW6,1,1*%
%TO.N,GND*%
X116447325Y-107852148D03*
%TO.P,SW6,2,2*%
%TO.N,P3*%
X114397324Y-111402853D03*
D22*
%TO.P,SW6,SH*%
%TO.N,N/C*%
X117864662Y-108497242D03*
D32*
X117907963Y-108522244D03*
D33*
X114881058Y-109315000D03*
D22*
X115664664Y-112307755D03*
D32*
X115707964Y-112332756D03*
%TD*%
D30*
%TO.P,R29,1*%
%TO.N,P3*%
X113920000Y-107270000D03*
%TO.P,R29,2*%
%TO.N,+3V3*%
X113920000Y-105270000D03*
%TD*%
D18*
%TO.P,J7,1,Pin_1*%
%TO.N,Net-(J7-Pin_1)*%
X98925000Y-80170000D03*
D19*
%TO.P,J7,2,Pin_2*%
%TO.N,Net-(J7-Pin_2)*%
X101465000Y-80170000D03*
%TD*%
D18*
%TO.P,J6,1,Pin_1*%
%TO.N,+5V*%
X107649697Y-83050000D03*
D19*
%TO.P,J6,2,Pin_2*%
%TO.N,GND*%
X107649697Y-85590000D03*
%TO.P,J6,3,Pin_3*%
%TO.N,+3.3VA*%
X107649697Y-88130000D03*
%TO.P,J6,4,Pin_4*%
%TO.N,MOSI*%
X107649697Y-90670000D03*
%TO.P,J6,5,Pin_5*%
%TO.N,MISO*%
X107649697Y-93210000D03*
%TO.P,J6,6,Pin_6*%
%TO.N,CLK*%
X107649697Y-95750000D03*
%TO.P,J6,7,Pin_7*%
%TO.N,TP2_INT*%
X107649697Y-98290000D03*
%TD*%
D18*
%TO.P,J5,1,Pin_1*%
%TO.N,RST*%
X92149697Y-83050000D03*
D19*
%TO.P,J5,2,Pin_2*%
%TO.N,LCD_CS*%
X92149697Y-85590000D03*
%TO.P,J5,3,Pin_3*%
%TO.N,SS*%
X92149697Y-88130000D03*
%TO.P,J5,4,Pin_4*%
%TO.N,LCD_DC*%
X92149697Y-90670000D03*
%TO.P,J5,5,Pin_5*%
%TO.N,SDA*%
X92149697Y-93210000D03*
%TO.P,J5,6,Pin_6*%
%TO.N,SCL*%
X92149697Y-95750000D03*
%TO.P,J5,7,Pin_7*%
%TO.N,INT*%
X92149697Y-98290000D03*
%TD*%
D34*
%TO.P,R27,1*%
%TO.N,+3V3*%
X88840000Y-110265000D03*
%TO.P,R27,2*%
%TO.N,P4*%
X88840000Y-112265000D03*
%TD*%
D35*
%TO.N,GND*%
X94950000Y-86330000D03*
X88510000Y-87240000D03*
X86470000Y-84510000D03*
%TO.N,SCL*%
X89230000Y-94240000D03*
%TO.N,GND*%
X89150000Y-82670000D03*
%TO.N,+3.3VA*%
X94975632Y-83501000D03*
%TO.N,CLK*%
X105746661Y-94228033D03*
X105747501Y-91057501D03*
%TO.N,TP2_INT*%
X96656000Y-91729000D03*
%TO.N,+3.3VA*%
X96750000Y-85470000D03*
%TO.N,TP2_INT*%
X98300000Y-94380000D03*
%TO.N,GND*%
X97190000Y-107430000D03*
X112090000Y-110120000D03*
X97150000Y-109340000D03*
X116360000Y-88860000D03*
X99210000Y-120280000D03*
D36*
X102548413Y-115548413D03*
D35*
X105220000Y-119550000D03*
X116500000Y-110250000D03*
X118650000Y-107410000D03*
X89480000Y-107630000D03*
X97120000Y-110360000D03*
X100880000Y-120420000D03*
X110729867Y-93311863D03*
D36*
X107916587Y-111886587D03*
D35*
X99610000Y-93140000D03*
X106330000Y-118890000D03*
X117240000Y-94890000D03*
X79310000Y-97200000D03*
X97150000Y-113510000D03*
X111810472Y-107567000D03*
D36*
X101050000Y-115570000D03*
D35*
X112060000Y-109180000D03*
X111430000Y-116310000D03*
X112740000Y-115110000D03*
X97150000Y-112490000D03*
X79260000Y-99040000D03*
X113043935Y-93661001D03*
X97140000Y-114580000D03*
D36*
X106390000Y-107320000D03*
X101760000Y-115570000D03*
D35*
X111910000Y-99310000D03*
X97150000Y-111460000D03*
X81000000Y-92940000D03*
X110217129Y-105493000D03*
X83281125Y-98793570D03*
X88860000Y-100200000D03*
X97852873Y-85317567D03*
X112090000Y-111040000D03*
X89100000Y-116540000D03*
X103500000Y-82450000D03*
X93319339Y-116607249D03*
%TO.N,+5V*%
X103559488Y-95475000D03*
X88672500Y-105170395D03*
%TO.N,+3V3*%
X112730000Y-95890000D03*
X114200000Y-93390000D03*
X104695000Y-102100000D03*
X89770000Y-105690000D03*
X85632347Y-103947653D03*
X90990000Y-109520000D03*
X96742397Y-102325824D03*
X117570000Y-93726686D03*
X109787114Y-102298859D03*
X85420416Y-96085855D03*
%TO.N,SDA*%
X113060000Y-87870000D03*
%TO.N,SCL*%
X118490000Y-92640000D03*
%TO.N,+1V8*%
X112767716Y-108466000D03*
X95500000Y-99760000D03*
%TO.N,RST*%
X97362400Y-116135000D03*
X92862600Y-110730000D03*
%TO.N,Net-(U3-DBYP)*%
X94194769Y-106325231D03*
X93612205Y-102542801D03*
%TO.N,Net-(ANT1-A)*%
X109050224Y-117911285D03*
%TO.N,I2SLRC*%
X107700000Y-103254044D03*
%TO.N,I2SCLK*%
X109240000Y-103255000D03*
%TO.N,P1*%
X83056844Y-93675000D03*
%TO.N,P0*%
X82615000Y-95257192D03*
%TO.N,P3*%
X82352466Y-98300000D03*
%TO.N,P7*%
X88570884Y-98005000D03*
%TO.N,P5*%
X84890000Y-100100000D03*
%TO.N,P2*%
X86920000Y-92940000D03*
%TO.N,P6*%
X84758761Y-99108647D03*
%TO.N,P4*%
X88090000Y-113290000D03*
%TD*%
D37*
%TO.N,GND*%
X104395000Y-85735000D02*
X104395000Y-82953748D01*
X103330000Y-88000000D02*
X103330000Y-86800000D01*
X103330000Y-86800000D02*
X104395000Y-85735000D01*
X103330000Y-88000000D02*
X105239697Y-88000000D01*
X105239697Y-88000000D02*
X107649697Y-85590000D01*
D38*
%TO.N,CLK*%
X105746661Y-94228033D02*
X105834694Y-94140000D01*
X106039697Y-94140000D02*
X107649697Y-95750000D01*
X105834694Y-94140000D02*
X106039697Y-94140000D01*
D39*
%TO.N,+5V*%
X88672500Y-104287500D02*
X88672500Y-105170395D01*
X94400000Y-98560000D02*
X88672500Y-104287500D01*
X94400000Y-96370000D02*
X94400000Y-98560000D01*
X102595000Y-95475000D02*
X102459000Y-95339000D01*
X103559488Y-95475000D02*
X102595000Y-95475000D01*
X95403058Y-95339000D02*
X95215058Y-95527000D01*
X95215058Y-95554942D02*
X94400000Y-96370000D01*
X95215058Y-95527000D02*
X95215058Y-95554942D01*
X102459000Y-95339000D02*
X95403058Y-95339000D01*
D38*
%TO.N,I2SCLK*%
X102600000Y-99910000D02*
X99330000Y-96640000D01*
X105460000Y-99910000D02*
X102600000Y-99910000D01*
X107999460Y-102449460D02*
X105460000Y-99910000D01*
X109155000Y-103255000D02*
X108349460Y-102449460D01*
X109240000Y-103255000D02*
X109155000Y-103255000D01*
X108349460Y-102449460D02*
X107999460Y-102449460D01*
D40*
%TO.N,+3V3*%
X114090000Y-96300000D02*
X114090000Y-105100000D01*
X113680000Y-95890000D02*
X114090000Y-96300000D01*
X112730000Y-95890000D02*
X113680000Y-95890000D01*
X114090000Y-105100000D02*
X113920000Y-105270000D01*
D38*
%TO.N,GND*%
X87310000Y-84510000D02*
X89150000Y-82670000D01*
X86470000Y-84510000D02*
X87310000Y-84510000D01*
%TO.N,SCL*%
X89230000Y-94240000D02*
X90639697Y-94240000D01*
X90639697Y-94240000D02*
X92149697Y-95750000D01*
%TO.N,P2*%
X114152480Y-87935760D02*
X114152480Y-88642772D01*
X113908360Y-87691640D02*
X114152480Y-87935760D01*
X113908360Y-86325798D02*
X113908360Y-87691640D01*
X110721438Y-84456000D02*
X112038562Y-84456000D01*
X110179000Y-83913562D02*
X110721438Y-84456000D01*
X110179000Y-83227303D02*
X110179000Y-83913562D01*
X108297697Y-81346000D02*
X110179000Y-83227303D01*
X90090000Y-93100000D02*
X90112000Y-93078000D01*
X91501697Y-81346000D02*
X108297697Y-81346000D01*
X90112000Y-82735697D02*
X91501697Y-81346000D01*
X90090000Y-93170000D02*
X90090000Y-93100000D01*
X89910000Y-93350000D02*
X90090000Y-93170000D01*
X87330000Y-93350000D02*
X89910000Y-93350000D01*
X86920000Y-92940000D02*
X87330000Y-93350000D01*
X112038562Y-84456000D02*
X113908360Y-86325798D01*
X90112000Y-93078000D02*
X90112000Y-82735697D01*
%TO.N,Net-(Q2-G)*%
X99970000Y-82340000D02*
X96355000Y-82340000D01*
X100410000Y-82780000D02*
X99970000Y-82340000D01*
X100410000Y-82780000D02*
X100790000Y-82780000D01*
%TO.N,+3.3VA*%
X95247632Y-83229000D02*
X94975632Y-83501000D01*
X100317810Y-84300000D02*
X99246810Y-83229000D01*
X99246810Y-83229000D02*
X95247632Y-83229000D01*
X100920000Y-84300000D02*
X100317810Y-84300000D01*
D37*
X97562509Y-84616567D02*
X96750000Y-85429076D01*
X98336567Y-84616567D02*
X97562509Y-84616567D01*
X98830000Y-85110000D02*
X98336567Y-84616567D01*
X96750000Y-85429076D02*
X96750000Y-85470000D01*
X98830000Y-88000000D02*
X98830000Y-85110000D01*
D38*
%TO.N,LCD_CS*%
X100830000Y-86110000D02*
X100830000Y-88000000D01*
X98904000Y-84184000D02*
X100830000Y-86110000D01*
X94660000Y-85560000D02*
X96036000Y-84184000D01*
X92179697Y-85560000D02*
X94660000Y-85560000D01*
X92149697Y-85590000D02*
X92179697Y-85560000D01*
X96036000Y-84184000D02*
X98904000Y-84184000D01*
%TO.N,GND*%
X98330000Y-85696687D02*
X98330000Y-88000000D01*
X97950880Y-85317567D02*
X98330000Y-85696687D01*
X97852873Y-85317567D02*
X97950880Y-85317567D01*
%TO.N,+3.3VA*%
X97830000Y-86320000D02*
X97830000Y-88000000D01*
X96940000Y-85430000D02*
X97830000Y-86320000D01*
X96790000Y-85430000D02*
X96940000Y-85430000D01*
X96750000Y-85470000D02*
X96790000Y-85430000D01*
%TO.N,MOSI*%
X99830000Y-89850000D02*
X99830000Y-88000000D01*
X100310000Y-91350000D02*
X100310000Y-90330000D01*
X100346472Y-91362000D02*
X100322000Y-91362000D01*
X100610662Y-91626190D02*
X100346472Y-91362000D01*
X100815686Y-91831214D02*
X100654596Y-91670124D01*
X100310000Y-90330000D02*
X99830000Y-89850000D01*
X100857472Y-91873000D02*
X100815686Y-91831214D01*
X100322000Y-91362000D02*
X100310000Y-91350000D01*
X100918786Y-91934314D02*
X100857472Y-91873000D01*
X101079876Y-92095404D02*
X100918786Y-91934314D01*
X101121662Y-92137190D02*
X101079876Y-92095404D01*
X101124472Y-92140000D02*
X101123810Y-92139338D01*
X105147810Y-92140000D02*
X101124472Y-92140000D01*
X105168810Y-92119000D02*
X105147810Y-92140000D01*
X105341314Y-92119000D02*
X105168810Y-92119000D01*
X105542430Y-92119000D02*
X105341314Y-92119000D01*
X100654596Y-91670124D02*
X100610662Y-91626190D01*
X105604562Y-92119000D02*
X105542430Y-92119000D01*
X105714934Y-92119000D02*
X105604562Y-92119000D01*
X105978182Y-92119000D02*
X105777066Y-92119000D01*
X106171686Y-92140000D02*
X106150686Y-92119000D01*
X101123810Y-92139338D02*
X101121662Y-92137190D01*
X105777066Y-92119000D02*
X105714934Y-92119000D01*
X106179697Y-92140000D02*
X106171686Y-92140000D01*
X107649697Y-90670000D02*
X106179697Y-92140000D01*
X106150686Y-92119000D02*
X105978182Y-92119000D01*
%TO.N,SDA*%
X96071338Y-92454000D02*
X95570000Y-91952662D01*
X98591124Y-92282214D02*
X98419338Y-92454000D01*
X99060338Y-91813000D02*
X98752214Y-92121124D01*
X99496090Y-91813000D02*
X99060338Y-91813000D01*
X99723910Y-91813000D02*
X99496090Y-91813000D01*
X98419338Y-92454000D02*
X96071338Y-92454000D01*
X100159662Y-91813000D02*
X99723910Y-91813000D01*
X98752214Y-92121124D02*
X98591124Y-92282214D01*
X100467786Y-92121124D02*
X100159662Y-91813000D01*
X100628876Y-92282214D02*
X100467786Y-92121124D01*
X100670662Y-92324000D02*
X100628876Y-92282214D01*
X100937000Y-92590338D02*
X100670662Y-92324000D01*
X100937662Y-92591000D02*
X100937000Y-92590338D01*
X105334620Y-92591000D02*
X100937662Y-92591000D01*
X105355620Y-92570000D02*
X105334620Y-92591000D01*
X105963876Y-92570000D02*
X105791372Y-92570000D01*
X105528124Y-92570000D02*
X105355620Y-92570000D01*
X105791372Y-92570000D02*
X105528124Y-92570000D01*
X105984876Y-92591000D02*
X105963876Y-92570000D01*
X107162581Y-92034000D02*
X106605581Y-92591000D01*
X109026000Y-92034000D02*
X107162581Y-92034000D01*
X113060000Y-88000000D02*
X109026000Y-92034000D01*
X113060000Y-87870000D02*
X113060000Y-88000000D01*
X106605581Y-92591000D02*
X105984876Y-92591000D01*
%TO.N,CLK*%
X101086582Y-91161000D02*
X101525582Y-91600000D01*
X100784000Y-90858418D02*
X101086582Y-91161000D01*
X100784000Y-89861582D02*
X100784000Y-90858418D01*
X100784000Y-89854000D02*
X100784000Y-89861582D01*
X100330000Y-89400000D02*
X100784000Y-89854000D01*
X101525582Y-91600000D02*
X102112190Y-91600000D01*
X102112190Y-91600000D02*
X102124190Y-91612000D01*
X100330000Y-88000000D02*
X100330000Y-89400000D01*
%TO.N,TP2_INT*%
X96685631Y-90554369D02*
X97330000Y-89910000D01*
X96656000Y-91729000D02*
X96685631Y-91699369D01*
X96685631Y-91699369D02*
X96685631Y-90554369D01*
X97330000Y-89910000D02*
X97330000Y-88000000D01*
D40*
%TO.N,SCL*%
X118203314Y-92926686D02*
X118490000Y-92640000D01*
X108620000Y-94390000D02*
X108620000Y-94250000D01*
X108549000Y-94461000D02*
X108620000Y-94390000D01*
X105746000Y-93096000D02*
X107111000Y-94461000D01*
X105552496Y-93117000D02*
X105573496Y-93096000D01*
X114251000Y-91701000D02*
X115476686Y-92926686D01*
X99941786Y-92339000D02*
X100411000Y-92808214D01*
X99278214Y-92339000D02*
X99941786Y-92339000D01*
X100411000Y-92850000D02*
X100452786Y-92850000D01*
X98809000Y-92981000D02*
X98809000Y-92808214D01*
X111169000Y-91701000D02*
X114251000Y-91701000D01*
X98676000Y-93114000D02*
X98809000Y-92981000D01*
X100411000Y-92808214D02*
X100411000Y-92850000D01*
X98524000Y-93114000D02*
X98676000Y-93114000D01*
X98067462Y-93114000D02*
X98524000Y-93114000D01*
X97341752Y-93114000D02*
X98067462Y-93114000D01*
X96906000Y-93114000D02*
X97341752Y-93114000D01*
X100719786Y-93117000D02*
X105552496Y-93117000D01*
X96896000Y-93124000D02*
X96906000Y-93114000D01*
X96460248Y-93124000D02*
X96868966Y-93124000D01*
X108620000Y-94250000D02*
X111169000Y-91701000D01*
X96433214Y-93124000D02*
X96460248Y-93124000D01*
X100452786Y-92850000D02*
X100719786Y-93117000D01*
X96125090Y-93432124D02*
X96433214Y-93124000D01*
X107111000Y-94461000D02*
X108549000Y-94461000D01*
X95661338Y-93895876D02*
X96125090Y-93432124D01*
X105573496Y-93096000D02*
X105746000Y-93096000D01*
X95353214Y-94204000D02*
X95661338Y-93895876D01*
X98809000Y-92808214D02*
X99278214Y-92339000D01*
X95047876Y-94204000D02*
X95353214Y-94204000D01*
X96868966Y-93124000D02*
X96896000Y-93124000D01*
X94304000Y-94512124D02*
X94612124Y-94204000D01*
X94612124Y-94204000D02*
X94917462Y-94204000D01*
X93374248Y-95441876D02*
X94304000Y-94512124D01*
X93107821Y-95708303D02*
X93374248Y-95441876D01*
X94917462Y-94204000D02*
X95047876Y-94204000D01*
X115476686Y-92926686D02*
X118203314Y-92926686D01*
X93066124Y-95750000D02*
X93107821Y-95708303D01*
X92149697Y-95750000D02*
X93066124Y-95750000D01*
D38*
%TO.N,P3*%
X114920000Y-107084823D02*
X114734823Y-107270000D01*
X114920000Y-105891514D02*
X114920000Y-107084823D01*
X114946000Y-105865514D02*
X114920000Y-105891514D01*
X113270000Y-94550000D02*
X114920000Y-96200000D01*
X108980000Y-97000000D02*
X111430000Y-94550000D01*
X107070000Y-97000000D02*
X108980000Y-97000000D01*
X111430000Y-94550000D02*
X113270000Y-94550000D01*
X104227417Y-93866000D02*
X106473697Y-96112280D01*
X114734823Y-107270000D02*
X113920000Y-107270000D01*
X99309280Y-93866000D02*
X104227417Y-93866000D01*
X97123876Y-93640000D02*
X99083280Y-93640000D01*
X114946000Y-104674486D02*
X114946000Y-105865514D01*
X97113876Y-93650000D02*
X97123876Y-93640000D01*
X96651090Y-93650000D02*
X96678124Y-93650000D01*
X106473697Y-96403697D02*
X107070000Y-97000000D01*
X95879214Y-94421876D02*
X96651090Y-93650000D01*
X95571090Y-94730000D02*
X95879214Y-94421876D01*
X95135338Y-94730000D02*
X95571090Y-94730000D01*
X94830000Y-94730000D02*
X95135338Y-94730000D01*
X99083280Y-93640000D02*
X99309280Y-93866000D01*
X93325697Y-96234303D02*
X93592124Y-95967876D01*
X92636813Y-96926000D02*
X93325697Y-96237116D01*
X106473697Y-96112280D02*
X106473697Y-96403697D01*
X91662581Y-96926000D02*
X92636813Y-96926000D01*
X93325697Y-96237116D02*
X93325697Y-96234303D01*
X90973697Y-96237116D02*
X91662581Y-96926000D01*
X96678124Y-93650000D02*
X97113876Y-93650000D01*
X93592124Y-95967876D02*
X94830000Y-94730000D01*
X114920000Y-96200000D02*
X114920000Y-104648486D01*
X90050581Y-95314000D02*
X90973697Y-96237116D01*
X114920000Y-104648486D02*
X114946000Y-104674486D01*
%TO.N,CLK*%
X105592499Y-91057501D02*
X105747501Y-91057501D01*
X104990000Y-91660000D02*
X105592499Y-91057501D01*
X102172190Y-91660000D02*
X104990000Y-91660000D01*
%TO.N,+3.3VA*%
X102311000Y-91161000D02*
X104618697Y-91161000D01*
X104618697Y-91161000D02*
X107649697Y-88130000D01*
X101510000Y-90360000D02*
X102311000Y-91161000D01*
X98830000Y-89705000D02*
X97665000Y-90870000D01*
X98830000Y-88000000D02*
X98830000Y-89705000D01*
%TO.N,SDA*%
X94312662Y-93210000D02*
X95570000Y-91952662D01*
X92149697Y-93210000D02*
X94312662Y-93210000D01*
X95570000Y-90890000D02*
X95570000Y-91952662D01*
X96830000Y-89630000D02*
X95570000Y-90890000D01*
X96830000Y-88000000D02*
X96830000Y-89630000D01*
%TO.N,+3.3VA*%
X97830000Y-90487500D02*
X97447500Y-90870000D01*
X97830000Y-88000000D02*
X97830000Y-90487500D01*
%TO.N,Net-(U13-RST)*%
X99330000Y-88000000D02*
X99330000Y-90812500D01*
X99330000Y-90812500D02*
X99272500Y-90870000D01*
%TO.N,Net-(Q2-G)*%
X100790000Y-82780000D02*
X100920000Y-82650000D01*
%TO.N,LCD_DC*%
X99060000Y-83680000D02*
X101330000Y-85950000D01*
X101330000Y-85950000D02*
X101330000Y-88000000D01*
X95356190Y-84226000D02*
X95902190Y-83680000D01*
X95902190Y-83680000D02*
X99060000Y-83680000D01*
X90973697Y-85102884D02*
X91850581Y-84226000D01*
X91850581Y-84226000D02*
X95356190Y-84226000D01*
X90973697Y-89494000D02*
X90973697Y-85102884D01*
X92149697Y-90670000D02*
X90973697Y-89494000D01*
%TO.N,Net-(Q2-G)*%
X102191252Y-82650000D02*
X102495000Y-82953748D01*
X100920000Y-82650000D02*
X102191252Y-82650000D01*
%TO.N,+3.3VA*%
X101830000Y-85210000D02*
X101830000Y-88000000D01*
X100920000Y-84300000D02*
X101830000Y-85210000D01*
%TO.N,/LEDK*%
X102830000Y-86290000D02*
X102830000Y-88000000D01*
X103445000Y-84828748D02*
X103445000Y-85675000D01*
X103445000Y-85675000D02*
X102830000Y-86290000D01*
%TO.N,SCL*%
X90973697Y-92722884D02*
X91850581Y-91846000D01*
X93559000Y-91846000D02*
X96330000Y-89075000D01*
X96330000Y-89075000D02*
X96330000Y-88000000D01*
X90973697Y-94574000D02*
X90973697Y-92722884D01*
X91850581Y-91846000D02*
X93559000Y-91846000D01*
X92149697Y-95750000D02*
X90973697Y-94574000D01*
%TO.N,Net-(U13-LEDA)*%
X102330000Y-89530000D02*
X103160000Y-90360000D01*
X102330000Y-88000000D02*
X102330000Y-89530000D01*
%TO.N,+3.3VA*%
X101830000Y-90040000D02*
X101510000Y-90360000D01*
X101830000Y-88000000D02*
X101830000Y-90040000D01*
%TO.N,TP2_INT*%
X102210000Y-94380000D02*
X98300000Y-94380000D01*
X102580000Y-94750000D02*
X102210000Y-94380000D01*
X104109697Y-94750000D02*
X102580000Y-94750000D01*
X107649697Y-98290000D02*
X104109697Y-94750000D01*
%TO.N,SCL*%
X92149697Y-95750000D02*
X91840000Y-95750000D01*
%TO.N,LCD_DC*%
X92149697Y-90670000D02*
X92149697Y-90103303D01*
D41*
%TO.N,GND*%
X98237926Y-119550000D02*
X99107926Y-120420000D01*
D38*
X106330000Y-118890000D02*
X107150000Y-118070000D01*
D42*
X116787911Y-91783553D02*
X116787911Y-89287911D01*
D37*
X113043935Y-93661001D02*
X113012891Y-93629957D01*
X113012891Y-93629957D02*
X111047961Y-93629957D01*
D41*
X118650000Y-107410000D02*
X118405558Y-107165558D01*
X118405558Y-107165558D02*
X117133915Y-107165558D01*
X91088554Y-116643313D02*
X91967198Y-117521957D01*
D42*
X115396000Y-96002834D02*
X116127166Y-96002834D01*
X116787911Y-89287911D02*
X116360000Y-88860000D01*
X91348498Y-116607249D02*
X91280607Y-116539358D01*
X111810472Y-107567000D02*
X111810472Y-107086343D01*
X83621218Y-96351948D02*
X83364052Y-96351948D01*
D41*
X99107926Y-120420000D02*
X99190000Y-120420000D01*
D42*
X84700000Y-95710000D02*
X84400000Y-96010000D01*
X87295000Y-101765000D02*
X88860000Y-100200000D01*
D41*
X91967198Y-118307198D02*
X93210000Y-119550000D01*
D42*
X111380000Y-85530000D02*
X107709697Y-85530000D01*
D41*
X91967198Y-117521957D02*
X91967198Y-118307198D01*
D42*
X84171000Y-96339000D02*
X83634166Y-96339000D01*
X83364052Y-96351948D02*
X82540000Y-97176000D01*
D41*
X117133915Y-107165558D02*
X116447325Y-107852148D01*
D42*
X111810472Y-107086343D02*
X110217129Y-105493000D01*
X107709697Y-85530000D02*
X107649697Y-85590000D01*
D41*
X90260000Y-116600000D02*
X90303313Y-116643313D01*
D42*
X82540000Y-97176000D02*
X82540000Y-97380000D01*
X116447325Y-107852148D02*
X116447325Y-105502645D01*
X116127166Y-96002834D02*
X117240000Y-94890000D01*
X83634166Y-96339000D02*
X83621218Y-96351948D01*
D38*
X109535447Y-116310000D02*
X111430000Y-116310000D01*
D42*
X115396000Y-104451320D02*
X115396000Y-96002834D01*
D41*
X90260000Y-116600000D02*
X91219965Y-116600000D01*
X90303313Y-116643313D02*
X91088554Y-116643313D01*
D38*
X108795448Y-115570001D02*
X109535447Y-116310000D01*
D42*
X84700000Y-95810000D02*
X84171000Y-96339000D01*
D41*
X89090000Y-116600000D02*
X90260000Y-116600000D01*
D42*
X84700000Y-94890000D02*
X84700000Y-95710000D01*
D41*
X91219965Y-116600000D02*
X91280607Y-116539358D01*
X116447325Y-110197325D02*
X116500000Y-110250000D01*
D42*
X113054167Y-93661001D02*
X113043935Y-93661001D01*
X93319339Y-116607249D02*
X91348498Y-116607249D01*
X84700000Y-94890000D02*
X84700000Y-95810000D01*
X87000000Y-101765000D02*
X87295000Y-101765000D01*
D37*
X111047961Y-93629957D02*
X110729867Y-93311863D01*
D42*
X116447325Y-105502645D02*
X115396000Y-104451320D01*
X115396000Y-96002834D02*
X113054167Y-93661001D01*
X82540000Y-97380000D02*
X83281125Y-98121125D01*
D41*
X93210000Y-119550000D02*
X98237926Y-119550000D01*
X116447325Y-107852148D02*
X116447325Y-110197325D01*
D42*
X111810472Y-107567000D02*
X111810472Y-107261257D01*
X83281125Y-98121125D02*
X83281125Y-98793570D01*
D38*
X107150000Y-118070000D02*
X107150000Y-116520001D01*
%TO.N,+3V3*%
X114200000Y-93330000D02*
X114010845Y-93330000D01*
X88840000Y-110265000D02*
X90245000Y-110265000D01*
X90402741Y-105057259D02*
X90402741Y-104725545D01*
X114010845Y-93330000D02*
X113381845Y-92701000D01*
X84032761Y-98807927D02*
X84032761Y-99409367D01*
X90245000Y-110265000D02*
X90990000Y-109520000D01*
X85670000Y-97860000D02*
X85103417Y-98426583D01*
X113381845Y-92701000D02*
X111995000Y-92701000D01*
X85103417Y-98426583D02*
X85059481Y-98382647D01*
X85059481Y-98382647D02*
X84458041Y-98382647D01*
X84076697Y-99453303D02*
X84032761Y-99497239D01*
X92802462Y-102325824D02*
X92886205Y-102325824D01*
X97984176Y-102325824D02*
X98210000Y-102100000D01*
X93311485Y-101816801D02*
X93912925Y-101816801D01*
X112758255Y-105270000D02*
X109787114Y-102298859D01*
D40*
X109610000Y-102121745D02*
X109787114Y-102298859D01*
D38*
X94338205Y-102242081D02*
X94338205Y-102325824D01*
X92886205Y-102325824D02*
X92886205Y-102242081D01*
X84458041Y-98382647D02*
X84032761Y-98807927D01*
X84032761Y-99409367D02*
X84076697Y-99453303D01*
X86603395Y-105895395D02*
X85632347Y-104924347D01*
X93912925Y-101816801D02*
X94338205Y-102242081D01*
X85670000Y-96335439D02*
X85670000Y-97860000D01*
X85229000Y-101939000D02*
X85229000Y-103544306D01*
X98210000Y-102100000D02*
X104695000Y-102100000D01*
X84032761Y-99497239D02*
X84032761Y-100742761D01*
X94338205Y-102325824D02*
X97984176Y-102325824D01*
X85229000Y-103544306D02*
X85632347Y-103947653D01*
X85632347Y-104924347D02*
X85632347Y-103947653D01*
X113920000Y-105270000D02*
X112758255Y-105270000D01*
X85420416Y-96085855D02*
X85670000Y-96335439D01*
X89770000Y-105690000D02*
X90402741Y-105057259D01*
X89770000Y-105690000D02*
X89564605Y-105895395D01*
X89564605Y-105895395D02*
X86603395Y-105895395D01*
X96968221Y-102100000D02*
X96742397Y-102325824D01*
X84032761Y-100742761D02*
X85229000Y-101939000D01*
X114200000Y-93519155D02*
X114407531Y-93726686D01*
X114407531Y-93726686D02*
X117570000Y-93726686D01*
X92886205Y-102242081D02*
X93311485Y-101816801D01*
X114200000Y-93330000D02*
X114200000Y-93519155D01*
X90402741Y-104725545D02*
X92802462Y-102325824D01*
%TO.N,+1V8*%
X111759280Y-108454000D02*
X111753280Y-108460000D01*
X105063190Y-101331000D02*
X99691000Y-101331000D01*
X112366720Y-108460000D02*
X112360720Y-108454000D01*
X105930000Y-103330000D02*
X105930000Y-102197810D01*
X98140000Y-99780000D02*
X95520000Y-99780000D01*
X111060000Y-108460000D02*
X105930000Y-103330000D01*
X112360720Y-108454000D02*
X111759280Y-108454000D01*
X112761716Y-108460000D02*
X112366720Y-108460000D01*
X99691000Y-101331000D02*
X98140000Y-99780000D01*
X105930000Y-102197810D02*
X105063190Y-101331000D01*
X111753280Y-108460000D02*
X111060000Y-108460000D01*
X112767716Y-108466000D02*
X112761716Y-108460000D01*
X95520000Y-99780000D02*
X95500000Y-99760000D01*
D42*
%TO.N,RST*%
X92862600Y-110730000D02*
X92862600Y-113112600D01*
X92862600Y-113112600D02*
X95885000Y-116135000D01*
X95885000Y-116135000D02*
X97362400Y-116135000D01*
D38*
%TO.N,Net-(U3-DBYP)*%
X94194769Y-106325231D02*
X93601400Y-105731862D01*
X93601400Y-105731862D02*
X93601400Y-102553606D01*
X93601400Y-102553606D02*
X93612205Y-102542801D01*
%TO.N,I2SLRC*%
X107700000Y-102800000D02*
X105470000Y-100570000D01*
X105470000Y-100570000D02*
X100720000Y-100570000D01*
X107700000Y-103254044D02*
X107700000Y-102800000D01*
X100720000Y-100570000D02*
X96790000Y-96640000D01*
%TO.N,P1*%
X83056844Y-93675000D02*
X83375190Y-93675000D01*
X85326810Y-93401000D02*
X86557810Y-92170000D01*
X86557810Y-92170000D02*
X88460000Y-92170000D01*
X83684306Y-93401000D02*
X85326810Y-93401000D01*
X83636306Y-93449000D02*
X83684306Y-93401000D01*
X83375190Y-93675000D02*
X83601190Y-93449000D01*
X83601190Y-93449000D02*
X83636306Y-93449000D01*
%TO.N,P0*%
X85140000Y-92950000D02*
X88460000Y-89630000D01*
X82310000Y-94952192D02*
X82310000Y-93260000D01*
X82620000Y-92950000D02*
X85140000Y-92950000D01*
X82615000Y-95257192D02*
X82310000Y-94952192D01*
X82310000Y-93260000D02*
X82620000Y-92950000D01*
%TO.N,P3*%
X113520000Y-110525529D02*
X114097864Y-111103393D01*
X82352466Y-98185565D02*
X82060000Y-97893099D01*
X83424052Y-95875948D02*
X83724000Y-95576000D01*
X83022964Y-95875948D02*
X83424052Y-95875948D01*
X82706808Y-95983192D02*
X82915720Y-95983192D01*
X82352466Y-98300000D02*
X82352466Y-98185565D01*
X82915720Y-95983192D02*
X83022964Y-95875948D01*
X82060000Y-96630000D02*
X82706808Y-95983192D01*
X83788000Y-93900000D02*
X87242190Y-93900000D01*
X83720000Y-93968000D02*
X83788000Y-93900000D01*
X83720000Y-95694052D02*
X83720000Y-93968000D01*
X87242190Y-93900000D02*
X88656190Y-95314000D01*
X82060000Y-97893099D02*
X82060000Y-96630000D01*
X113920000Y-107270000D02*
X113520000Y-107670000D01*
X88656190Y-95314000D02*
X89880000Y-95314000D01*
X113520000Y-107670000D02*
X113520000Y-110525529D01*
X83724000Y-95576000D02*
X83724000Y-95314000D01*
%TO.N,P7*%
X88570884Y-97860884D02*
X87000000Y-96290000D01*
X88570884Y-98005000D02*
X88570884Y-97860884D01*
%TO.N,P5*%
X85680000Y-102970000D02*
X85680000Y-100890000D01*
X85680000Y-100890000D02*
X84890000Y-100100000D01*
X87000000Y-104290000D02*
X85680000Y-102970000D01*
%TO.N,P2*%
X114152480Y-89258520D02*
X112710000Y-90701000D01*
X114152480Y-88642772D02*
X114152480Y-89258520D01*
%TO.N,P6*%
X84758761Y-99108647D02*
X86706353Y-99108647D01*
X86706353Y-99108647D02*
X87000000Y-98815000D01*
%TO.N,P4*%
X88090000Y-114129261D02*
X87729902Y-114489359D01*
X88090000Y-113290000D02*
X88090000Y-114129261D01*
X88840000Y-112540000D02*
X88840000Y-112265000D01*
X88090000Y-113290000D02*
X88840000Y-112540000D01*
%TD*%
%TA.AperFunction,Conductor*%
%TO.N,GND*%
G36*
X86256915Y-91132539D02*
G01*
X86310706Y-91177130D01*
X86331849Y-91243723D01*
X86313634Y-91311177D01*
X86295560Y-91334112D01*
X85041492Y-92588181D01*
X84980169Y-92621666D01*
X84953811Y-92624500D01*
X82577147Y-92624500D01*
X82494359Y-92646682D01*
X82420138Y-92689535D01*
X82420135Y-92689537D01*
X82049537Y-93060135D01*
X82049535Y-93060138D01*
X82006680Y-93134363D01*
X81989208Y-93199575D01*
X81984500Y-93217144D01*
X81984500Y-93217147D01*
X81984500Y-94909339D01*
X81984500Y-94995045D01*
X82006682Y-95077831D01*
X82006683Y-95077832D01*
X82009794Y-95085344D01*
X82007574Y-95086263D01*
X82021170Y-95142278D01*
X82017085Y-95168483D01*
X82014501Y-95178127D01*
X82014500Y-95178135D01*
X82014500Y-95336249D01*
X82054218Y-95484477D01*
X82055423Y-95488975D01*
X82055426Y-95488982D01*
X82134475Y-95625901D01*
X82134479Y-95625906D01*
X82134480Y-95625908D01*
X82246284Y-95737712D01*
X82262086Y-95746835D01*
X82310302Y-95797402D01*
X82323526Y-95866009D01*
X82297558Y-95930874D01*
X82287768Y-95941904D01*
X81799537Y-96430135D01*
X81799535Y-96430138D01*
X81765501Y-96489087D01*
X81756682Y-96504361D01*
X81752416Y-96520284D01*
X81742628Y-96556809D01*
X81742628Y-96556812D01*
X81734500Y-96587147D01*
X81734500Y-97850246D01*
X81734500Y-97935952D01*
X81751782Y-98000451D01*
X81756683Y-98018741D01*
X81764785Y-98032774D01*
X81781258Y-98100675D01*
X81777173Y-98126866D01*
X81751966Y-98220941D01*
X81751966Y-98220943D01*
X81751966Y-98379057D01*
X81780793Y-98486639D01*
X81792889Y-98531783D01*
X81792892Y-98531790D01*
X81871941Y-98668709D01*
X81871945Y-98668714D01*
X81871946Y-98668716D01*
X81983750Y-98780520D01*
X81983752Y-98780521D01*
X81983756Y-98780524D01*
X82080912Y-98836616D01*
X82120682Y-98859577D01*
X82273409Y-98900500D01*
X82273411Y-98900500D01*
X82431521Y-98900500D01*
X82431523Y-98900500D01*
X82584250Y-98859577D01*
X82721182Y-98780520D01*
X82832986Y-98668716D01*
X82912043Y-98531784D01*
X82952966Y-98379057D01*
X82952966Y-98220943D01*
X82912043Y-98068216D01*
X82884684Y-98020828D01*
X82832990Y-97931290D01*
X82832984Y-97931282D01*
X82721183Y-97819481D01*
X82721175Y-97819475D01*
X82584256Y-97740426D01*
X82584251Y-97740423D01*
X82477406Y-97711794D01*
X82417745Y-97675428D01*
X82387217Y-97612581D01*
X82385500Y-97592019D01*
X82385500Y-96816188D01*
X82405185Y-96749149D01*
X82421819Y-96728507D01*
X82805315Y-96345011D01*
X82866638Y-96311526D01*
X82892996Y-96308692D01*
X82958571Y-96308692D01*
X82958573Y-96308692D01*
X83041359Y-96286510D01*
X83115582Y-96243657D01*
X83121472Y-96237767D01*
X83182795Y-96204282D01*
X83209153Y-96201448D01*
X83466903Y-96201448D01*
X83466905Y-96201448D01*
X83549691Y-96179266D01*
X83623914Y-96136413D01*
X83709203Y-96051123D01*
X83721137Y-96043896D01*
X83727969Y-96035719D01*
X83754486Y-96023701D01*
X83759804Y-96020481D01*
X83762769Y-96019552D01*
X83762853Y-96019552D01*
X83845638Y-95997370D01*
X83859971Y-95989094D01*
X83873033Y-95985002D01*
X83894821Y-95984608D01*
X83916000Y-95979469D01*
X83938629Y-95982653D01*
X83942631Y-95983599D01*
X84002155Y-95989999D01*
X84002172Y-95990000D01*
X84450000Y-95990000D01*
X84450000Y-95014000D01*
X84469685Y-94946961D01*
X84522489Y-94901206D01*
X84574000Y-94890000D01*
X84700000Y-94890000D01*
X84700000Y-94764000D01*
X84719685Y-94696961D01*
X84772489Y-94651206D01*
X84824000Y-94640000D01*
X85850000Y-94640000D01*
X85850000Y-94349500D01*
X85869685Y-94282461D01*
X85922489Y-94236706D01*
X85974000Y-94225500D01*
X87056001Y-94225500D01*
X87123040Y-94245185D01*
X87143682Y-94261819D01*
X88456328Y-95574465D01*
X88530551Y-95617318D01*
X88613337Y-95639500D01*
X89864392Y-95639500D01*
X89931431Y-95659185D01*
X89952073Y-95675819D01*
X90713231Y-96436977D01*
X90713232Y-96436978D01*
X91462719Y-97186465D01*
X91530191Y-97225420D01*
X91578407Y-97275987D01*
X91591630Y-97344594D01*
X91565662Y-97409459D01*
X91537083Y-97435909D01*
X91480038Y-97474025D01*
X91333721Y-97620342D01*
X91218755Y-97792403D01*
X91139567Y-97983579D01*
X91139565Y-97983587D01*
X91099197Y-98186530D01*
X91099197Y-98393469D01*
X91139565Y-98596412D01*
X91139567Y-98596420D01*
X91212270Y-98771941D01*
X91218756Y-98787598D01*
X91267853Y-98861077D01*
X91333721Y-98959657D01*
X91480039Y-99105975D01*
X91480042Y-99105977D01*
X91652099Y-99220941D01*
X91843277Y-99300130D01*
X92046227Y-99340499D01*
X92046231Y-99340500D01*
X92046232Y-99340500D01*
X92253163Y-99340500D01*
X92253164Y-99340499D01*
X92456117Y-99300130D01*
X92647295Y-99220941D01*
X92819352Y-99105977D01*
X92965674Y-98959655D01*
X93080638Y-98787598D01*
X93159827Y-98596420D01*
X93200197Y-98393465D01*
X93200197Y-98186535D01*
X93159827Y-97983580D01*
X93080638Y-97792402D01*
X92965674Y-97620345D01*
X92965672Y-97620342D01*
X92819355Y-97474025D01*
X92819351Y-97474022D01*
X92762311Y-97435909D01*
X92717506Y-97382297D01*
X92708799Y-97312972D01*
X92738953Y-97249944D01*
X92769203Y-97225420D01*
X92836675Y-97186465D01*
X93586162Y-96436978D01*
X93586166Y-96436969D01*
X93590483Y-96431344D01*
X93601175Y-96419149D01*
X93737822Y-96282502D01*
X93799142Y-96249021D01*
X93868834Y-96254005D01*
X93924767Y-96295877D01*
X93949184Y-96361341D01*
X93949500Y-96370187D01*
X93949500Y-98322035D01*
X93929815Y-98389074D01*
X93913181Y-98409716D01*
X88312013Y-104010883D01*
X88312009Y-104010889D01*
X88252701Y-104113612D01*
X88252700Y-104113617D01*
X88222000Y-104228191D01*
X88222000Y-104720464D01*
X88217584Y-104736495D01*
X88218085Y-104751377D01*
X88207497Y-104773116D01*
X88204511Y-104783957D01*
X88196849Y-104796809D01*
X88191980Y-104801679D01*
X88131476Y-104906475D01*
X88131011Y-104907256D01*
X88105991Y-104930454D01*
X88081320Y-104953978D01*
X88080436Y-104954148D01*
X88079776Y-104954761D01*
X88046197Y-104960747D01*
X88012713Y-104967202D01*
X88011876Y-104966867D01*
X88010991Y-104967025D01*
X87979539Y-104953921D01*
X87947848Y-104941234D01*
X87947325Y-104940499D01*
X87946495Y-104940154D01*
X87927109Y-104912110D01*
X87907320Y-104884320D01*
X87907133Y-104883213D01*
X87906765Y-104882680D01*
X87906695Y-104880604D01*
X87900500Y-104843763D01*
X87900500Y-103620249D01*
X87900499Y-103620247D01*
X87888868Y-103561770D01*
X87888867Y-103561769D01*
X87844552Y-103495447D01*
X87778230Y-103451132D01*
X87778229Y-103451131D01*
X87719752Y-103439500D01*
X87719748Y-103439500D01*
X86661189Y-103439500D01*
X86594150Y-103419815D01*
X86573508Y-103403181D01*
X86297008Y-103126681D01*
X86263523Y-103065358D01*
X86268507Y-102995666D01*
X86310379Y-102939733D01*
X86375843Y-102915316D01*
X86384689Y-102915000D01*
X86750000Y-102915000D01*
X87250000Y-102915000D01*
X87747828Y-102915000D01*
X87747844Y-102914999D01*
X87807372Y-102908598D01*
X87807379Y-102908596D01*
X87942086Y-102858354D01*
X87942093Y-102858350D01*
X88057187Y-102772190D01*
X88057190Y-102772187D01*
X88143350Y-102657093D01*
X88143354Y-102657086D01*
X88193596Y-102522379D01*
X88193598Y-102522372D01*
X88199999Y-102462844D01*
X88200000Y-102462827D01*
X88200000Y-102015000D01*
X87250000Y-102015000D01*
X87250000Y-102915000D01*
X86750000Y-102915000D01*
X86750000Y-101515000D01*
X87250000Y-101515000D01*
X88200000Y-101515000D01*
X88200000Y-101067172D01*
X88199999Y-101067155D01*
X88193598Y-101007627D01*
X88193596Y-101007620D01*
X88143354Y-100872913D01*
X88143350Y-100872906D01*
X88057190Y-100757812D01*
X88057187Y-100757809D01*
X87942093Y-100671649D01*
X87942086Y-100671645D01*
X87807379Y-100621403D01*
X87807372Y-100621401D01*
X87747844Y-100615000D01*
X87250000Y-100615000D01*
X87250000Y-101515000D01*
X86750000Y-101515000D01*
X86750000Y-100615000D01*
X86252155Y-100615000D01*
X86192627Y-100621401D01*
X86192620Y-100621403D01*
X86057906Y-100671648D01*
X86051455Y-100675171D01*
X86025640Y-100680786D01*
X86000879Y-100690023D01*
X85992029Y-100688098D01*
X85983182Y-100690023D01*
X85958423Y-100680788D01*
X85932606Y-100675173D01*
X85921918Y-100667172D01*
X85917718Y-100665606D01*
X85904351Y-100654023D01*
X85889937Y-100639610D01*
X85879862Y-100629535D01*
X85879859Y-100629533D01*
X85526629Y-100276303D01*
X85493144Y-100214980D01*
X85491993Y-100187185D01*
X85490500Y-100187185D01*
X85490500Y-100020945D01*
X85490500Y-100020943D01*
X85449577Y-99868216D01*
X85421739Y-99819998D01*
X85370524Y-99731290D01*
X85370518Y-99731282D01*
X85285064Y-99645828D01*
X85251579Y-99584505D01*
X85256563Y-99514813D01*
X85298435Y-99458880D01*
X85363899Y-99434463D01*
X85372745Y-99434147D01*
X85987670Y-99434147D01*
X86054709Y-99453832D01*
X86100464Y-99506636D01*
X86109287Y-99533954D01*
X86111132Y-99543230D01*
X86155447Y-99609552D01*
X86221769Y-99653867D01*
X86221770Y-99653868D01*
X86280247Y-99665499D01*
X86280250Y-99665500D01*
X86280252Y-99665500D01*
X87719750Y-99665500D01*
X87719751Y-99665499D01*
X87734568Y-99662552D01*
X87778229Y-99653868D01*
X87778229Y-99653867D01*
X87778231Y-99653867D01*
X87844552Y-99609552D01*
X87888867Y-99543231D01*
X87888867Y-99543229D01*
X87888868Y-99543229D01*
X87900499Y-99484752D01*
X87900500Y-99484750D01*
X87900500Y-98483214D01*
X87920185Y-98416175D01*
X87972989Y-98370420D01*
X88042147Y-98360476D01*
X88105703Y-98389501D01*
X88112181Y-98395533D01*
X88202168Y-98485520D01*
X88202170Y-98485521D01*
X88202174Y-98485524D01*
X88296018Y-98539704D01*
X88339100Y-98564577D01*
X88491827Y-98605500D01*
X88491829Y-98605500D01*
X88649939Y-98605500D01*
X88649941Y-98605500D01*
X88802668Y-98564577D01*
X88939600Y-98485520D01*
X89051404Y-98373716D01*
X89130461Y-98236784D01*
X89171384Y-98084057D01*
X89171384Y-97925943D01*
X89130461Y-97773216D01*
X89111528Y-97740423D01*
X89051408Y-97636290D01*
X89051402Y-97636282D01*
X88939601Y-97524481D01*
X88939593Y-97524475D01*
X88802674Y-97445426D01*
X88802670Y-97445424D01*
X88802668Y-97445423D01*
X88649941Y-97404500D01*
X88649940Y-97404500D01*
X88626189Y-97404500D01*
X88559150Y-97384815D01*
X88538508Y-97368181D01*
X87936819Y-96766492D01*
X87903334Y-96705169D01*
X87900500Y-96678811D01*
X87900500Y-95620249D01*
X87900499Y-95620247D01*
X87888868Y-95561770D01*
X87888867Y-95561769D01*
X87844552Y-95495447D01*
X87778230Y-95451132D01*
X87778229Y-95451131D01*
X87719752Y-95439500D01*
X87719748Y-95439500D01*
X86280252Y-95439500D01*
X86280247Y-95439500D01*
X86221770Y-95451131D01*
X86221769Y-95451132D01*
X86155447Y-95495447D01*
X86111132Y-95561769D01*
X86111131Y-95561770D01*
X86099500Y-95620247D01*
X86098903Y-95626312D01*
X86096637Y-95626088D01*
X86093261Y-95637586D01*
X86091682Y-95659675D01*
X86083609Y-95670458D01*
X86079815Y-95683380D01*
X86063081Y-95697879D01*
X86049810Y-95715608D01*
X86037189Y-95720315D01*
X86027011Y-95729135D01*
X86005093Y-95732286D01*
X85984346Y-95740025D01*
X85971185Y-95737162D01*
X85957853Y-95739079D01*
X85937709Y-95729879D01*
X85916073Y-95725173D01*
X85898347Y-95711904D01*
X85894297Y-95710054D01*
X85887819Y-95704022D01*
X85879488Y-95695691D01*
X85846003Y-95634368D01*
X85843880Y-95594754D01*
X85849999Y-95537844D01*
X85850000Y-95537827D01*
X85850000Y-95140000D01*
X84950000Y-95140000D01*
X84950000Y-95666412D01*
X84933388Y-95728411D01*
X84860839Y-95854070D01*
X84860839Y-95854071D01*
X84819916Y-96006798D01*
X84819916Y-96164912D01*
X84858978Y-96310691D01*
X84860839Y-96317638D01*
X84860842Y-96317645D01*
X84939891Y-96454564D01*
X84939895Y-96454569D01*
X84939896Y-96454571D01*
X85051700Y-96566375D01*
X85051702Y-96566376D01*
X85051706Y-96566379D01*
X85176073Y-96638181D01*
X85188632Y-96645432D01*
X85252594Y-96662570D01*
X85312253Y-96698933D01*
X85342783Y-96761780D01*
X85344500Y-96782344D01*
X85344500Y-97673811D01*
X85324815Y-97740850D01*
X85308181Y-97761492D01*
X85048845Y-98020828D01*
X84987522Y-98054313D01*
X84961164Y-98057147D01*
X84508503Y-98057147D01*
X84500897Y-98057146D01*
X84500894Y-98057146D01*
X84464749Y-98057146D01*
X84397710Y-98037460D01*
X84351956Y-97984655D01*
X84346541Y-97946983D01*
X84342014Y-97915499D01*
X84344407Y-97910260D01*
X84349388Y-97899350D01*
X84371039Y-97851943D01*
X84377071Y-97845465D01*
X84429847Y-97792688D01*
X84429854Y-97792681D01*
X84430622Y-97791718D01*
X84525932Y-97640033D01*
X84526466Y-97638924D01*
X84585633Y-97469834D01*
X84585907Y-97468633D01*
X84605965Y-97290616D01*
X84605965Y-97289384D01*
X84585907Y-97111367D01*
X84585633Y-97110166D01*
X84576670Y-97084552D01*
X84526468Y-96941081D01*
X84526466Y-96941076D01*
X84525930Y-96939963D01*
X84493599Y-96888509D01*
X84430622Y-96788282D01*
X84429854Y-96787319D01*
X84429850Y-96787315D01*
X84429847Y-96787311D01*
X84303188Y-96660652D01*
X84303183Y-96660648D01*
X84303181Y-96660646D01*
X84302218Y-96659878D01*
X84219599Y-96607965D01*
X84150536Y-96564569D01*
X84149423Y-96564033D01*
X84149418Y-96564031D01*
X83980342Y-96504869D01*
X83980335Y-96504867D01*
X83980334Y-96504867D01*
X83979817Y-96504749D01*
X83979134Y-96504593D01*
X83979124Y-96504591D01*
X83801120Y-96484535D01*
X83801116Y-96484535D01*
X83799884Y-96484535D01*
X83799880Y-96484535D01*
X83621875Y-96504591D01*
X83621865Y-96504593D01*
X83620657Y-96504869D01*
X83451581Y-96564031D01*
X83451576Y-96564033D01*
X83450463Y-96564569D01*
X83298782Y-96659878D01*
X83297811Y-96660652D01*
X83171152Y-96787311D01*
X83170378Y-96788282D01*
X83075069Y-96939963D01*
X83074533Y-96941076D01*
X83074531Y-96941081D01*
X83015369Y-97110157D01*
X83015093Y-97111365D01*
X83015091Y-97111375D01*
X82995035Y-97289379D01*
X82995035Y-97290620D01*
X83015091Y-97468624D01*
X83015093Y-97468634D01*
X83015369Y-97469842D01*
X83074531Y-97638918D01*
X83074533Y-97638923D01*
X83075069Y-97640036D01*
X83119147Y-97710185D01*
X83170378Y-97791718D01*
X83171146Y-97792681D01*
X83171152Y-97792688D01*
X83297811Y-97919347D01*
X83297815Y-97919350D01*
X83297819Y-97919354D01*
X83298782Y-97920122D01*
X83378037Y-97969921D01*
X83450463Y-98015430D01*
X83451576Y-98015966D01*
X83451581Y-98015968D01*
X83620657Y-98075130D01*
X83620666Y-98075133D01*
X83621867Y-98075407D01*
X83621873Y-98075407D01*
X83621875Y-98075408D01*
X83638259Y-98077254D01*
X83799879Y-98095464D01*
X83799880Y-98095465D01*
X83799884Y-98095465D01*
X83801120Y-98095465D01*
X83801120Y-98095464D01*
X83979133Y-98075407D01*
X83980334Y-98075133D01*
X83980345Y-98075128D01*
X83981693Y-98074822D01*
X83982341Y-98074861D01*
X83982564Y-98074824D01*
X83982572Y-98074875D01*
X84051432Y-98079097D01*
X84107789Y-98120397D01*
X84132872Y-98185609D01*
X84118716Y-98254030D01*
X84096965Y-98283395D01*
X83772298Y-98608062D01*
X83772294Y-98608068D01*
X83729442Y-98682289D01*
X83729441Y-98682290D01*
X83715618Y-98733884D01*
X83715618Y-98733885D01*
X83707261Y-98765073D01*
X83707261Y-99454386D01*
X83707261Y-100699908D01*
X83707261Y-100785614D01*
X83713415Y-100808582D01*
X83729443Y-100868401D01*
X83750869Y-100905511D01*
X83772296Y-100942623D01*
X83772298Y-100942625D01*
X84867181Y-102037508D01*
X84900666Y-102098831D01*
X84903500Y-102125189D01*
X84903500Y-103501453D01*
X84903500Y-103587159D01*
X84914591Y-103628552D01*
X84925682Y-103669946D01*
X84947108Y-103707056D01*
X84968535Y-103744168D01*
X84968537Y-103744170D01*
X84995717Y-103771350D01*
X85029202Y-103832673D01*
X85030364Y-103860469D01*
X85031847Y-103860469D01*
X85031847Y-103868596D01*
X85031847Y-104026710D01*
X85063860Y-104146182D01*
X85072770Y-104179436D01*
X85072773Y-104179443D01*
X85151822Y-104316362D01*
X85151828Y-104316370D01*
X85213777Y-104378319D01*
X85247262Y-104439642D01*
X85242278Y-104509334D01*
X85200406Y-104565267D01*
X85134942Y-104589684D01*
X85126096Y-104590000D01*
X84950000Y-104590000D01*
X84950000Y-106790000D01*
X85397828Y-106790000D01*
X85397844Y-106789999D01*
X85457372Y-106783598D01*
X85457379Y-106783596D01*
X85592086Y-106733354D01*
X85592093Y-106733350D01*
X85707187Y-106647190D01*
X85707190Y-106647187D01*
X85793350Y-106532093D01*
X85793354Y-106532086D01*
X85843596Y-106397379D01*
X85843598Y-106397372D01*
X85849999Y-106337844D01*
X85850000Y-106337827D01*
X85850000Y-105901689D01*
X85869685Y-105834650D01*
X85922489Y-105788895D01*
X85991647Y-105778951D01*
X86055203Y-105807976D01*
X86061681Y-105814008D01*
X86403533Y-106155860D01*
X86477756Y-106198713D01*
X86560542Y-106220895D01*
X89455312Y-106220895D01*
X89517311Y-106237507D01*
X89538216Y-106249577D01*
X89690943Y-106290500D01*
X89690945Y-106290500D01*
X89849055Y-106290500D01*
X89849057Y-106290500D01*
X90001784Y-106249577D01*
X90138716Y-106170520D01*
X90250520Y-106058716D01*
X90329577Y-105921784D01*
X90370500Y-105769057D01*
X90370500Y-105610943D01*
X90370500Y-105602815D01*
X90373680Y-105602815D01*
X90382112Y-105548579D01*
X90406623Y-105513702D01*
X90663206Y-105257121D01*
X90706059Y-105182898D01*
X90728241Y-105100112D01*
X90728241Y-105014406D01*
X90728241Y-104911733D01*
X90747926Y-104844694D01*
X90764555Y-104824057D01*
X92851521Y-102737090D01*
X92912842Y-102703607D01*
X92982534Y-102708591D01*
X93038467Y-102750463D01*
X93048286Y-102767707D01*
X93048564Y-102767547D01*
X93131680Y-102911510D01*
X93131686Y-102911518D01*
X93239581Y-103019413D01*
X93273066Y-103080736D01*
X93275900Y-103107094D01*
X93275900Y-105689009D01*
X93275900Y-105774715D01*
X93284812Y-105807976D01*
X93298082Y-105857502D01*
X93319508Y-105894612D01*
X93340935Y-105931724D01*
X93340937Y-105931726D01*
X93558139Y-106148928D01*
X93591624Y-106210251D01*
X93592786Y-106238047D01*
X93594269Y-106238047D01*
X93594269Y-106246174D01*
X93594269Y-106404288D01*
X93628513Y-106532086D01*
X93635192Y-106557014D01*
X93635195Y-106557021D01*
X93714244Y-106693940D01*
X93714248Y-106693945D01*
X93714249Y-106693947D01*
X93826053Y-106805751D01*
X93826055Y-106805752D01*
X93826059Y-106805755D01*
X93932487Y-106867200D01*
X93962985Y-106884808D01*
X94115712Y-106925731D01*
X94115714Y-106925731D01*
X94273824Y-106925731D01*
X94273826Y-106925731D01*
X94426553Y-106884808D01*
X94563485Y-106805751D01*
X94675289Y-106693947D01*
X94754346Y-106557015D01*
X94795269Y-106404288D01*
X94795269Y-106246174D01*
X94754346Y-106093447D01*
X94734290Y-106058709D01*
X94675293Y-105956521D01*
X94675287Y-105956513D01*
X94563486Y-105844712D01*
X94563478Y-105844706D01*
X94426559Y-105765657D01*
X94426555Y-105765655D01*
X94426553Y-105765654D01*
X94273826Y-105724731D01*
X94115712Y-105724731D01*
X94107585Y-105724731D01*
X94107585Y-105722992D01*
X94084307Y-105717928D01*
X94053273Y-105713082D01*
X94049352Y-105710324D01*
X94046720Y-105709752D01*
X94018466Y-105688601D01*
X93963219Y-105633354D01*
X93929734Y-105572031D01*
X93926900Y-105545673D01*
X93926900Y-103125922D01*
X93946585Y-103058883D01*
X93975416Y-103027545D01*
X93980916Y-103023323D01*
X93980921Y-103023321D01*
X94092725Y-102911517D01*
X94171782Y-102774585D01*
X94180183Y-102743228D01*
X94216548Y-102683570D01*
X94279395Y-102653041D01*
X94299958Y-102651324D01*
X96167567Y-102651324D01*
X96234606Y-102671009D01*
X96255076Y-102689846D01*
X96256130Y-102688793D01*
X96261877Y-102694540D01*
X96373681Y-102806344D01*
X96373683Y-102806345D01*
X96373687Y-102806348D01*
X96510606Y-102885397D01*
X96510613Y-102885401D01*
X96663340Y-102926324D01*
X96663342Y-102926324D01*
X96821452Y-102926324D01*
X96821454Y-102926324D01*
X96974181Y-102885401D01*
X97111113Y-102806344D01*
X97222917Y-102694540D01*
X97222917Y-102694539D01*
X97228664Y-102688793D01*
X97230909Y-102691038D01*
X97275252Y-102658645D01*
X97317227Y-102651324D01*
X98027027Y-102651324D01*
X98027029Y-102651324D01*
X98109815Y-102629142D01*
X98184038Y-102586289D01*
X98308508Y-102461819D01*
X98369831Y-102428334D01*
X98396189Y-102425500D01*
X104120170Y-102425500D01*
X104187209Y-102445185D01*
X104207679Y-102464022D01*
X104208733Y-102462969D01*
X104214480Y-102468716D01*
X104326284Y-102580520D01*
X104326286Y-102580521D01*
X104326290Y-102580524D01*
X104460587Y-102658059D01*
X104463216Y-102659577D01*
X104615943Y-102700500D01*
X104615945Y-102700500D01*
X104774055Y-102700500D01*
X104774057Y-102700500D01*
X104926784Y-102659577D01*
X105063716Y-102580520D01*
X105175520Y-102468716D01*
X105254577Y-102331784D01*
X105272756Y-102263935D01*
X105275915Y-102258752D01*
X105276349Y-102252696D01*
X105293888Y-102229266D01*
X105309121Y-102204276D01*
X105314582Y-102201622D01*
X105318221Y-102196763D01*
X105345640Y-102186535D01*
X105371968Y-102173747D01*
X105377996Y-102174467D01*
X105383685Y-102172346D01*
X105412285Y-102178567D01*
X105441343Y-102182042D01*
X105447541Y-102186237D01*
X105451958Y-102187198D01*
X105480212Y-102208349D01*
X105568181Y-102296318D01*
X105601666Y-102357641D01*
X105604500Y-102383999D01*
X105604500Y-103372852D01*
X105626682Y-103455640D01*
X105634882Y-103469842D01*
X105669535Y-103529862D01*
X110799533Y-108659859D01*
X110799535Y-108659862D01*
X110860138Y-108720465D01*
X110898500Y-108742613D01*
X110934360Y-108763317D01*
X110934361Y-108763317D01*
X110934362Y-108763318D01*
X111017148Y-108785501D01*
X111017150Y-108785501D01*
X111110449Y-108785501D01*
X111110465Y-108785500D01*
X111796130Y-108785500D01*
X111796133Y-108785500D01*
X111802758Y-108783725D01*
X111834849Y-108779500D01*
X112183726Y-108779500D01*
X112250765Y-108799185D01*
X112280069Y-108829938D01*
X112282248Y-108828267D01*
X112287194Y-108834713D01*
X112287196Y-108834716D01*
X112399000Y-108946520D01*
X112399002Y-108946521D01*
X112399006Y-108946524D01*
X112496619Y-109002880D01*
X112535932Y-109025577D01*
X112688659Y-109066500D01*
X112688661Y-109066500D01*
X112846771Y-109066500D01*
X112846773Y-109066500D01*
X112999500Y-109025577D01*
X113008499Y-109020381D01*
X113076395Y-109003907D01*
X113142423Y-109026757D01*
X113185616Y-109081676D01*
X113194500Y-109127767D01*
X113194500Y-110482676D01*
X113194500Y-110568382D01*
X113202273Y-110597391D01*
X113216682Y-110651169D01*
X113227720Y-110670287D01*
X113259535Y-110725391D01*
X113259537Y-110725393D01*
X113575545Y-111041401D01*
X113609030Y-111102724D01*
X113604046Y-111172416D01*
X113595251Y-111191082D01*
X113494229Y-111366057D01*
X113467668Y-111432765D01*
X113459271Y-111554457D01*
X113490843Y-111672285D01*
X113490845Y-111672287D01*
X113558957Y-111773470D01*
X113558959Y-111773472D01*
X113558961Y-111773473D01*
X113558962Y-111773475D01*
X113615312Y-111817961D01*
X113820709Y-111936547D01*
X114428828Y-112287645D01*
X114428831Y-112287646D01*
X114428836Y-112287649D01*
X114495537Y-112314207D01*
X114617230Y-112322604D01*
X114617237Y-112322601D01*
X114619392Y-112322394D01*
X114622324Y-112322955D01*
X114627480Y-112323311D01*
X114627437Y-112323933D01*
X114688016Y-112335527D01*
X114738646Y-112383677D01*
X114755207Y-112451556D01*
X114755046Y-112454353D01*
X114750265Y-112523635D01*
X114750265Y-112523637D01*
X114783133Y-112646301D01*
X114854041Y-112751636D01*
X114854044Y-112751638D01*
X114854046Y-112751641D01*
X114912711Y-112797954D01*
X115126325Y-112921284D01*
X115702709Y-113254060D01*
X115702712Y-113254061D01*
X115702717Y-113254064D01*
X115772158Y-113281713D01*
X115779513Y-113282220D01*
X115845039Y-113306469D01*
X115887053Y-113362295D01*
X115892216Y-113431974D01*
X115866130Y-113485443D01*
X115413455Y-114027095D01*
X115409977Y-114031081D01*
X114807326Y-114692663D01*
X114803680Y-114696498D01*
X114173361Y-115331766D01*
X114169556Y-115335441D01*
X113512699Y-115943259D01*
X113508740Y-115946768D01*
X112826582Y-116525990D01*
X112822477Y-116529328D01*
X112210697Y-117005412D01*
X112196544Y-117014938D01*
X112115822Y-117061544D01*
X112115822Y-117061545D01*
X111908045Y-117181507D01*
X111908044Y-117181507D01*
X110890465Y-117769005D01*
X110890465Y-117769006D01*
X110895464Y-117777664D01*
X110911935Y-117845565D01*
X110889083Y-117911591D01*
X110855612Y-117943657D01*
X110628016Y-118091463D01*
X110623519Y-118094250D01*
X110051056Y-118432209D01*
X109983319Y-118449339D01*
X109917073Y-118427128D01*
X109873352Y-118372629D01*
X109864312Y-118333967D01*
X109857073Y-118229059D01*
X109829788Y-118160532D01*
X109829785Y-118160527D01*
X109829784Y-118160524D01*
X109731529Y-117990342D01*
X109666151Y-117877103D01*
X109653521Y-117839892D01*
X109652827Y-117840078D01*
X109650724Y-117832228D01*
X109609801Y-117679501D01*
X109593985Y-117652106D01*
X109530748Y-117542575D01*
X109530742Y-117542567D01*
X109418941Y-117430766D01*
X109418933Y-117430760D01*
X109282014Y-117351711D01*
X109282010Y-117351709D01*
X109282008Y-117351708D01*
X109129281Y-117310785D01*
X108971167Y-117310785D01*
X108818440Y-117351708D01*
X108818433Y-117351711D01*
X108681514Y-117430760D01*
X108681506Y-117430766D01*
X108569705Y-117542567D01*
X108569699Y-117542575D01*
X108490650Y-117679494D01*
X108490647Y-117679501D01*
X108449724Y-117832228D01*
X108449724Y-117990342D01*
X108476820Y-118091463D01*
X108490647Y-118143068D01*
X108490650Y-118143075D01*
X108569699Y-118279994D01*
X108569705Y-118280002D01*
X108687255Y-118397552D01*
X108686748Y-118398058D01*
X108712655Y-118427603D01*
X108876290Y-118711027D01*
X108876294Y-118711032D01*
X108921998Y-118768925D01*
X108967426Y-118799506D01*
X108976868Y-118805862D01*
X109021488Y-118859629D01*
X109029956Y-118928983D01*
X108999584Y-118991906D01*
X108961330Y-119020491D01*
X108256133Y-119359370D01*
X108254868Y-119359970D01*
X108243150Y-119365439D01*
X108239599Y-119367028D01*
X108124925Y-119416229D01*
X108055555Y-119424572D01*
X108043941Y-119422050D01*
X108032579Y-119419005D01*
X107840060Y-119530156D01*
X107840058Y-119530157D01*
X107790485Y-119558777D01*
X107777379Y-119565343D01*
X107437451Y-119711190D01*
X107409257Y-119722857D01*
X107050135Y-119859110D01*
X106980472Y-119864487D01*
X106918962Y-119831347D01*
X106898761Y-119805174D01*
X106890000Y-119790000D01*
X106889998Y-119790000D01*
X106780880Y-119852999D01*
X106712980Y-119869472D01*
X106646953Y-119846619D01*
X106611494Y-119807612D01*
X105498494Y-117879840D01*
X105498493Y-117879840D01*
X105303668Y-117992323D01*
X105303650Y-117992334D01*
X105219955Y-118052770D01*
X105219947Y-118052776D01*
X105103392Y-118183749D01*
X105020181Y-118338072D01*
X104974805Y-118507420D01*
X104969706Y-118682673D01*
X105005160Y-118854374D01*
X105047425Y-118948563D01*
X105047434Y-118948582D01*
X105744139Y-120155310D01*
X105760612Y-120223210D01*
X105737759Y-120289237D01*
X105682838Y-120332428D01*
X105670697Y-120336573D01*
X104874474Y-120563198D01*
X104872344Y-120563784D01*
X104844724Y-120571116D01*
X104841736Y-120571870D01*
X103992023Y-120774974D01*
X103989673Y-120775511D01*
X103972868Y-120779184D01*
X103970048Y-120779766D01*
X103097811Y-120949284D01*
X103095972Y-120949627D01*
X103046073Y-120958546D01*
X103044758Y-120958402D01*
X103041497Y-120959276D01*
X102390717Y-121050652D01*
X102387981Y-121051006D01*
X102161847Y-121077643D01*
X102160263Y-121077819D01*
X101564739Y-121140219D01*
X101561489Y-121140516D01*
X101353980Y-121156752D01*
X101352894Y-121156832D01*
X100722940Y-121200558D01*
X100719180Y-121200762D01*
X100662512Y-121202969D01*
X100661927Y-121202990D01*
X99916323Y-121228505D01*
X99911971Y-121228578D01*
X99116798Y-121227867D01*
X99112447Y-121227787D01*
X98317782Y-121199176D01*
X98313437Y-121198943D01*
X97520289Y-121142465D01*
X97515954Y-121142080D01*
X97501280Y-121140516D01*
X97235487Y-121112186D01*
X96725235Y-121057800D01*
X96720916Y-121057262D01*
X95934433Y-120945399D01*
X95934396Y-120945395D01*
X95931542Y-120944989D01*
X95931541Y-120944992D01*
X95931047Y-120944913D01*
X95931028Y-120945026D01*
X95883392Y-120939814D01*
X95881011Y-120938822D01*
X95873412Y-120938309D01*
X95188699Y-120806326D01*
X95185893Y-120805751D01*
X95006134Y-120766774D01*
X95004138Y-120766324D01*
X94352536Y-120613738D01*
X94349358Y-120612949D01*
X94192431Y-120571802D01*
X94190851Y-120571377D01*
X93522255Y-120386604D01*
X93518720Y-120385570D01*
X93408466Y-120351545D01*
X93407294Y-120351177D01*
X92700149Y-120125255D01*
X92696271Y-120123945D01*
X92686548Y-120120481D01*
X92685779Y-120120205D01*
X91913212Y-119839213D01*
X91908631Y-119837443D01*
X91139853Y-119522831D01*
X91135346Y-119520881D01*
X90379649Y-119176086D01*
X90375223Y-119173960D01*
X89633752Y-118799506D01*
X89629413Y-118797206D01*
X88911035Y-118397958D01*
X88910325Y-118397560D01*
X88901131Y-118392371D01*
X88897597Y-118390299D01*
X88838107Y-118354082D01*
X88716412Y-118279994D01*
X88263523Y-118004277D01*
X88262478Y-118003633D01*
X88164508Y-117942652D01*
X88161410Y-117940660D01*
X87583667Y-117556779D01*
X87582310Y-117555864D01*
X87482478Y-117487615D01*
X87448397Y-117464315D01*
X87445768Y-117462468D01*
X87126897Y-117231888D01*
X86903394Y-117070270D01*
X86901746Y-117069057D01*
X86770832Y-116971061D01*
X86728959Y-116915128D01*
X86723973Y-116845437D01*
X86757457Y-116784113D01*
X86818779Y-116750626D01*
X86854412Y-116750813D01*
X86854586Y-116748294D01*
X86864193Y-116748956D01*
X86864194Y-116748957D01*
X86990881Y-116757699D01*
X87113542Y-116724832D01*
X87158486Y-116694577D01*
X87218880Y-116653922D01*
X87218881Y-116653920D01*
X87218885Y-116653918D01*
X87265198Y-116595253D01*
X87721308Y-115805247D01*
X87748957Y-115735806D01*
X87757699Y-115609119D01*
X87750711Y-115583039D01*
X87752372Y-115513192D01*
X87791534Y-115455329D01*
X87855761Y-115427823D01*
X87879016Y-115427240D01*
X87881507Y-115427412D01*
X87999333Y-115395840D01*
X88082691Y-115339726D01*
X88100519Y-115327725D01*
X88100521Y-115327723D01*
X88100520Y-115327723D01*
X88100524Y-115327721D01*
X88145010Y-115271371D01*
X88203024Y-115170889D01*
X88691759Y-115170889D01*
X88703951Y-115216388D01*
X88725415Y-115296492D01*
X88796237Y-115405547D01*
X88871872Y-115466795D01*
X89526730Y-115844877D01*
X89853578Y-116033583D01*
X89863136Y-116039101D01*
X89953996Y-116073980D01*
X90077384Y-116080446D01*
X90083851Y-116080786D01*
X90083851Y-116080785D01*
X90083852Y-116080786D01*
X90089345Y-116079314D01*
X90159194Y-116080973D01*
X90217059Y-116120132D01*
X90244566Y-116184359D01*
X90232983Y-116253262D01*
X90228831Y-116261087D01*
X90126917Y-116437607D01*
X90126906Y-116437628D01*
X90098681Y-116498691D01*
X90098679Y-116498696D01*
X90063196Y-116656241D01*
X90066447Y-116817695D01*
X90066448Y-116817700D01*
X90108244Y-116973686D01*
X90158744Y-117065371D01*
X90173846Y-117133589D01*
X90149668Y-117199143D01*
X90147463Y-117202023D01*
X90145314Y-117204744D01*
X90145311Y-117204750D01*
X89689207Y-117994744D01*
X89689203Y-117994754D01*
X89661554Y-118064193D01*
X89652813Y-118190878D01*
X89652813Y-118190880D01*
X89685681Y-118313544D01*
X89756589Y-118418879D01*
X89756592Y-118418881D01*
X89756594Y-118418884D01*
X89815259Y-118465197D01*
X89963116Y-118550562D01*
X90605257Y-118921303D01*
X90605260Y-118921304D01*
X90605265Y-118921307D01*
X90674706Y-118948956D01*
X90801393Y-118957698D01*
X90924054Y-118924831D01*
X91003511Y-118871343D01*
X91029392Y-118853921D01*
X91029393Y-118853919D01*
X91029397Y-118853917D01*
X91075710Y-118795252D01*
X91531820Y-118005246D01*
X91559469Y-117935805D01*
X91566237Y-117837718D01*
X91590488Y-117772197D01*
X91640199Y-117733882D01*
X91640066Y-117733640D01*
X91641638Y-117732773D01*
X91643656Y-117731219D01*
X91646644Y-117730016D01*
X91788088Y-117652107D01*
X91788090Y-117652106D01*
X91812227Y-117629839D01*
X105931506Y-117629839D01*
X105931506Y-117629840D01*
X106981505Y-119448493D01*
X106981506Y-119448493D01*
X107782578Y-118985994D01*
X107782578Y-118985993D01*
X107082596Y-117773589D01*
X107082592Y-117773581D01*
X107073491Y-117760978D01*
X107050203Y-117695103D01*
X107066227Y-117627096D01*
X107116474Y-117578547D01*
X107176518Y-117564410D01*
X107229297Y-117565472D01*
X107389210Y-117529456D01*
X107432564Y-117509416D01*
X107058493Y-116861506D01*
X107058492Y-116861506D01*
X106538878Y-117161505D01*
X106593613Y-117256307D01*
X106610086Y-117324208D01*
X106587234Y-117390235D01*
X106532313Y-117433425D01*
X106482620Y-117442256D01*
X106392247Y-117439626D01*
X106220545Y-117475080D01*
X106126345Y-117517350D01*
X106126333Y-117517356D01*
X105931506Y-117629839D01*
X91812227Y-117629839D01*
X91892030Y-117556219D01*
X91892030Y-117556218D01*
X91892031Y-117556218D01*
X91906786Y-117542605D01*
X91945556Y-117487630D01*
X91945565Y-117487615D01*
X92064932Y-117280864D01*
X92064932Y-117280863D01*
X91262993Y-116817863D01*
X91214777Y-116767296D01*
X91201554Y-116698689D01*
X91217606Y-116648475D01*
X91280606Y-116539357D01*
X91277768Y-116537719D01*
X91277768Y-116537718D01*
X91171487Y-116476357D01*
X91144305Y-116447850D01*
X91622112Y-116447850D01*
X91622112Y-116447851D01*
X92314932Y-116847850D01*
X92314933Y-116847850D01*
X92434296Y-116641108D01*
X92434307Y-116641087D01*
X92462532Y-116580024D01*
X92462534Y-116580019D01*
X92498017Y-116422474D01*
X92494766Y-116261020D01*
X92494765Y-116261015D01*
X92452969Y-116105029D01*
X92375053Y-115963571D01*
X92265557Y-115844880D01*
X92265554Y-115844877D01*
X92210570Y-115806102D01*
X92047112Y-115711730D01*
X92047111Y-115711730D01*
X91622112Y-116447850D01*
X91144305Y-116447850D01*
X91123271Y-116425790D01*
X91110048Y-116357183D01*
X91126100Y-116306970D01*
X91614099Y-115461731D01*
X91614099Y-115461730D01*
X91450648Y-115367361D01*
X91450629Y-115367352D01*
X91389575Y-115339129D01*
X91232024Y-115303646D01*
X91070570Y-115306897D01*
X91070563Y-115306898D01*
X90948046Y-115339726D01*
X90878196Y-115338063D01*
X90820334Y-115298900D01*
X90792831Y-115234671D01*
X90804418Y-115165769D01*
X90808557Y-115157968D01*
X90902063Y-114996012D01*
X90936942Y-114905152D01*
X90943748Y-114775296D01*
X90910093Y-114649694D01*
X90839271Y-114540639D01*
X90763636Y-114479391D01*
X90572483Y-114369029D01*
X89772373Y-113907085D01*
X89725938Y-113889260D01*
X89681512Y-113872206D01*
X89675044Y-113871866D01*
X89551656Y-113865399D01*
X89426054Y-113899055D01*
X89316999Y-113969877D01*
X89255754Y-114045506D01*
X89255748Y-114045514D01*
X88733445Y-114950172D01*
X88698566Y-115041034D01*
X88691759Y-115170889D01*
X88203024Y-115170889D01*
X88276411Y-115043779D01*
X88614694Y-114457854D01*
X88614694Y-114457853D01*
X88614698Y-114457847D01*
X88641256Y-114391146D01*
X88649653Y-114269453D01*
X88618082Y-114151626D01*
X88549963Y-114050436D01*
X88549962Y-114050435D01*
X88493617Y-114005953D01*
X88493610Y-114005949D01*
X88477495Y-113996644D01*
X88469214Y-113987958D01*
X88458297Y-113982973D01*
X88445549Y-113963137D01*
X88429282Y-113946075D01*
X88426067Y-113932821D01*
X88420523Y-113924195D01*
X88415500Y-113889260D01*
X88415500Y-113864830D01*
X88435185Y-113797791D01*
X88454022Y-113777320D01*
X88452969Y-113776267D01*
X88458716Y-113770520D01*
X88570520Y-113658716D01*
X88649577Y-113521784D01*
X88690500Y-113369057D01*
X88690500Y-113210943D01*
X88690500Y-113202815D01*
X88692235Y-113202815D01*
X88697293Y-113179574D01*
X88702107Y-113148591D01*
X88704901Y-113144615D01*
X88705483Y-113141942D01*
X88726631Y-113113694D01*
X88738516Y-113101811D01*
X88799842Y-113068332D01*
X88826190Y-113065500D01*
X89344270Y-113065500D01*
X89374699Y-113062646D01*
X89374701Y-113062646D01*
X89438790Y-113040219D01*
X89502882Y-113017793D01*
X89612150Y-112937150D01*
X89692793Y-112827882D01*
X89719473Y-112751636D01*
X89737646Y-112699701D01*
X89737646Y-112699699D01*
X89740500Y-112669269D01*
X89740500Y-111860730D01*
X89737646Y-111830300D01*
X89737646Y-111830298D01*
X89692793Y-111702119D01*
X89692792Y-111702117D01*
X89612150Y-111592850D01*
X89502882Y-111512207D01*
X89502880Y-111512206D01*
X89374700Y-111467353D01*
X89344270Y-111464500D01*
X89344266Y-111464500D01*
X88335734Y-111464500D01*
X88335730Y-111464500D01*
X88305300Y-111467353D01*
X88305298Y-111467353D01*
X88177119Y-111512206D01*
X88177117Y-111512207D01*
X88067850Y-111592850D01*
X87987207Y-111702117D01*
X87987206Y-111702119D01*
X87942353Y-111830298D01*
X87942353Y-111830300D01*
X87939500Y-111860730D01*
X87939500Y-112613900D01*
X87919815Y-112680939D01*
X87867011Y-112726694D01*
X87862952Y-112728461D01*
X87858213Y-112730423D01*
X87721290Y-112809475D01*
X87721282Y-112809481D01*
X87609481Y-112921282D01*
X87609475Y-112921290D01*
X87530426Y-113058209D01*
X87530423Y-113058216D01*
X87489500Y-113210943D01*
X87489500Y-113369057D01*
X87510687Y-113448131D01*
X87509025Y-113517979D01*
X87469863Y-113575842D01*
X87460159Y-113583087D01*
X87359282Y-113650994D01*
X87314791Y-113707351D01*
X86845109Y-114520863D01*
X86845105Y-114520873D01*
X86841455Y-114530041D01*
X86818548Y-114587572D01*
X86811162Y-114694621D01*
X86810151Y-114709267D01*
X86810361Y-114711437D01*
X86809798Y-114714373D01*
X86809444Y-114719515D01*
X86808822Y-114719472D01*
X86797222Y-114780060D01*
X86749069Y-114830686D01*
X86681189Y-114847242D01*
X86678402Y-114847081D01*
X86609121Y-114842301D01*
X86609118Y-114842301D01*
X86486454Y-114875169D01*
X86381119Y-114946077D01*
X86381117Y-114946079D01*
X86337790Y-115000962D01*
X86322909Y-115011515D01*
X86311509Y-115025756D01*
X86295002Y-115031308D01*
X86280799Y-115041382D01*
X86262577Y-115042215D01*
X86245286Y-115048032D01*
X86228398Y-115043779D01*
X86211003Y-115044575D01*
X86195222Y-115035424D01*
X86177531Y-115030969D01*
X86165623Y-115018260D01*
X86150560Y-115009526D01*
X86142231Y-114993296D01*
X86129758Y-114979984D01*
X86126611Y-114962856D01*
X86118661Y-114947363D01*
X86120429Y-114929207D01*
X86117133Y-114911265D01*
X86125357Y-114878603D01*
X86125434Y-114877823D01*
X86125752Y-114877039D01*
X86126520Y-114875168D01*
X86174346Y-114758654D01*
X86175818Y-114755220D01*
X86191687Y-114719735D01*
X86196854Y-114709487D01*
X86295302Y-114534929D01*
X86298212Y-114530041D01*
X86327706Y-114482999D01*
X86333094Y-114475100D01*
X86467888Y-114293115D01*
X86472667Y-114287070D01*
X86589150Y-114148745D01*
X86796368Y-113846187D01*
X86972662Y-113524626D01*
X87116305Y-113187213D01*
X87225890Y-112837252D01*
X87300342Y-112478173D01*
X87308012Y-112405688D01*
X87308888Y-112401023D01*
X87310254Y-112384502D01*
X87338934Y-112113493D01*
X87339458Y-112031676D01*
X87340278Y-112021783D01*
X87339703Y-111993447D01*
X87341286Y-111746784D01*
X87332876Y-111656229D01*
X87332575Y-111641325D01*
X87328232Y-111606214D01*
X87307377Y-111381639D01*
X87288272Y-111283159D01*
X87285862Y-111263667D01*
X87277067Y-111225402D01*
X87237537Y-111021634D01*
X87206031Y-110916299D01*
X87200631Y-110892798D01*
X87187400Y-110854012D01*
X87132451Y-110670297D01*
X87086912Y-110559401D01*
X87077783Y-110532636D01*
X87060586Y-110495292D01*
X87000380Y-110348677D01*
X86993150Y-110331071D01*
X86993148Y-110331068D01*
X86955832Y-110260882D01*
X86932012Y-110216080D01*
X86918616Y-110186986D01*
X86898222Y-110152525D01*
X86896885Y-110150010D01*
X86874328Y-110107584D01*
X86820995Y-110007272D01*
X86744621Y-109892631D01*
X86741135Y-109887084D01*
X86725539Y-109860730D01*
X87939500Y-109860730D01*
X87939500Y-110669269D01*
X87942353Y-110699699D01*
X87942353Y-110699701D01*
X87987206Y-110827880D01*
X87987207Y-110827882D01*
X88067850Y-110937150D01*
X88177118Y-111017793D01*
X88218380Y-111032231D01*
X88305299Y-111062646D01*
X88335730Y-111065500D01*
X88335734Y-111065500D01*
X89344270Y-111065500D01*
X89374699Y-111062646D01*
X89374701Y-111062646D01*
X89438790Y-111040219D01*
X89502882Y-111017793D01*
X89612150Y-110937150D01*
X89692793Y-110827882D01*
X89715219Y-110763790D01*
X89737646Y-110699701D01*
X89739256Y-110692330D01*
X89741379Y-110692793D01*
X89758049Y-110650943D01*
X92262100Y-110650943D01*
X92262100Y-110809057D01*
X92296423Y-110937150D01*
X92303023Y-110961783D01*
X92303026Y-110961790D01*
X92382075Y-111098709D01*
X92382081Y-111098717D01*
X92475781Y-111192417D01*
X92509266Y-111253740D01*
X92512100Y-111280098D01*
X92512100Y-113158744D01*
X92526087Y-113210944D01*
X92535985Y-113247886D01*
X92582127Y-113327808D01*
X92582129Y-113327811D01*
X92582130Y-113327812D01*
X95669788Y-116415470D01*
X95669790Y-116415471D01*
X95669794Y-116415474D01*
X95737074Y-116454318D01*
X95737075Y-116454318D01*
X95749712Y-116461614D01*
X95838856Y-116485500D01*
X96812302Y-116485500D01*
X96879341Y-116505185D01*
X96899983Y-116521819D01*
X96993684Y-116615520D01*
X96993686Y-116615521D01*
X96993690Y-116615524D01*
X97064215Y-116656241D01*
X97130616Y-116694577D01*
X97283343Y-116735500D01*
X97283345Y-116735500D01*
X97441455Y-116735500D01*
X97441457Y-116735500D01*
X97594184Y-116694577D01*
X97731116Y-116615520D01*
X97842920Y-116503716D01*
X97906037Y-116394393D01*
X106159432Y-116394393D01*
X106195448Y-116554309D01*
X106224096Y-116616287D01*
X106224107Y-116616308D01*
X106288877Y-116728493D01*
X106288878Y-116728493D01*
X106491507Y-116611506D01*
X107491505Y-116611506D01*
X107491505Y-116611507D01*
X107865575Y-117259416D01*
X107865577Y-117259416D01*
X107904605Y-117231894D01*
X107904611Y-117231888D01*
X108015755Y-117111411D01*
X108015756Y-117111409D01*
X108094841Y-116967829D01*
X108137267Y-116809494D01*
X108137268Y-116809493D01*
X108140567Y-116645608D01*
X108113566Y-116525719D01*
X108118040Y-116455993D01*
X108159500Y-116399754D01*
X108224784Y-116374858D01*
X108293164Y-116389209D01*
X108318615Y-116407333D01*
X108408941Y-116490661D01*
X108552523Y-116569746D01*
X108710858Y-116612172D01*
X108710859Y-116612173D01*
X108874745Y-116615473D01*
X109034658Y-116579456D01*
X109078012Y-116559416D01*
X108703941Y-115911506D01*
X108703940Y-115911506D01*
X108184326Y-116211505D01*
X108179817Y-116228335D01*
X108143452Y-116287995D01*
X108080605Y-116318524D01*
X108027949Y-116316016D01*
X108011120Y-116311507D01*
X107491505Y-116611506D01*
X106491507Y-116611506D01*
X106647162Y-116521639D01*
X106808493Y-116428494D01*
X106808493Y-116428493D01*
X106434422Y-115780583D01*
X106395391Y-115808110D01*
X106284242Y-115928593D01*
X106205158Y-116072172D01*
X106162732Y-116230507D01*
X106162731Y-116230508D01*
X106159432Y-116394393D01*
X97906037Y-116394393D01*
X97921977Y-116366784D01*
X97962900Y-116214057D01*
X97962900Y-116055943D01*
X97921977Y-115903216D01*
X97920509Y-115900674D01*
X97842924Y-115766290D01*
X97842918Y-115766282D01*
X97731117Y-115654481D01*
X97731112Y-115654477D01*
X97727881Y-115652612D01*
X97727880Y-115652611D01*
X97727879Y-115652611D01*
X97594186Y-115575424D01*
X97594185Y-115575423D01*
X97594184Y-115575423D01*
X97441457Y-115534500D01*
X97283343Y-115534500D01*
X97130616Y-115575423D01*
X97130609Y-115575426D01*
X96993690Y-115654475D01*
X96993682Y-115654481D01*
X96899983Y-115748181D01*
X96838660Y-115781666D01*
X96812302Y-115784500D01*
X96081544Y-115784500D01*
X96014505Y-115764815D01*
X95993863Y-115748181D01*
X95776265Y-115530583D01*
X106867435Y-115530583D01*
X106867435Y-115530584D01*
X107241505Y-116178494D01*
X107241506Y-116178494D01*
X107761120Y-115878495D01*
X107765629Y-115861667D01*
X107801993Y-115802006D01*
X107864839Y-115771476D01*
X107917498Y-115773984D01*
X107934326Y-115778493D01*
X108136955Y-115661506D01*
X109136953Y-115661506D01*
X109136953Y-115661507D01*
X109511023Y-116309416D01*
X109511025Y-116309416D01*
X109550053Y-116281894D01*
X109550059Y-116281888D01*
X109661203Y-116161411D01*
X109661206Y-116161407D01*
X109704499Y-116082808D01*
X109754084Y-116033583D01*
X109822411Y-116018981D01*
X109887786Y-116043637D01*
X109926244Y-116091865D01*
X109940464Y-116123555D01*
X109940478Y-116123582D01*
X110640464Y-117335993D01*
X110640465Y-117335993D01*
X111441537Y-116873494D01*
X111441537Y-116873493D01*
X110391538Y-115054841D01*
X110391537Y-115054841D01*
X110196712Y-115167324D01*
X110196694Y-115167335D01*
X110112999Y-115227771D01*
X110112991Y-115227777D01*
X109996433Y-115358753D01*
X109936984Y-115469008D01*
X109887841Y-115518674D01*
X109819647Y-115533886D01*
X109754055Y-115509815D01*
X109720453Y-115472157D01*
X109656569Y-115361507D01*
X109656568Y-115361507D01*
X109136953Y-115661506D01*
X108136955Y-115661506D01*
X108292610Y-115571639D01*
X108453941Y-115478494D01*
X108453941Y-115478493D01*
X108079870Y-114830583D01*
X108040839Y-114858110D01*
X107929690Y-114978593D01*
X107850606Y-115122172D01*
X107808180Y-115280507D01*
X107808179Y-115280508D01*
X107804880Y-115444393D01*
X107831881Y-115564282D01*
X107827407Y-115634009D01*
X107785946Y-115690247D01*
X107720662Y-115715143D01*
X107652283Y-115700791D01*
X107626832Y-115682668D01*
X107536506Y-115599340D01*
X107392924Y-115520255D01*
X107234589Y-115477829D01*
X107234588Y-115477828D01*
X107070703Y-115474529D01*
X106910786Y-115510546D01*
X106867435Y-115530583D01*
X95776265Y-115530583D01*
X94826265Y-114580583D01*
X108512883Y-114580583D01*
X108512883Y-114580584D01*
X108886953Y-115228494D01*
X108886954Y-115228494D01*
X109406568Y-114928495D01*
X109406568Y-114928494D01*
X109381088Y-114884360D01*
X109341795Y-114816303D01*
X109333711Y-114804840D01*
X110824550Y-114804840D01*
X110824550Y-114804841D01*
X111874549Y-116623494D01*
X111874550Y-116623494D01*
X112675622Y-116160995D01*
X112675622Y-116160994D01*
X111975640Y-114948590D01*
X111975638Y-114948585D01*
X111915186Y-114864867D01*
X111784215Y-114748314D01*
X111629889Y-114665102D01*
X111460543Y-114619726D01*
X111285291Y-114614627D01*
X111113589Y-114650081D01*
X111019389Y-114692351D01*
X111019377Y-114692357D01*
X110824550Y-114804840D01*
X109333711Y-114804840D01*
X109302433Y-114760485D01*
X109302434Y-114760485D01*
X109181954Y-114649340D01*
X109038372Y-114570255D01*
X108880037Y-114527829D01*
X108880036Y-114527828D01*
X108716151Y-114524529D01*
X108556234Y-114560546D01*
X108512883Y-114580583D01*
X94826265Y-114580583D01*
X93249419Y-113003737D01*
X93215934Y-112942414D01*
X93213100Y-112916056D01*
X93213100Y-111280098D01*
X93232785Y-111213059D01*
X93249419Y-111192417D01*
X93269420Y-111172416D01*
X93343120Y-111098716D01*
X93422177Y-110961784D01*
X93463100Y-110809057D01*
X93463100Y-110650943D01*
X93422177Y-110498216D01*
X93420477Y-110495272D01*
X93343124Y-110361290D01*
X93343118Y-110361282D01*
X93231317Y-110249481D01*
X93231309Y-110249475D01*
X93094390Y-110170426D01*
X93094386Y-110170424D01*
X93094384Y-110170423D01*
X92941657Y-110129500D01*
X92783543Y-110129500D01*
X92630816Y-110170423D01*
X92630809Y-110170426D01*
X92493890Y-110249475D01*
X92493882Y-110249481D01*
X92382081Y-110361282D01*
X92382075Y-110361290D01*
X92303026Y-110498209D01*
X92303023Y-110498216D01*
X92262100Y-110650943D01*
X89758049Y-110650943D01*
X89763198Y-110638018D01*
X89820041Y-110597391D01*
X89860802Y-110590500D01*
X90287851Y-110590500D01*
X90287853Y-110590500D01*
X90370639Y-110568318D01*
X90444862Y-110525465D01*
X90813698Y-110156627D01*
X90875019Y-110123144D01*
X90902815Y-110121991D01*
X90902815Y-110120500D01*
X91069055Y-110120500D01*
X91069057Y-110120500D01*
X91221784Y-110079577D01*
X91358716Y-110000520D01*
X91470520Y-109888716D01*
X91549577Y-109751784D01*
X91590500Y-109599057D01*
X91590500Y-109440943D01*
X91549577Y-109288216D01*
X91538840Y-109269618D01*
X91470524Y-109151290D01*
X91470518Y-109151282D01*
X91358717Y-109039481D01*
X91358709Y-109039475D01*
X91221790Y-108960426D01*
X91221786Y-108960424D01*
X91221784Y-108960423D01*
X91069057Y-108919500D01*
X90910943Y-108919500D01*
X90758216Y-108960423D01*
X90758209Y-108960426D01*
X90621290Y-109039475D01*
X90621282Y-109039481D01*
X90509481Y-109151282D01*
X90509475Y-109151290D01*
X90430426Y-109288209D01*
X90430423Y-109288216D01*
X90389500Y-109440943D01*
X90389500Y-109607184D01*
X90386329Y-109607184D01*
X90377860Y-109661474D01*
X90353370Y-109696301D01*
X90146490Y-109903182D01*
X90119559Y-109917888D01*
X90093746Y-109934477D01*
X90087546Y-109935368D01*
X90085170Y-109936666D01*
X90058811Y-109939500D01*
X89860802Y-109939500D01*
X89793763Y-109919815D01*
X89748008Y-109867011D01*
X89740122Y-109837480D01*
X89739256Y-109837670D01*
X89737646Y-109830298D01*
X89692793Y-109702119D01*
X89692792Y-109702117D01*
X89688500Y-109696301D01*
X89612150Y-109592850D01*
X89502882Y-109512207D01*
X89502880Y-109512206D01*
X89374700Y-109467353D01*
X89344270Y-109464500D01*
X89344266Y-109464500D01*
X88335734Y-109464500D01*
X88335730Y-109464500D01*
X88305300Y-109467353D01*
X88305298Y-109467353D01*
X88177119Y-109512206D01*
X88177117Y-109512207D01*
X88067850Y-109592850D01*
X87987207Y-109702117D01*
X87987206Y-109702119D01*
X87942353Y-109830298D01*
X87942353Y-109830300D01*
X87939500Y-109860730D01*
X86725539Y-109860730D01*
X86724811Y-109859500D01*
X86703991Y-109831372D01*
X86700496Y-109826398D01*
X86617675Y-109702080D01*
X86521058Y-109584226D01*
X86498416Y-109553635D01*
X86474583Y-109527535D01*
X86385182Y-109418482D01*
X86385175Y-109418475D01*
X86385166Y-109418465D01*
X86270831Y-109304201D01*
X86270831Y-109304202D01*
X86268822Y-109302194D01*
X86241821Y-109272624D01*
X86217891Y-109251296D01*
X86215387Y-109248794D01*
X86215386Y-109248793D01*
X86125792Y-109159255D01*
X85990451Y-109048445D01*
X85988444Y-109046802D01*
X85957738Y-109019435D01*
X85934799Y-109002880D01*
X85931898Y-109000505D01*
X85842049Y-108926941D01*
X85684383Y-108822046D01*
X85682397Y-108820724D01*
X85649167Y-108796743D01*
X85628268Y-108784713D01*
X85624915Y-108782482D01*
X85536739Y-108723818D01*
X85530423Y-108720465D01*
X85355282Y-108627488D01*
X85353397Y-108626487D01*
X85319368Y-108606899D01*
X85301427Y-108598898D01*
X85297669Y-108596903D01*
X85297659Y-108596898D01*
X85249845Y-108571516D01*
X85212825Y-108551863D01*
X85005883Y-108467035D01*
X85005883Y-108467034D01*
X85004122Y-108466312D01*
X84971825Y-108451909D01*
X84957661Y-108447267D01*
X84953505Y-108445564D01*
X84953496Y-108445561D01*
X84873509Y-108412773D01*
X84638724Y-108342708D01*
X84637116Y-108342228D01*
X84610209Y-108333411D01*
X84600506Y-108331304D01*
X84595979Y-108329953D01*
X84595978Y-108329952D01*
X84595976Y-108329952D01*
X84522108Y-108307908D01*
X84522109Y-108307908D01*
X84255980Y-108256453D01*
X84254524Y-108256171D01*
X84238340Y-108252657D01*
X84233633Y-108252132D01*
X84228775Y-108251193D01*
X84228761Y-108251191D01*
X84162053Y-108238294D01*
X83796887Y-108204613D01*
X83430184Y-108207197D01*
X83430176Y-108207197D01*
X83065536Y-108246017D01*
X83065524Y-108246018D01*
X82706491Y-108320697D01*
X82356603Y-108430500D01*
X82191543Y-108500962D01*
X82184343Y-108503773D01*
X81968756Y-108580305D01*
X81959585Y-108583166D01*
X81908575Y-108596934D01*
X81902973Y-108598307D01*
X81704912Y-108641996D01*
X81693553Y-108643953D01*
X81658364Y-108648343D01*
X81654541Y-108648760D01*
X81437338Y-108669041D01*
X81421978Y-108669519D01*
X81177315Y-108661954D01*
X81162014Y-108660528D01*
X80920174Y-108622761D01*
X80905167Y-108619454D01*
X80669842Y-108552059D01*
X80655359Y-108546920D01*
X80454702Y-108461388D01*
X80451191Y-108459827D01*
X80418993Y-108444907D01*
X80408768Y-108439578D01*
X80393165Y-108430500D01*
X80362697Y-108412773D01*
X80233466Y-108337583D01*
X80228551Y-108334569D01*
X80184170Y-108305906D01*
X80176307Y-108300384D01*
X80019197Y-108180713D01*
X79978663Y-108126746D01*
X79710585Y-107432646D01*
X79709606Y-107430026D01*
X79683378Y-107357231D01*
X79646933Y-107256080D01*
X79646230Y-107254070D01*
X79516674Y-106872879D01*
X79513739Y-106803072D01*
X79549011Y-106742759D01*
X79611291Y-106711090D01*
X79680807Y-106718119D01*
X79703320Y-106730846D01*
X79707913Y-106733354D01*
X79842620Y-106783596D01*
X79842627Y-106783598D01*
X79902155Y-106789999D01*
X79902172Y-106790000D01*
X80350000Y-106790000D01*
X80850000Y-106790000D01*
X81297828Y-106790000D01*
X81297844Y-106789999D01*
X81357372Y-106783598D01*
X81357379Y-106783596D01*
X81492086Y-106733354D01*
X81492093Y-106733350D01*
X81607187Y-106647190D01*
X81607190Y-106647187D01*
X81693350Y-106532093D01*
X81693354Y-106532086D01*
X81743596Y-106397379D01*
X81743598Y-106397372D01*
X81749999Y-106337844D01*
X83550000Y-106337844D01*
X83556401Y-106397372D01*
X83556403Y-106397379D01*
X83606645Y-106532086D01*
X83606649Y-106532093D01*
X83692809Y-106647187D01*
X83692812Y-106647190D01*
X83807906Y-106733350D01*
X83807913Y-106733354D01*
X83942620Y-106783596D01*
X83942627Y-106783598D01*
X84002155Y-106789999D01*
X84002172Y-106790000D01*
X84450000Y-106790000D01*
X84450000Y-105940000D01*
X83550000Y-105940000D01*
X83550000Y-106337844D01*
X81749999Y-106337844D01*
X81750000Y-106337827D01*
X81750000Y-105940000D01*
X80850000Y-105940000D01*
X80850000Y-106790000D01*
X80350000Y-106790000D01*
X80350000Y-105940000D01*
X79450000Y-105940000D01*
X79424957Y-105965043D01*
X79421005Y-105967200D01*
X79418578Y-105970987D01*
X79390623Y-105983789D01*
X79363633Y-105998527D01*
X79359145Y-105998206D01*
X79355054Y-106000080D01*
X79324608Y-105995735D01*
X79293941Y-105993542D01*
X79290338Y-105990845D01*
X79285885Y-105990210D01*
X79262627Y-105970100D01*
X79238008Y-105951671D01*
X79235481Y-105946629D01*
X79233032Y-105944512D01*
X79218339Y-105912431D01*
X79173291Y-105759614D01*
X79172389Y-105756390D01*
X79131965Y-105604046D01*
X79131603Y-105602650D01*
X78993853Y-105053370D01*
X78991041Y-105042155D01*
X79450000Y-105042155D01*
X79450000Y-105440000D01*
X80350000Y-105440000D01*
X80850000Y-105440000D01*
X81750000Y-105440000D01*
X81750000Y-105042172D01*
X81749999Y-105042155D01*
X83550000Y-105042155D01*
X83550000Y-105440000D01*
X84450000Y-105440000D01*
X84450000Y-104590000D01*
X84002155Y-104590000D01*
X83942627Y-104596401D01*
X83942620Y-104596403D01*
X83807913Y-104646645D01*
X83807906Y-104646649D01*
X83692812Y-104732809D01*
X83692809Y-104732812D01*
X83606649Y-104847906D01*
X83606645Y-104847913D01*
X83556403Y-104982620D01*
X83556401Y-104982627D01*
X83550000Y-105042155D01*
X81749999Y-105042155D01*
X81743598Y-104982627D01*
X81743596Y-104982620D01*
X81693354Y-104847913D01*
X81693350Y-104847906D01*
X81607190Y-104732812D01*
X81607187Y-104732809D01*
X81492093Y-104646649D01*
X81492086Y-104646645D01*
X81357379Y-104596403D01*
X81357372Y-104596401D01*
X81297844Y-104590000D01*
X80850000Y-104590000D01*
X80850000Y-105440000D01*
X80350000Y-105440000D01*
X80350000Y-104590000D01*
X79902155Y-104590000D01*
X79842627Y-104596401D01*
X79842620Y-104596403D01*
X79707913Y-104646645D01*
X79707906Y-104646649D01*
X79592812Y-104732809D01*
X79592809Y-104732812D01*
X79506649Y-104847906D01*
X79506645Y-104847913D01*
X79456403Y-104982620D01*
X79456401Y-104982627D01*
X79450000Y-105042155D01*
X78991041Y-105042155D01*
X78956843Y-104905790D01*
X78956003Y-104902220D01*
X78928510Y-104777007D01*
X78928216Y-104775628D01*
X78775992Y-104042638D01*
X78775250Y-104038759D01*
X78761464Y-103959827D01*
X78761371Y-103959280D01*
X78650642Y-103289379D01*
X82995035Y-103289379D01*
X82995035Y-103290620D01*
X83015091Y-103468624D01*
X83015093Y-103468634D01*
X83015369Y-103469842D01*
X83074531Y-103638918D01*
X83074533Y-103638923D01*
X83075069Y-103640036D01*
X83121227Y-103713495D01*
X83170378Y-103791718D01*
X83171146Y-103792681D01*
X83171152Y-103792688D01*
X83297811Y-103919347D01*
X83297815Y-103919350D01*
X83297819Y-103919354D01*
X83298782Y-103920122D01*
X83399009Y-103983099D01*
X83450463Y-104015430D01*
X83451576Y-104015966D01*
X83451581Y-104015968D01*
X83527800Y-104042638D01*
X83620666Y-104075133D01*
X83621867Y-104075407D01*
X83621873Y-104075407D01*
X83621875Y-104075408D01*
X83639972Y-104077447D01*
X83799879Y-104095464D01*
X83799880Y-104095465D01*
X83799884Y-104095465D01*
X83801120Y-104095465D01*
X83801120Y-104095464D01*
X83979133Y-104075407D01*
X83980334Y-104075133D01*
X84149424Y-104015966D01*
X84150533Y-104015432D01*
X84302218Y-103920122D01*
X84303181Y-103919354D01*
X84429854Y-103792681D01*
X84430622Y-103791718D01*
X84525932Y-103640033D01*
X84526466Y-103638924D01*
X84585633Y-103469834D01*
X84585907Y-103468633D01*
X84605965Y-103290616D01*
X84605965Y-103289384D01*
X84589563Y-103143811D01*
X84585908Y-103111375D01*
X84585907Y-103111373D01*
X84585907Y-103111367D01*
X84585633Y-103110166D01*
X84575335Y-103080736D01*
X84526468Y-102941081D01*
X84526466Y-102941076D01*
X84525930Y-102939963D01*
X84474651Y-102858354D01*
X84430622Y-102788282D01*
X84429854Y-102787319D01*
X84429850Y-102787315D01*
X84429847Y-102787311D01*
X84303188Y-102660652D01*
X84303183Y-102660648D01*
X84303181Y-102660646D01*
X84302218Y-102659878D01*
X84200643Y-102596054D01*
X84150536Y-102564569D01*
X84149423Y-102564033D01*
X84149418Y-102564031D01*
X83980342Y-102504869D01*
X83980335Y-102504867D01*
X83980334Y-102504867D01*
X83979817Y-102504749D01*
X83979134Y-102504593D01*
X83979124Y-102504591D01*
X83801120Y-102484535D01*
X83801116Y-102484535D01*
X83799884Y-102484535D01*
X83799880Y-102484535D01*
X83621875Y-102504591D01*
X83621865Y-102504593D01*
X83620657Y-102504869D01*
X83451581Y-102564031D01*
X83451576Y-102564033D01*
X83450463Y-102564569D01*
X83298782Y-102659878D01*
X83297811Y-102660652D01*
X83171152Y-102787311D01*
X83170378Y-102788282D01*
X83075069Y-102939963D01*
X83074533Y-102941076D01*
X83074531Y-102941081D01*
X83015369Y-103110157D01*
X83015093Y-103111365D01*
X83015091Y-103111375D01*
X82995035Y-103289379D01*
X78650642Y-103289379D01*
X78631372Y-103172796D01*
X78630655Y-103167826D01*
X78525388Y-102315325D01*
X78524871Y-102310289D01*
X78520640Y-102258752D01*
X78454597Y-101454218D01*
X78454286Y-101449163D01*
X78453400Y-101427549D01*
X78419120Y-100590934D01*
X78419016Y-100585857D01*
X78419016Y-99726912D01*
X78419120Y-99721835D01*
X78422133Y-99648298D01*
X78454287Y-98863591D01*
X78454599Y-98858539D01*
X78456909Y-98830397D01*
X78524873Y-98002461D01*
X78525391Y-97997430D01*
X78630657Y-97144937D01*
X78631372Y-97139980D01*
X78761387Y-96353403D01*
X78761469Y-96352924D01*
X78775271Y-96273901D01*
X78775977Y-96270207D01*
X78928236Y-95537046D01*
X78928462Y-95535988D01*
X78956024Y-95410462D01*
X78956821Y-95407072D01*
X79131616Y-94710083D01*
X79131919Y-94708904D01*
X79172423Y-94556258D01*
X79173262Y-94553261D01*
X79256692Y-94270247D01*
X79749500Y-94270247D01*
X79749500Y-95509752D01*
X79761131Y-95568229D01*
X79761132Y-95568230D01*
X79805447Y-95634552D01*
X79871769Y-95678867D01*
X79871770Y-95678868D01*
X79930247Y-95690499D01*
X79930250Y-95690500D01*
X79930252Y-95690500D01*
X81269750Y-95690500D01*
X81269751Y-95690499D01*
X81285579Y-95687351D01*
X81328229Y-95678868D01*
X81328229Y-95678867D01*
X81328231Y-95678867D01*
X81394552Y-95634552D01*
X81438867Y-95568231D01*
X81438867Y-95568229D01*
X81438868Y-95568229D01*
X81450499Y-95509752D01*
X81450500Y-95509750D01*
X81450500Y-94270249D01*
X81450499Y-94270247D01*
X81438868Y-94211770D01*
X81438867Y-94211769D01*
X81394552Y-94145447D01*
X81328230Y-94101132D01*
X81328229Y-94101131D01*
X81269752Y-94089500D01*
X81269748Y-94089500D01*
X79930252Y-94089500D01*
X79930247Y-94089500D01*
X79871770Y-94101131D01*
X79871769Y-94101132D01*
X79805447Y-94145447D01*
X79761132Y-94211769D01*
X79761131Y-94211770D01*
X79749500Y-94270247D01*
X79256692Y-94270247D01*
X79371101Y-93882143D01*
X79371572Y-93880591D01*
X79423861Y-93713098D01*
X79424761Y-93710336D01*
X79646276Y-93058576D01*
X79646917Y-93056742D01*
X79709657Y-92882610D01*
X79710512Y-92880321D01*
X79978691Y-92185958D01*
X80019227Y-92131991D01*
X80175819Y-92012723D01*
X80183643Y-92007230D01*
X80229478Y-91977630D01*
X80234276Y-91974687D01*
X80408348Y-91873416D01*
X80418512Y-91868119D01*
X80452615Y-91852316D01*
X80456036Y-91850795D01*
X80655367Y-91765834D01*
X80669833Y-91760703D01*
X80905169Y-91693308D01*
X80920158Y-91690005D01*
X81162015Y-91652237D01*
X81177306Y-91650812D01*
X81421992Y-91643247D01*
X81437324Y-91643724D01*
X81653085Y-91663868D01*
X81656767Y-91664270D01*
X81694066Y-91668923D01*
X81705398Y-91670874D01*
X81902032Y-91714246D01*
X81907544Y-91715598D01*
X81925708Y-91720500D01*
X81960170Y-91729801D01*
X81969339Y-91732661D01*
X82184163Y-91808917D01*
X82191192Y-91811655D01*
X82191719Y-91811879D01*
X82356605Y-91882266D01*
X82706494Y-91992068D01*
X83065524Y-92066745D01*
X83430177Y-92105564D01*
X83786972Y-92108075D01*
X83796878Y-92108145D01*
X83796878Y-92108144D01*
X83796882Y-92108145D01*
X84162045Y-92074464D01*
X84233605Y-92060627D01*
X84238327Y-92060102D01*
X84254554Y-92056577D01*
X84522091Y-92004850D01*
X84600502Y-91981450D01*
X84610193Y-91979347D01*
X84637096Y-91970529D01*
X84873491Y-91899985D01*
X84957652Y-91865485D01*
X84971806Y-91860849D01*
X85004088Y-91846451D01*
X85212804Y-91760896D01*
X85301405Y-91713860D01*
X85319346Y-91705860D01*
X85353365Y-91686275D01*
X85536706Y-91588946D01*
X85536713Y-91588940D01*
X85536719Y-91588938D01*
X85582371Y-91558565D01*
X85628240Y-91528048D01*
X85649142Y-91516017D01*
X85682367Y-91492037D01*
X85842023Y-91385819D01*
X85934793Y-91309862D01*
X85957710Y-91293325D01*
X85988390Y-91265979D01*
X86118668Y-91159315D01*
X86128140Y-91151560D01*
X86128883Y-91152467D01*
X86187556Y-91124108D01*
X86256915Y-91132539D01*
G37*
%TD.AperFunction*%
%TA.AperFunction,Conductor*%
G36*
X116161229Y-108899770D02*
G01*
X116169052Y-108903922D01*
X116345574Y-109005837D01*
X116345595Y-109005848D01*
X116406658Y-109034073D01*
X116406663Y-109034075D01*
X116564208Y-109069558D01*
X116725662Y-109066307D01*
X116725667Y-109066306D01*
X116881655Y-109024510D01*
X116973334Y-108974012D01*
X117041552Y-108958909D01*
X117107105Y-108983086D01*
X117109996Y-108985300D01*
X117112705Y-108987439D01*
X117112709Y-108987441D01*
X117112710Y-108987442D01*
X117219162Y-109048902D01*
X117902708Y-109443548D01*
X117902711Y-109443549D01*
X117902716Y-109443552D01*
X117972157Y-109471201D01*
X118098844Y-109479943D01*
X118221505Y-109447076D01*
X118221508Y-109447073D01*
X118226352Y-109445776D01*
X118245239Y-109446225D01*
X118263569Y-109441657D01*
X118279444Y-109447040D01*
X118296202Y-109447439D01*
X118311845Y-109458027D01*
X118329738Y-109464094D01*
X118340183Y-109477206D01*
X118354064Y-109486601D01*
X118361500Y-109503967D01*
X118373272Y-109518744D01*
X118374970Y-109535419D01*
X118381569Y-109550829D01*
X118378436Y-109569459D01*
X118380350Y-109588254D01*
X118370284Y-109617938D01*
X118369983Y-109619731D01*
X118369016Y-109621679D01*
X118350198Y-109658750D01*
X118349454Y-109660191D01*
X118008847Y-110309972D01*
X118006998Y-110313369D01*
X117931990Y-110446216D01*
X117931283Y-110447452D01*
X117552325Y-111100986D01*
X117550227Y-111104471D01*
X117486236Y-111206928D01*
X117485584Y-111207962D01*
X117061593Y-111872152D01*
X117059232Y-111875712D01*
X117017956Y-111935710D01*
X117017376Y-111936547D01*
X116875746Y-112138839D01*
X116821171Y-112182467D01*
X116751673Y-112189664D01*
X116689317Y-112158145D01*
X116654393Y-112099816D01*
X116632796Y-112019214D01*
X116632794Y-112019211D01*
X116632794Y-112019210D01*
X116561886Y-111913875D01*
X116561883Y-111913872D01*
X116561882Y-111913871D01*
X116513546Y-111875712D01*
X116503220Y-111867560D01*
X116503212Y-111867555D01*
X115713218Y-111411451D01*
X115713212Y-111411448D01*
X115713211Y-111411448D01*
X115696248Y-111404694D01*
X115643769Y-111383798D01*
X115517084Y-111375057D01*
X115517082Y-111375057D01*
X115506669Y-111377847D01*
X115491003Y-111382044D01*
X115421155Y-111380382D01*
X115363292Y-111341220D01*
X115335788Y-111276991D01*
X115335205Y-111253738D01*
X115335377Y-111251248D01*
X115303805Y-111133422D01*
X115280437Y-111098709D01*
X115235690Y-111032235D01*
X115235688Y-111032233D01*
X115235686Y-111032231D01*
X115179336Y-110987745D01*
X115134370Y-110961784D01*
X114365819Y-110518060D01*
X114365813Y-110518057D01*
X114365812Y-110518057D01*
X114299111Y-110491499D01*
X114258546Y-110488700D01*
X114177420Y-110483102D01*
X114177414Y-110483102D01*
X114057665Y-110515188D01*
X114045665Y-110514902D01*
X114034419Y-110519097D01*
X114011384Y-110514086D01*
X113987815Y-110513525D01*
X113976167Y-110506425D01*
X113966146Y-110504245D01*
X113937892Y-110483094D01*
X113881819Y-110427021D01*
X113848334Y-110365698D01*
X113845500Y-110339340D01*
X113845500Y-110029437D01*
X113865185Y-109962398D01*
X113917989Y-109916643D01*
X113987147Y-109906699D01*
X114031498Y-109922049D01*
X114540800Y-110216094D01*
X114792277Y-110361284D01*
X114858139Y-110399309D01*
X114948999Y-110434188D01*
X115072387Y-110440654D01*
X115078854Y-110440994D01*
X115078854Y-110440993D01*
X115078855Y-110440994D01*
X115204457Y-110407339D01*
X115313512Y-110336517D01*
X115374760Y-110260882D01*
X115947066Y-109269618D01*
X115981945Y-109178758D01*
X115988751Y-109048902D01*
X115987278Y-109043404D01*
X115988939Y-108973557D01*
X116028099Y-108915693D01*
X116092326Y-108888186D01*
X116161229Y-108899770D01*
G37*
%TD.AperFunction*%
%TA.AperFunction,Conductor*%
G36*
X111013834Y-92525073D02*
G01*
X111069767Y-92566945D01*
X111094184Y-92632409D01*
X111094500Y-92641255D01*
X111094500Y-93105269D01*
X111097353Y-93135699D01*
X111097353Y-93135701D01*
X111137639Y-93250828D01*
X111142207Y-93263882D01*
X111222850Y-93373150D01*
X111332118Y-93453793D01*
X111374845Y-93468744D01*
X111460299Y-93498646D01*
X111490730Y-93501500D01*
X111490734Y-93501500D01*
X112499270Y-93501500D01*
X112529699Y-93498646D01*
X112529701Y-93498646D01*
X112593790Y-93476219D01*
X112657882Y-93453793D01*
X112767150Y-93373150D01*
X112847793Y-93263882D01*
X112879734Y-93172599D01*
X112892646Y-93135701D01*
X112893145Y-93133416D01*
X112893064Y-93132853D01*
X112893455Y-93131996D01*
X112894256Y-93128330D01*
X112895050Y-93128503D01*
X112906356Y-93103745D01*
X112918198Y-93074018D01*
X112920773Y-93072177D01*
X112922089Y-93069297D01*
X112949008Y-93051997D01*
X112975041Y-93033391D01*
X112979002Y-93032721D01*
X112980867Y-93031523D01*
X113015802Y-93026500D01*
X113195656Y-93026500D01*
X113262695Y-93046185D01*
X113283337Y-93062819D01*
X113563181Y-93342663D01*
X113596666Y-93403986D01*
X113599500Y-93430344D01*
X113599500Y-93469057D01*
X113637390Y-93610462D01*
X113640423Y-93621783D01*
X113640426Y-93621790D01*
X113719475Y-93758709D01*
X113719479Y-93758714D01*
X113719480Y-93758716D01*
X113831284Y-93870520D01*
X113831286Y-93870521D01*
X113831290Y-93870524D01*
X113907460Y-93914500D01*
X113968216Y-93949577D01*
X114120943Y-93990500D01*
X114180243Y-93990500D01*
X114242243Y-94007113D01*
X114281888Y-94030002D01*
X114281889Y-94030002D01*
X114281892Y-94030004D01*
X114364678Y-94052186D01*
X116995170Y-94052186D01*
X117062209Y-94071871D01*
X117082679Y-94090708D01*
X117083733Y-94089655D01*
X117089480Y-94095402D01*
X117201284Y-94207206D01*
X117201286Y-94207207D01*
X117201290Y-94207210D01*
X117319572Y-94275499D01*
X117338216Y-94286263D01*
X117490943Y-94327186D01*
X117490945Y-94327186D01*
X117649055Y-94327186D01*
X117649057Y-94327186D01*
X117801784Y-94286263D01*
X117938716Y-94207206D01*
X118050520Y-94095402D01*
X118129577Y-93958470D01*
X118170500Y-93805743D01*
X118170500Y-93647629D01*
X118129577Y-93494902D01*
X118129576Y-93494900D01*
X118127473Y-93487051D01*
X118129809Y-93486425D01*
X118123658Y-93429158D01*
X118154939Y-93366682D01*
X118215031Y-93331035D01*
X118245686Y-93327186D01*
X118256039Y-93327186D01*
X118256041Y-93327186D01*
X118357902Y-93299893D01*
X118431998Y-93257112D01*
X118493999Y-93240500D01*
X118569055Y-93240500D01*
X118569057Y-93240500D01*
X118721784Y-93199577D01*
X118858716Y-93120520D01*
X118970520Y-93008716D01*
X119049577Y-92871784D01*
X119058570Y-92838220D01*
X119094931Y-92778565D01*
X119157777Y-92748034D01*
X119227153Y-92756328D01*
X119281032Y-92800812D01*
X119294613Y-92827221D01*
X119415385Y-93153057D01*
X119416204Y-93155334D01*
X119475689Y-93325964D01*
X119476605Y-93328693D01*
X119697327Y-94012502D01*
X119698081Y-94014922D01*
X119750496Y-94189430D01*
X119751261Y-94192085D01*
X119957964Y-94940409D01*
X119957850Y-94957603D01*
X119962439Y-94973067D01*
X119957517Y-95008016D01*
X119902604Y-95197042D01*
X119899569Y-95206157D01*
X119880450Y-95256918D01*
X119878293Y-95262265D01*
X119798579Y-95447331D01*
X119793532Y-95457693D01*
X119775704Y-95490350D01*
X119773810Y-95493696D01*
X119664055Y-95680714D01*
X119655471Y-95693459D01*
X119506419Y-95887624D01*
X119496325Y-95899209D01*
X119324406Y-96073445D01*
X119312957Y-96083694D01*
X119120807Y-96235330D01*
X119108179Y-96244082D01*
X118922676Y-96356315D01*
X118919358Y-96358253D01*
X118886903Y-96376540D01*
X118876606Y-96381727D01*
X118692642Y-96463903D01*
X118687326Y-96466131D01*
X118636824Y-96485929D01*
X118627748Y-96489087D01*
X118409477Y-96555675D01*
X118402085Y-96557683D01*
X118357302Y-96568372D01*
X118246318Y-96594795D01*
X118227384Y-96599303D01*
X117880837Y-96719206D01*
X117743934Y-96782344D01*
X117547833Y-96872783D01*
X117547827Y-96872786D01*
X117547818Y-96872791D01*
X117231645Y-97058523D01*
X117231642Y-97058525D01*
X116935357Y-97274617D01*
X116661897Y-97518927D01*
X116661884Y-97518940D01*
X116615952Y-97568977D01*
X116615953Y-97568978D01*
X116612588Y-97572643D01*
X116609121Y-97575862D01*
X116598222Y-97588293D01*
X116597220Y-97589386D01*
X116597213Y-97589394D01*
X116413913Y-97789091D01*
X116413906Y-97789100D01*
X116367644Y-97850766D01*
X116367645Y-97850767D01*
X116364805Y-97854551D01*
X116358270Y-97862007D01*
X116341911Y-97885069D01*
X116340888Y-97886434D01*
X116340880Y-97886446D01*
X116193852Y-98082443D01*
X116149064Y-98156387D01*
X116149065Y-98156388D01*
X116146733Y-98160237D01*
X116138115Y-98172388D01*
X116120724Y-98203179D01*
X116119740Y-98204805D01*
X116119737Y-98204807D01*
X116003882Y-98396088D01*
X116003867Y-98396115D01*
X115962472Y-98482783D01*
X115962473Y-98482784D01*
X115960631Y-98486639D01*
X115950981Y-98503727D01*
X115935288Y-98539704D01*
X115934355Y-98541659D01*
X115934353Y-98541660D01*
X115934354Y-98541660D01*
X115845836Y-98726997D01*
X115845835Y-98726999D01*
X115809860Y-98826618D01*
X115808495Y-98830397D01*
X115798844Y-98852524D01*
X115786393Y-98891598D01*
X115785580Y-98893850D01*
X115785578Y-98893851D01*
X115721273Y-99071921D01*
X115692830Y-99184464D01*
X115692829Y-99184463D01*
X115691892Y-99188169D01*
X115683313Y-99215094D01*
X115674917Y-99255342D01*
X115674270Y-99257904D01*
X115631424Y-99427441D01*
X115631422Y-99427453D01*
X115631421Y-99427458D01*
X115624056Y-99476682D01*
X115612675Y-99552739D01*
X115612150Y-99556242D01*
X115605608Y-99587608D01*
X115601500Y-99627417D01*
X115601076Y-99630252D01*
X115577156Y-99790125D01*
X115577154Y-99790142D01*
X115570339Y-99927679D01*
X115570174Y-99930991D01*
X115566549Y-99966130D01*
X115566548Y-100004166D01*
X115566396Y-100007252D01*
X115559007Y-100156394D01*
X115559007Y-100156398D01*
X115566396Y-100305531D01*
X115566396Y-100305533D01*
X115566548Y-100308604D01*
X115566548Y-100346663D01*
X115570172Y-100381788D01*
X115570337Y-100385109D01*
X115570338Y-100385115D01*
X115577153Y-100522651D01*
X115577155Y-100522668D01*
X115601076Y-100682548D01*
X115601499Y-100685376D01*
X115605607Y-100725185D01*
X115612146Y-100756533D01*
X115612671Y-100760041D01*
X115612673Y-100760052D01*
X115616498Y-100785613D01*
X115629578Y-100873032D01*
X115631422Y-100885352D01*
X115674276Y-101054920D01*
X115674920Y-101057468D01*
X115683312Y-101097699D01*
X115691895Y-101124636D01*
X115692822Y-101128303D01*
X115692822Y-101128304D01*
X115721269Y-101240867D01*
X115721270Y-101240872D01*
X115785585Y-101418967D01*
X115786402Y-101421230D01*
X115798842Y-101460270D01*
X115808484Y-101482377D01*
X115809847Y-101486150D01*
X115809851Y-101486160D01*
X115820266Y-101515000D01*
X115845827Y-101585780D01*
X115897434Y-101693834D01*
X115933023Y-101768351D01*
X115934343Y-101771114D01*
X115934342Y-101771114D01*
X115935275Y-101773067D01*
X115950977Y-101809067D01*
X115960647Y-101826188D01*
X116003870Y-101916688D01*
X116003874Y-101916694D01*
X116003879Y-101916704D01*
X116119727Y-102107973D01*
X116120707Y-102109592D01*
X116138111Y-102140406D01*
X116146734Y-102152564D01*
X116149061Y-102156404D01*
X116149061Y-102156405D01*
X116193848Y-102230351D01*
X116340876Y-102426348D01*
X116341878Y-102427684D01*
X116358266Y-102450788D01*
X116364809Y-102458252D01*
X116367645Y-102462032D01*
X116372660Y-102468717D01*
X116413907Y-102523701D01*
X116598163Y-102724439D01*
X116609116Y-102736933D01*
X116612599Y-102740166D01*
X116615951Y-102743818D01*
X116661877Y-102793852D01*
X116661880Y-102793854D01*
X116661884Y-102793859D01*
X116935353Y-103038180D01*
X117231635Y-103254270D01*
X117547827Y-103440014D01*
X117742651Y-103529864D01*
X117880826Y-103593589D01*
X117880828Y-103593589D01*
X117880831Y-103593591D01*
X117965116Y-103622753D01*
X118227379Y-103713495D01*
X118227382Y-103713495D01*
X118227386Y-103713497D01*
X118402028Y-103755075D01*
X118409429Y-103757083D01*
X118628553Y-103823936D01*
X118637617Y-103827090D01*
X118686087Y-103846091D01*
X118691294Y-103848274D01*
X118877259Y-103931346D01*
X118887517Y-103936513D01*
X118917593Y-103953460D01*
X118920811Y-103955339D01*
X119108162Y-104068693D01*
X119120789Y-104077446D01*
X119250031Y-104179443D01*
X119312935Y-104229086D01*
X119324384Y-104239334D01*
X119496301Y-104413575D01*
X119506395Y-104425161D01*
X119655443Y-104619329D01*
X119664026Y-104632075D01*
X119774823Y-104820879D01*
X119776714Y-104824218D01*
X119789645Y-104847906D01*
X119793218Y-104854450D01*
X119798265Y-104864814D01*
X119878800Y-105051801D01*
X119880957Y-105057149D01*
X119899284Y-105105812D01*
X119902319Y-105114927D01*
X119957489Y-105304863D01*
X119957936Y-105372463D01*
X119752400Y-106116649D01*
X119751608Y-106119394D01*
X119695091Y-106307062D01*
X119694366Y-106309385D01*
X119477634Y-106981031D01*
X119476659Y-106983931D01*
X119411420Y-107170244D01*
X119410664Y-107172343D01*
X119165358Y-107834465D01*
X119164184Y-107837508D01*
X119091805Y-108018141D01*
X119091035Y-108020018D01*
X119031977Y-108160693D01*
X118987877Y-108214887D01*
X118921478Y-108236635D01*
X118853862Y-108219032D01*
X118814780Y-108181940D01*
X118761882Y-108103361D01*
X118761881Y-108103359D01*
X118709731Y-108062189D01*
X118703219Y-108057048D01*
X118703211Y-108057043D01*
X117913217Y-107600939D01*
X117913211Y-107600936D01*
X117913210Y-107600936D01*
X117843847Y-107573318D01*
X117843767Y-107573286D01*
X117843768Y-107573286D01*
X117745689Y-107566519D01*
X117680163Y-107542266D01*
X117641848Y-107492556D01*
X117641607Y-107492689D01*
X117640747Y-107491127D01*
X117639191Y-107489109D01*
X117637986Y-107486115D01*
X117560074Y-107344666D01*
X117560073Y-107344664D01*
X117450572Y-107225967D01*
X117395602Y-107187201D01*
X117395582Y-107187189D01*
X117188831Y-107067821D01*
X117188830Y-107067821D01*
X116725830Y-107869760D01*
X116675263Y-107917976D01*
X116606656Y-107931199D01*
X116556443Y-107915147D01*
X116447325Y-107852148D01*
X116447324Y-107852148D01*
X116384324Y-107961268D01*
X116333757Y-108009483D01*
X116265149Y-108022705D01*
X116214937Y-108006654D01*
X115369698Y-107518654D01*
X115369697Y-107518654D01*
X115275328Y-107682106D01*
X115275319Y-107682125D01*
X115247096Y-107743179D01*
X115211613Y-107900730D01*
X115214864Y-108062184D01*
X115214865Y-108062189D01*
X115247693Y-108184707D01*
X115246030Y-108254557D01*
X115206867Y-108312420D01*
X115142638Y-108339923D01*
X115073736Y-108328336D01*
X115065918Y-108324187D01*
X114903978Y-108230691D01*
X114855670Y-108212147D01*
X114813117Y-108195812D01*
X114806602Y-108195470D01*
X114724829Y-108191184D01*
X114658912Y-108168017D01*
X114615984Y-108112890D01*
X114609674Y-108043306D01*
X114641986Y-107981357D01*
X114657681Y-107967589D01*
X114692150Y-107942150D01*
X114772793Y-107832882D01*
X114798224Y-107760205D01*
X114817646Y-107704701D01*
X114817646Y-107704699D01*
X114820500Y-107674269D01*
X114820500Y-107667981D01*
X114840185Y-107600942D01*
X114882500Y-107560594D01*
X114934685Y-107530465D01*
X115119860Y-107345289D01*
X115119862Y-107345288D01*
X115180465Y-107284685D01*
X115213684Y-107227148D01*
X115223318Y-107210462D01*
X115245500Y-107127676D01*
X115245500Y-107085641D01*
X115619697Y-107085641D01*
X115619697Y-107085642D01*
X116355817Y-107510641D01*
X116355818Y-107510641D01*
X116755817Y-106817821D01*
X116755817Y-106817820D01*
X116549075Y-106698458D01*
X116549054Y-106698447D01*
X116487991Y-106670222D01*
X116487986Y-106670220D01*
X116330441Y-106634737D01*
X116168987Y-106637988D01*
X116168982Y-106637989D01*
X116012996Y-106679785D01*
X115871538Y-106757701D01*
X115752847Y-106867197D01*
X115752844Y-106867200D01*
X115714069Y-106922185D01*
X115619697Y-107085641D01*
X115245500Y-107085641D01*
X115245500Y-107041970D01*
X115245500Y-106021726D01*
X115249725Y-105989633D01*
X115255893Y-105966613D01*
X115271501Y-105908366D01*
X115271501Y-105822661D01*
X115271501Y-105815066D01*
X115271500Y-105815048D01*
X115271500Y-104735021D01*
X115271500Y-104717342D01*
X115271501Y-104717339D01*
X115271501Y-104631634D01*
X115249318Y-104548848D01*
X115248080Y-104546704D01*
X115246448Y-104533577D01*
X115247038Y-104529960D01*
X115245500Y-104518274D01*
X115245500Y-96157149D01*
X115245500Y-96157147D01*
X115223318Y-96074362D01*
X115210241Y-96051711D01*
X115180469Y-96000144D01*
X115180463Y-96000136D01*
X113469864Y-94289537D01*
X113469862Y-94289535D01*
X113421857Y-94261819D01*
X113395640Y-94246682D01*
X113350458Y-94234576D01*
X113312853Y-94224500D01*
X111472853Y-94224500D01*
X111387147Y-94224500D01*
X111304359Y-94246682D01*
X111230138Y-94289535D01*
X111230135Y-94289537D01*
X108881492Y-96638181D01*
X108820169Y-96671666D01*
X108793811Y-96674500D01*
X108510192Y-96674500D01*
X108443153Y-96654815D01*
X108397398Y-96602011D01*
X108387454Y-96532853D01*
X108416479Y-96469297D01*
X108422511Y-96462819D01*
X108465671Y-96419658D01*
X108465672Y-96419657D01*
X108465674Y-96419655D01*
X108580638Y-96247598D01*
X108659827Y-96056420D01*
X108700197Y-95853465D01*
X108700197Y-95646535D01*
X108659827Y-95443580D01*
X108580638Y-95252402D01*
X108465674Y-95080345D01*
X108465672Y-95080342D01*
X108458511Y-95073181D01*
X108425026Y-95011858D01*
X108430010Y-94942166D01*
X108471882Y-94886233D01*
X108537346Y-94861816D01*
X108546192Y-94861500D01*
X108601725Y-94861500D01*
X108601727Y-94861500D01*
X108703588Y-94834207D01*
X108794913Y-94781480D01*
X108940480Y-94635913D01*
X108993207Y-94544588D01*
X109020500Y-94442727D01*
X109020500Y-94442724D01*
X109021722Y-94438164D01*
X109053814Y-94382578D01*
X110882819Y-92553574D01*
X110944142Y-92520089D01*
X111013834Y-92525073D01*
G37*
%TD.AperFunction*%
%TA.AperFunction,Conductor*%
G36*
X106425097Y-101995069D02*
G01*
X106458599Y-102018926D01*
X107190823Y-102751150D01*
X107224308Y-102812473D01*
X107219324Y-102882165D01*
X107210530Y-102900830D01*
X107140423Y-103022259D01*
X107140423Y-103022260D01*
X107099500Y-103174987D01*
X107099500Y-103333101D01*
X107136138Y-103469834D01*
X107140423Y-103485827D01*
X107140426Y-103485834D01*
X107219475Y-103622753D01*
X107219479Y-103622758D01*
X107219480Y-103622760D01*
X107331284Y-103734564D01*
X107331286Y-103734565D01*
X107331290Y-103734568D01*
X107468209Y-103813617D01*
X107468216Y-103813621D01*
X107620943Y-103854544D01*
X107620945Y-103854544D01*
X107779055Y-103854544D01*
X107779057Y-103854544D01*
X107931784Y-103813621D01*
X108068716Y-103734564D01*
X108180520Y-103622760D01*
X108259577Y-103485828D01*
X108300500Y-103333101D01*
X108300500Y-103174987D01*
X108300500Y-103166860D01*
X108301876Y-103166860D01*
X108305167Y-103145748D01*
X108307306Y-103115842D01*
X108310492Y-103111584D01*
X108311312Y-103106331D01*
X108331215Y-103083904D01*
X108349178Y-103059909D01*
X108354158Y-103058051D01*
X108357689Y-103054073D01*
X108386557Y-103045967D01*
X108414642Y-103035492D01*
X108419838Y-103036622D01*
X108424957Y-103035185D01*
X108453620Y-103043971D01*
X108482915Y-103050344D01*
X108488812Y-103054758D01*
X108491759Y-103055662D01*
X108511169Y-103071495D01*
X108603181Y-103163507D01*
X108636666Y-103224830D01*
X108639500Y-103251188D01*
X108639500Y-103334057D01*
X108680169Y-103485834D01*
X108680423Y-103486783D01*
X108680426Y-103486790D01*
X108759475Y-103623709D01*
X108759479Y-103623714D01*
X108759480Y-103623716D01*
X108871284Y-103735520D01*
X108871286Y-103735521D01*
X108871290Y-103735524D01*
X109006553Y-103813617D01*
X109008216Y-103814577D01*
X109160943Y-103855500D01*
X109160945Y-103855500D01*
X109319055Y-103855500D01*
X109319057Y-103855500D01*
X109471784Y-103814577D01*
X109608716Y-103735520D01*
X109720520Y-103623716D01*
X109799577Y-103486784D01*
X109840500Y-103334057D01*
X109840500Y-103175943D01*
X109827271Y-103126571D01*
X109828933Y-103056724D01*
X109868094Y-102998861D01*
X109932322Y-102971356D01*
X110001225Y-102982942D01*
X110034726Y-103006798D01*
X112558393Y-105530465D01*
X112632616Y-105573318D01*
X112715402Y-105595500D01*
X112899198Y-105595500D01*
X112966237Y-105615185D01*
X113011992Y-105667989D01*
X113019877Y-105697519D01*
X113020744Y-105697330D01*
X113022353Y-105704701D01*
X113067206Y-105832880D01*
X113067207Y-105832882D01*
X113147850Y-105942150D01*
X113257118Y-106022793D01*
X113299845Y-106037744D01*
X113385299Y-106067646D01*
X113415730Y-106070500D01*
X113415734Y-106070500D01*
X114424268Y-106070500D01*
X114458921Y-106067250D01*
X114473472Y-106070079D01*
X114488147Y-106067970D01*
X114507077Y-106076615D01*
X114527506Y-106080588D01*
X114538218Y-106090836D01*
X114551703Y-106096995D01*
X114562953Y-106114501D01*
X114577992Y-106128889D01*
X114582109Y-106144309D01*
X114589477Y-106155773D01*
X114594500Y-106190708D01*
X114594500Y-106349291D01*
X114574815Y-106416330D01*
X114522011Y-106462085D01*
X114458925Y-106472750D01*
X114443148Y-106471270D01*
X114424266Y-106469500D01*
X113415734Y-106469500D01*
X113415730Y-106469500D01*
X113385300Y-106472353D01*
X113385298Y-106472353D01*
X113257119Y-106517206D01*
X113257117Y-106517207D01*
X113147850Y-106597850D01*
X113067207Y-106707117D01*
X113067206Y-106707119D01*
X113022353Y-106835298D01*
X113022353Y-106835300D01*
X113019500Y-106865730D01*
X113019500Y-107674269D01*
X113022353Y-107704699D01*
X113022354Y-107704702D01*
X113025118Y-107712602D01*
X113028677Y-107782381D01*
X112993946Y-107843007D01*
X112931951Y-107875232D01*
X112875984Y-107873327D01*
X112846773Y-107865500D01*
X112688659Y-107865500D01*
X112535932Y-107906423D01*
X112535925Y-107906426D01*
X112399006Y-107985475D01*
X112398998Y-107985481D01*
X112292299Y-108092181D01*
X112230976Y-108125666D01*
X112204618Y-108128500D01*
X111716422Y-108128500D01*
X111709801Y-108130275D01*
X111677710Y-108134500D01*
X111246188Y-108134500D01*
X111179149Y-108114815D01*
X111158507Y-108098181D01*
X106291819Y-103231492D01*
X106258334Y-103170169D01*
X106255500Y-103143811D01*
X106255500Y-102154959D01*
X106255500Y-102154957D01*
X106251144Y-102138700D01*
X106252805Y-102068853D01*
X106291966Y-102010990D01*
X106356194Y-101983484D01*
X106425097Y-101995069D01*
G37*
%TD.AperFunction*%
%TA.AperFunction,Conductor*%
G36*
X113150850Y-94895185D02*
G01*
X113171492Y-94911819D01*
X113537492Y-95277819D01*
X113548104Y-95297255D01*
X113562605Y-95313989D01*
X113564521Y-95327320D01*
X113570977Y-95339142D01*
X113569397Y-95361228D01*
X113572549Y-95383147D01*
X113566953Y-95395398D01*
X113565993Y-95408834D01*
X113552722Y-95426560D01*
X113543524Y-95446703D01*
X113532192Y-95453985D01*
X113524121Y-95464767D01*
X113503375Y-95472504D01*
X113484746Y-95484477D01*
X113462827Y-95487628D01*
X113458657Y-95489184D01*
X113449811Y-95489500D01*
X113230098Y-95489500D01*
X113163059Y-95469815D01*
X113142417Y-95453181D01*
X113098717Y-95409481D01*
X113098709Y-95409475D01*
X112961790Y-95330426D01*
X112961786Y-95330424D01*
X112961784Y-95330423D01*
X112809057Y-95289500D01*
X112650943Y-95289500D01*
X112498216Y-95330423D01*
X112498209Y-95330426D01*
X112361290Y-95409475D01*
X112361282Y-95409481D01*
X112249481Y-95521282D01*
X112249475Y-95521290D01*
X112170426Y-95658209D01*
X112170423Y-95658216D01*
X112129500Y-95810943D01*
X112129500Y-95969057D01*
X112169514Y-96118389D01*
X112170423Y-96121783D01*
X112170426Y-96121790D01*
X112249475Y-96258709D01*
X112249479Y-96258714D01*
X112249480Y-96258716D01*
X112361284Y-96370520D01*
X112361286Y-96370521D01*
X112361290Y-96370524D01*
X112476406Y-96436985D01*
X112498216Y-96449577D01*
X112650943Y-96490500D01*
X112650945Y-96490500D01*
X112809055Y-96490500D01*
X112809057Y-96490500D01*
X112961784Y-96449577D01*
X113098716Y-96370520D01*
X113142417Y-96326819D01*
X113169344Y-96312115D01*
X113195163Y-96295523D01*
X113201363Y-96294631D01*
X113203740Y-96293334D01*
X113230098Y-96290500D01*
X113462745Y-96290500D01*
X113529784Y-96310185D01*
X113550421Y-96326814D01*
X113653182Y-96429574D01*
X113686666Y-96490895D01*
X113689500Y-96517254D01*
X113689500Y-104345500D01*
X113669815Y-104412539D01*
X113617011Y-104458294D01*
X113565500Y-104469500D01*
X113415730Y-104469500D01*
X113385300Y-104472353D01*
X113385298Y-104472353D01*
X113257119Y-104517206D01*
X113257117Y-104517207D01*
X113147850Y-104597850D01*
X113067207Y-104707117D01*
X113025717Y-104825688D01*
X112984995Y-104882463D01*
X112920042Y-104908210D01*
X112851481Y-104894753D01*
X112820995Y-104872413D01*
X110423743Y-102475161D01*
X110390258Y-102413838D01*
X110389108Y-102386044D01*
X110387614Y-102386044D01*
X110387614Y-102219804D01*
X110387614Y-102219802D01*
X110346691Y-102067075D01*
X110321612Y-102023637D01*
X110267638Y-101930149D01*
X110267632Y-101930141D01*
X110155831Y-101818340D01*
X110155823Y-101818334D01*
X110018904Y-101739285D01*
X110018900Y-101739283D01*
X110018898Y-101739282D01*
X109866171Y-101698359D01*
X109708057Y-101698359D01*
X109638413Y-101717020D01*
X109606320Y-101721245D01*
X109557273Y-101721245D01*
X109455410Y-101748538D01*
X109364087Y-101801265D01*
X109364084Y-101801267D01*
X109289522Y-101875829D01*
X109289520Y-101875832D01*
X109236793Y-101967155D01*
X109209500Y-102069018D01*
X109209500Y-102118065D01*
X109205275Y-102150157D01*
X109186614Y-102219802D01*
X109186614Y-102377916D01*
X109220631Y-102504869D01*
X109221947Y-102509780D01*
X109221731Y-102518829D01*
X109225295Y-102527151D01*
X109220912Y-102553211D01*
X109220284Y-102579630D01*
X109215210Y-102587126D01*
X109213709Y-102596054D01*
X109195931Y-102615610D01*
X109181121Y-102637492D01*
X109171557Y-102642422D01*
X109166711Y-102647754D01*
X109134266Y-102661648D01*
X109114856Y-102666849D01*
X109045006Y-102665186D01*
X108995081Y-102634755D01*
X108788660Y-102428334D01*
X108549322Y-102188995D01*
X108492875Y-102156405D01*
X108475100Y-102146142D01*
X108431239Y-102134390D01*
X108392313Y-102123960D01*
X108392312Y-102123960D01*
X108185648Y-102123960D01*
X108118609Y-102104275D01*
X108097967Y-102087641D01*
X106895678Y-100885352D01*
X105659862Y-99649535D01*
X105607806Y-99619480D01*
X105585640Y-99606682D01*
X105544246Y-99595591D01*
X105502853Y-99584500D01*
X105502852Y-99584500D01*
X102786189Y-99584500D01*
X102719150Y-99564815D01*
X102698508Y-99548181D01*
X100327431Y-97177104D01*
X100293946Y-97115781D01*
X100298930Y-97046089D01*
X100300551Y-97041970D01*
X100310384Y-97018231D01*
X100340130Y-96946420D01*
X100380500Y-96743465D01*
X100380500Y-96536535D01*
X100340130Y-96333580D01*
X100260941Y-96142402D01*
X100260940Y-96142400D01*
X100260940Y-96142399D01*
X100154026Y-95982390D01*
X100133148Y-95915713D01*
X100151633Y-95848333D01*
X100203612Y-95801643D01*
X100257128Y-95789500D01*
X100942872Y-95789500D01*
X101009911Y-95809185D01*
X101055666Y-95861989D01*
X101065610Y-95931147D01*
X101045974Y-95982390D01*
X100939059Y-96142399D01*
X100939059Y-96142400D01*
X100859870Y-96333579D01*
X100859868Y-96333587D01*
X100819500Y-96536530D01*
X100819500Y-96743469D01*
X100859868Y-96946412D01*
X100859870Y-96946420D01*
X100926204Y-97106565D01*
X100939059Y-97137598D01*
X100980696Y-97199913D01*
X101054024Y-97309657D01*
X101200342Y-97455975D01*
X101200345Y-97455977D01*
X101372402Y-97570941D01*
X101563580Y-97650130D01*
X101708052Y-97678867D01*
X101766530Y-97690499D01*
X101766534Y-97690500D01*
X101766535Y-97690500D01*
X101973466Y-97690500D01*
X101973467Y-97690499D01*
X102176420Y-97650130D01*
X102367598Y-97570941D01*
X102539655Y-97455977D01*
X102685977Y-97309655D01*
X102800941Y-97137598D01*
X102880130Y-96946420D01*
X102920500Y-96743465D01*
X102920500Y-96536535D01*
X102880130Y-96333580D01*
X102800941Y-96142402D01*
X102800939Y-96142399D01*
X102784897Y-96118389D01*
X102781860Y-96108690D01*
X102775206Y-96101011D01*
X102771596Y-96075910D01*
X102764020Y-96051711D01*
X102766708Y-96041912D01*
X102765262Y-96031853D01*
X102775797Y-96008783D01*
X102782506Y-95984332D01*
X102790064Y-95977542D01*
X102794287Y-95968297D01*
X102815620Y-95954586D01*
X102834485Y-95937642D01*
X102846081Y-95935010D01*
X102853065Y-95930523D01*
X102888000Y-95925500D01*
X103109557Y-95925500D01*
X103176596Y-95945185D01*
X103185045Y-95951125D01*
X103190769Y-95955517D01*
X103190772Y-95955520D01*
X103190775Y-95955521D01*
X103190778Y-95955524D01*
X103303289Y-96020481D01*
X103327704Y-96034577D01*
X103480431Y-96075500D01*
X103480433Y-96075500D01*
X103638543Y-96075500D01*
X103638545Y-96075500D01*
X103791272Y-96034577D01*
X103928204Y-95955520D01*
X104040008Y-95843716D01*
X104119065Y-95706784D01*
X104159988Y-95554057D01*
X104159988Y-95554048D01*
X104161049Y-95545997D01*
X104163980Y-95546382D01*
X104179673Y-95492941D01*
X104232477Y-95447186D01*
X104301635Y-95437242D01*
X104365191Y-95466267D01*
X104371669Y-95472299D01*
X106652265Y-97752895D01*
X106685750Y-97814218D01*
X106680766Y-97883910D01*
X106679145Y-97888028D01*
X106639568Y-97983575D01*
X106639565Y-97983587D01*
X106599197Y-98186530D01*
X106599197Y-98393469D01*
X106639565Y-98596412D01*
X106639567Y-98596420D01*
X106712270Y-98771941D01*
X106718756Y-98787598D01*
X106767853Y-98861077D01*
X106833721Y-98959657D01*
X106980039Y-99105975D01*
X106980042Y-99105977D01*
X107152099Y-99220941D01*
X107343277Y-99300130D01*
X107546227Y-99340499D01*
X107546231Y-99340500D01*
X107546232Y-99340500D01*
X107753163Y-99340500D01*
X107753164Y-99340499D01*
X107956117Y-99300130D01*
X108147295Y-99220941D01*
X108319352Y-99105977D01*
X108465674Y-98959655D01*
X108580638Y-98787598D01*
X108659827Y-98596420D01*
X108700197Y-98393465D01*
X108700197Y-98186535D01*
X108659827Y-97983580D01*
X108580638Y-97792402D01*
X108465674Y-97620345D01*
X108465672Y-97620342D01*
X108382511Y-97537181D01*
X108349026Y-97475858D01*
X108354010Y-97406166D01*
X108395882Y-97350233D01*
X108461346Y-97325816D01*
X108470192Y-97325500D01*
X109022851Y-97325500D01*
X109022853Y-97325500D01*
X109105639Y-97303318D01*
X109179862Y-97260465D01*
X111528508Y-94911819D01*
X111589831Y-94878334D01*
X111616189Y-94875500D01*
X113083811Y-94875500D01*
X113150850Y-94895185D01*
G37*
%TD.AperFunction*%
%TA.AperFunction,Conductor*%
G36*
X99791570Y-92759185D02*
G01*
X99812212Y-92775819D01*
X100021895Y-92985502D01*
X100041599Y-93011179D01*
X100090520Y-93095913D01*
X100165087Y-93170480D01*
X100246816Y-93217666D01*
X100249816Y-93219398D01*
X100275497Y-93239104D01*
X100365212Y-93328819D01*
X100398697Y-93390142D01*
X100393713Y-93459834D01*
X100351841Y-93515767D01*
X100286377Y-93540184D01*
X100277531Y-93540500D01*
X99495469Y-93540500D01*
X99428430Y-93520815D01*
X99407788Y-93504181D01*
X99283144Y-93379537D01*
X99283142Y-93379535D01*
X99209193Y-93336840D01*
X99160979Y-93286273D01*
X99147757Y-93217666D01*
X99152604Y-93193232D01*
X99156735Y-93179704D01*
X99182207Y-93135587D01*
X99209500Y-93033727D01*
X99209500Y-93006955D01*
X99214909Y-92989247D01*
X99224347Y-92974904D01*
X99229185Y-92958430D01*
X99245819Y-92937788D01*
X99407788Y-92775819D01*
X99469111Y-92742334D01*
X99495469Y-92739500D01*
X99724531Y-92739500D01*
X99791570Y-92759185D01*
G37*
%TD.AperFunction*%
%TA.AperFunction,Conductor*%
G36*
X97816878Y-79147561D02*
G01*
X97866013Y-79197235D01*
X97880493Y-79265588D01*
X97878477Y-79280258D01*
X97874500Y-79300252D01*
X97874500Y-80896500D01*
X97854815Y-80963539D01*
X97802011Y-81009294D01*
X97750500Y-81020500D01*
X97092173Y-81020500D01*
X97025134Y-81000815D01*
X96979379Y-80948011D01*
X96969435Y-80878853D01*
X96973788Y-80859610D01*
X96988590Y-80812106D01*
X96995000Y-80741572D01*
X96995000Y-80735000D01*
X95045001Y-80735000D01*
X95045001Y-80741582D01*
X95051408Y-80812102D01*
X95051409Y-80812110D01*
X95066211Y-80859610D01*
X95067363Y-80929470D01*
X95030562Y-80988862D01*
X94967493Y-81018930D01*
X94947826Y-81020500D01*
X91458844Y-81020500D01*
X91376059Y-81042682D01*
X91376052Y-81042685D01*
X91301841Y-81085530D01*
X91301833Y-81085536D01*
X89851537Y-82535832D01*
X89851533Y-82535838D01*
X89808681Y-82610058D01*
X89808682Y-82610059D01*
X89786500Y-82692844D01*
X89786500Y-92900500D01*
X89783949Y-92909185D01*
X89785238Y-92918147D01*
X89774259Y-92942187D01*
X89766815Y-92967539D01*
X89759974Y-92973466D01*
X89756213Y-92981703D01*
X89733978Y-92995992D01*
X89714011Y-93013294D01*
X89703496Y-93015581D01*
X89697435Y-93019477D01*
X89662500Y-93024500D01*
X89634500Y-93024500D01*
X89567461Y-93004815D01*
X89521706Y-92952011D01*
X89510500Y-92900500D01*
X89510500Y-91300249D01*
X89510499Y-91300247D01*
X89498868Y-91241770D01*
X89498867Y-91241769D01*
X89454552Y-91175447D01*
X89388230Y-91131132D01*
X89388229Y-91131131D01*
X89329752Y-91119500D01*
X89329748Y-91119500D01*
X87730188Y-91119500D01*
X87663149Y-91099815D01*
X87617394Y-91047011D01*
X87607450Y-90977853D01*
X87636475Y-90914297D01*
X87642507Y-90907819D01*
X87922895Y-90627431D01*
X87984218Y-90593946D01*
X88053910Y-90598930D01*
X88058023Y-90600548D01*
X88153580Y-90640130D01*
X88313290Y-90671898D01*
X88356530Y-90680499D01*
X88356534Y-90680500D01*
X88356535Y-90680500D01*
X88563466Y-90680500D01*
X88563467Y-90680499D01*
X88766420Y-90640130D01*
X88957598Y-90560941D01*
X89129655Y-90445977D01*
X89275977Y-90299655D01*
X89390941Y-90127598D01*
X89470130Y-89936420D01*
X89510500Y-89733465D01*
X89510500Y-89526535D01*
X89470130Y-89323580D01*
X89390941Y-89132402D01*
X89275977Y-88960345D01*
X89275975Y-88960342D01*
X89129657Y-88814024D01*
X89030824Y-88747987D01*
X88957598Y-88699059D01*
X88854929Y-88656532D01*
X88766420Y-88619870D01*
X88766412Y-88619868D01*
X88563469Y-88579500D01*
X88563465Y-88579500D01*
X88356535Y-88579500D01*
X88356530Y-88579500D01*
X88153587Y-88619868D01*
X88153579Y-88619870D01*
X87962403Y-88699058D01*
X87790342Y-88814024D01*
X87644024Y-88960342D01*
X87529057Y-89132404D01*
X87508955Y-89180936D01*
X87494567Y-89198789D01*
X87484036Y-89219159D01*
X87473059Y-89225478D01*
X87465113Y-89235340D01*
X87443355Y-89242581D01*
X87423485Y-89254022D01*
X87410836Y-89253404D01*
X87398819Y-89257404D01*
X87376601Y-89251733D01*
X87353699Y-89250615D01*
X87343390Y-89243256D01*
X87331120Y-89240124D01*
X87315495Y-89223341D01*
X87296833Y-89210019D01*
X87292140Y-89198256D01*
X87283510Y-89188987D01*
X87279438Y-89166421D01*
X87270942Y-89145124D01*
X87271933Y-89124818D01*
X87271105Y-89120227D01*
X87272663Y-89109872D01*
X87274471Y-89100551D01*
X87276630Y-89089418D01*
X87277488Y-89085372D01*
X87285822Y-89049109D01*
X87287715Y-89033804D01*
X87289040Y-89025449D01*
X87307337Y-88931137D01*
X87328193Y-88706548D01*
X87332535Y-88671453D01*
X87332836Y-88656549D01*
X87341246Y-88565995D01*
X87339663Y-88319331D01*
X87340238Y-88290998D01*
X87339418Y-88281103D01*
X87338894Y-88199288D01*
X87310218Y-87928310D01*
X87308849Y-87911761D01*
X87307973Y-87907097D01*
X87300303Y-87834611D01*
X87225851Y-87475535D01*
X87150583Y-87235165D01*
X87116270Y-87125586D01*
X87116269Y-87125585D01*
X87116267Y-87125577D01*
X86972626Y-86788166D01*
X86796333Y-86466607D01*
X86589117Y-86164051D01*
X86473503Y-86026758D01*
X86468728Y-86020715D01*
X86425273Y-85962047D01*
X86332932Y-85837377D01*
X86327521Y-85829446D01*
X86298552Y-85783241D01*
X86295605Y-85778288D01*
X86196758Y-85603025D01*
X86191567Y-85592730D01*
X86177600Y-85561498D01*
X86176192Y-85558348D01*
X86174701Y-85554869D01*
X86092468Y-85354544D01*
X86087526Y-85339997D01*
X86023292Y-85103795D01*
X86020186Y-85088746D01*
X86015719Y-85057395D01*
X85985659Y-84846415D01*
X85984439Y-84831101D01*
X85984206Y-84817819D01*
X85980148Y-84586341D01*
X85980830Y-84571021D01*
X86003851Y-84355619D01*
X86004301Y-84351954D01*
X86009471Y-84314580D01*
X86011567Y-84303316D01*
X86057548Y-84107346D01*
X86058962Y-84101896D01*
X86073912Y-84049306D01*
X86076868Y-84040253D01*
X86145158Y-83855737D01*
X86185018Y-83801135D01*
X86796486Y-83322533D01*
X86798539Y-83320963D01*
X86944586Y-83211811D01*
X86946477Y-83210427D01*
X87530891Y-82791986D01*
X87533113Y-82790434D01*
X87682608Y-82688561D01*
X87684386Y-82687375D01*
X88287732Y-82293238D01*
X88290069Y-82291751D01*
X88441778Y-82197794D01*
X88443473Y-82196766D01*
X89065586Y-81827286D01*
X89068139Y-81825812D01*
X89220536Y-81740397D01*
X89222188Y-81739490D01*
X89863079Y-81395003D01*
X89865791Y-81393591D01*
X90017339Y-81317144D01*
X90018935Y-81316355D01*
X90678647Y-80997288D01*
X90681539Y-80995937D01*
X90830543Y-80928762D01*
X90832049Y-80928097D01*
X91510851Y-80634880D01*
X91513770Y-80633667D01*
X91658531Y-80575867D01*
X91659861Y-80575348D01*
X92357929Y-80308579D01*
X92361100Y-80307418D01*
X92499358Y-80259097D01*
X92500657Y-80258653D01*
X93218611Y-80018897D01*
X93221891Y-80017856D01*
X93351202Y-79978905D01*
X93352175Y-79978619D01*
X94091053Y-79766491D01*
X94094405Y-79765583D01*
X94211913Y-79735713D01*
X94213082Y-79735424D01*
X94973672Y-79551834D01*
X94977352Y-79551007D01*
X95079535Y-79529732D01*
X95080317Y-79529574D01*
X95223112Y-79501501D01*
X95292684Y-79507884D01*
X95347766Y-79550870D01*
X95370864Y-79616811D01*
X95354644Y-79684772D01*
X95315602Y-79724761D01*
X95316026Y-79725303D01*
X95311976Y-79728475D01*
X95311190Y-79729281D01*
X95310129Y-79729922D01*
X95310121Y-79729928D01*
X95189927Y-79850122D01*
X95101980Y-79995604D01*
X95051409Y-80157893D01*
X95045000Y-80228427D01*
X95045000Y-80235000D01*
X95770000Y-80235000D01*
X96270000Y-80235000D01*
X96994999Y-80235000D01*
X96994999Y-80228417D01*
X96988591Y-80157897D01*
X96988590Y-80157892D01*
X96938018Y-79995603D01*
X96850072Y-79850122D01*
X96729877Y-79729927D01*
X96584395Y-79641980D01*
X96584396Y-79641980D01*
X96422105Y-79591409D01*
X96422106Y-79591409D01*
X96351572Y-79585000D01*
X96270000Y-79585000D01*
X96270000Y-80235000D01*
X95770000Y-80235000D01*
X95770000Y-79580970D01*
X95741363Y-79528527D01*
X95746347Y-79458835D01*
X95788217Y-79402901D01*
X95838607Y-79380497D01*
X95864937Y-79375321D01*
X95868827Y-79374621D01*
X95951441Y-79361152D01*
X95952079Y-79361051D01*
X96763190Y-79237306D01*
X96767187Y-79236765D01*
X96824909Y-79229924D01*
X96825726Y-79229831D01*
X97666620Y-79138089D01*
X97670724Y-79137714D01*
X97697295Y-79135736D01*
X97698180Y-79135674D01*
X97748689Y-79132338D01*
X97816878Y-79147561D01*
G37*
%TD.AperFunction*%
%TA.AperFunction,Conductor*%
G36*
X108905400Y-82414476D02*
G01*
X108911878Y-82420508D01*
X109817181Y-83325811D01*
X109850666Y-83387134D01*
X109853500Y-83413492D01*
X109853500Y-83870709D01*
X109853500Y-83956415D01*
X109864591Y-83997808D01*
X109875682Y-84039202D01*
X109897108Y-84076312D01*
X109918535Y-84113424D01*
X110521576Y-84716465D01*
X110595799Y-84759318D01*
X110678585Y-84781500D01*
X110764291Y-84781500D01*
X111852373Y-84781500D01*
X111919412Y-84801185D01*
X111940054Y-84817819D01*
X113546541Y-86424305D01*
X113580026Y-86485628D01*
X113582860Y-86511986D01*
X113582860Y-87263700D01*
X113563175Y-87330739D01*
X113510371Y-87376494D01*
X113441213Y-87386438D01*
X113396861Y-87371088D01*
X113291784Y-87310423D01*
X113275180Y-87305974D01*
X113139057Y-87269500D01*
X112980943Y-87269500D01*
X112828216Y-87310423D01*
X112828209Y-87310426D01*
X112691290Y-87389475D01*
X112691282Y-87389481D01*
X112667181Y-87413583D01*
X112605858Y-87447068D01*
X112536166Y-87442084D01*
X112480233Y-87400212D01*
X112455816Y-87334748D01*
X112455500Y-87325902D01*
X112455500Y-87125730D01*
X112452646Y-87095300D01*
X112452646Y-87095298D01*
X112407793Y-86967119D01*
X112407792Y-86967117D01*
X112397374Y-86953001D01*
X112327150Y-86857850D01*
X112217882Y-86777207D01*
X112217880Y-86777206D01*
X112089700Y-86732353D01*
X112059270Y-86729500D01*
X112059266Y-86729500D01*
X110700734Y-86729500D01*
X110700730Y-86729500D01*
X110670300Y-86732353D01*
X110670298Y-86732353D01*
X110542119Y-86777206D01*
X110542117Y-86777207D01*
X110432850Y-86857850D01*
X110352207Y-86967117D01*
X110352206Y-86967119D01*
X110307353Y-87095298D01*
X110307353Y-87095300D01*
X110304500Y-87125730D01*
X110304500Y-87934269D01*
X110307353Y-87964699D01*
X110307353Y-87964701D01*
X110349776Y-88085935D01*
X110352207Y-88092882D01*
X110432850Y-88202150D01*
X110542118Y-88282793D01*
X110565567Y-88290998D01*
X110670299Y-88327646D01*
X110700730Y-88330500D01*
X111969811Y-88330500D01*
X112036850Y-88350185D01*
X112082605Y-88402989D01*
X112092549Y-88472147D01*
X112063524Y-88535703D01*
X112057492Y-88542181D01*
X108927492Y-91672181D01*
X108866169Y-91705666D01*
X108839811Y-91708500D01*
X108394764Y-91708500D01*
X108327725Y-91688815D01*
X108281970Y-91636011D01*
X108272026Y-91566853D01*
X108301051Y-91503297D01*
X108316101Y-91488645D01*
X108319346Y-91485980D01*
X108319352Y-91485977D01*
X108465674Y-91339655D01*
X108580638Y-91167598D01*
X108659827Y-90976420D01*
X108700197Y-90773465D01*
X108700197Y-90566535D01*
X108659827Y-90363580D01*
X108580638Y-90172402D01*
X108465674Y-90000345D01*
X108465672Y-90000342D01*
X108319354Y-89854024D01*
X108224502Y-89790647D01*
X108147295Y-89739059D01*
X108133792Y-89733466D01*
X107956117Y-89659870D01*
X107956109Y-89659868D01*
X107753166Y-89619500D01*
X107753162Y-89619500D01*
X107546232Y-89619500D01*
X107546227Y-89619500D01*
X107343284Y-89659868D01*
X107343276Y-89659870D01*
X107152100Y-89739058D01*
X106980039Y-89854024D01*
X106833721Y-90000342D01*
X106718755Y-90172403D01*
X106639567Y-90363579D01*
X106639565Y-90363587D01*
X106599197Y-90566530D01*
X106599197Y-90773469D01*
X106636592Y-90961465D01*
X106639567Y-90976420D01*
X106669735Y-91049253D01*
X106679145Y-91071969D01*
X106681282Y-91091846D01*
X106688268Y-91110576D01*
X106684940Y-91125872D01*
X106686614Y-91141438D01*
X106677665Y-91159315D01*
X106673416Y-91178849D01*
X106656730Y-91201137D01*
X106655339Y-91203918D01*
X106652265Y-91207103D01*
X106538040Y-91321328D01*
X106476717Y-91354813D01*
X106407025Y-91349829D01*
X106351092Y-91307957D01*
X106326675Y-91242493D01*
X106330584Y-91201557D01*
X106348001Y-91136558D01*
X106348001Y-90978444D01*
X106307078Y-90825717D01*
X106285171Y-90787773D01*
X106228025Y-90688791D01*
X106228019Y-90688783D01*
X106116218Y-90576982D01*
X106116210Y-90576976D01*
X105972247Y-90493860D01*
X105973457Y-90491763D01*
X105928624Y-90455641D01*
X105906553Y-90389348D01*
X105923826Y-90321647D01*
X105942789Y-90297233D01*
X107112592Y-89127430D01*
X107173915Y-89093946D01*
X107243607Y-89098930D01*
X107247720Y-89100548D01*
X107343277Y-89140130D01*
X107475452Y-89166421D01*
X107546227Y-89180499D01*
X107546231Y-89180500D01*
X107546232Y-89180500D01*
X107753163Y-89180500D01*
X107753164Y-89180499D01*
X107956117Y-89140130D01*
X108147295Y-89060941D01*
X108319352Y-88945977D01*
X108465674Y-88799655D01*
X108580638Y-88627598D01*
X108659827Y-88436420D01*
X108700197Y-88233465D01*
X108700197Y-88026535D01*
X108659827Y-87823580D01*
X108580638Y-87632402D01*
X108465674Y-87460345D01*
X108465672Y-87460342D01*
X108319354Y-87314024D01*
X108153000Y-87202871D01*
X108147295Y-87199059D01*
X108147290Y-87199057D01*
X108059684Y-87162769D01*
X107982587Y-87130834D01*
X107928185Y-87086994D01*
X107906120Y-87020700D01*
X107923399Y-86953001D01*
X107974536Y-86905390D01*
X107991723Y-86898343D01*
X108167914Y-86841095D01*
X108357254Y-86744620D01*
X108529156Y-86619727D01*
X108529161Y-86619723D01*
X108679420Y-86469464D01*
X108679424Y-86469459D01*
X108804317Y-86297557D01*
X108900792Y-86108217D01*
X108966454Y-85906129D01*
X108966454Y-85906126D01*
X108976928Y-85840000D01*
X108082709Y-85840000D01*
X108115622Y-85782993D01*
X108149697Y-85655826D01*
X108149697Y-85524174D01*
X108115622Y-85397007D01*
X108082709Y-85340000D01*
X108976928Y-85340000D01*
X108966454Y-85273873D01*
X108966454Y-85273870D01*
X108900792Y-85071782D01*
X108804317Y-84882442D01*
X108679424Y-84710540D01*
X108679420Y-84710535D01*
X108529161Y-84560276D01*
X108529156Y-84560272D01*
X108357254Y-84435379D01*
X108163576Y-84336694D01*
X108164093Y-84335678D01*
X108113889Y-84295221D01*
X108091824Y-84228927D01*
X108109103Y-84161228D01*
X108160239Y-84113617D01*
X108215745Y-84100500D01*
X108519447Y-84100500D01*
X108519448Y-84100499D01*
X108534265Y-84097552D01*
X108577926Y-84088868D01*
X108577926Y-84088867D01*
X108577928Y-84088867D01*
X108644249Y-84044552D01*
X108688564Y-83978231D01*
X108688564Y-83978229D01*
X108688565Y-83978229D01*
X108700196Y-83919752D01*
X108700197Y-83919750D01*
X108700197Y-82508189D01*
X108719882Y-82441150D01*
X108772686Y-82395395D01*
X108841844Y-82385451D01*
X108905400Y-82414476D01*
G37*
%TD.AperFunction*%
%TA.AperFunction,Conductor*%
G36*
X97012281Y-84529185D02*
G01*
X97058036Y-84581989D01*
X97067980Y-84651147D01*
X97038955Y-84714703D01*
X97032923Y-84721181D01*
X96920923Y-84833181D01*
X96859600Y-84866666D01*
X96833242Y-84869500D01*
X96670943Y-84869500D01*
X96518216Y-84910423D01*
X96518209Y-84910426D01*
X96381290Y-84989475D01*
X96381282Y-84989481D01*
X96269481Y-85101282D01*
X96269475Y-85101290D01*
X96190426Y-85238209D01*
X96190423Y-85238216D01*
X96149500Y-85390943D01*
X96149500Y-85549057D01*
X96169628Y-85624173D01*
X96190423Y-85701783D01*
X96190426Y-85701790D01*
X96269475Y-85838709D01*
X96269479Y-85838714D01*
X96269480Y-85838716D01*
X96381284Y-85950520D01*
X96381286Y-85950521D01*
X96381290Y-85950524D01*
X96502866Y-86020715D01*
X96518216Y-86029577D01*
X96670943Y-86070500D01*
X96670945Y-86070500D01*
X96829054Y-86070500D01*
X96829057Y-86070500D01*
X96981784Y-86029577D01*
X96981788Y-86029574D01*
X96989500Y-86027508D01*
X97059350Y-86029171D01*
X97109275Y-86059602D01*
X97387492Y-86337819D01*
X97396978Y-86355193D01*
X97410515Y-86369638D01*
X97413380Y-86385229D01*
X97420977Y-86399142D01*
X97419564Y-86418886D01*
X97423143Y-86438358D01*
X97417123Y-86453023D01*
X97415993Y-86468834D01*
X97404130Y-86484680D01*
X97396613Y-86502995D01*
X97383619Y-86512078D01*
X97374121Y-86524767D01*
X97355575Y-86531684D01*
X97339349Y-86543028D01*
X97314065Y-86547166D01*
X97308657Y-86549184D01*
X97304636Y-86549406D01*
X97302222Y-86549500D01*
X97135252Y-86549500D01*
X97094603Y-86557585D01*
X97084825Y-86557966D01*
X97075739Y-86555678D01*
X97055812Y-86555678D01*
X97024749Y-86549500D01*
X97024748Y-86549500D01*
X96635252Y-86549500D01*
X96635251Y-86549500D01*
X96604188Y-86555678D01*
X96555812Y-86555678D01*
X96524749Y-86549500D01*
X96524748Y-86549500D01*
X96135252Y-86549500D01*
X96135247Y-86549500D01*
X96076770Y-86561131D01*
X96076769Y-86561132D01*
X96010447Y-86605447D01*
X95966132Y-86671769D01*
X95966131Y-86671770D01*
X95954500Y-86730247D01*
X95954500Y-88938811D01*
X95934815Y-89005850D01*
X95918181Y-89026492D01*
X93460492Y-91484181D01*
X93399169Y-91517666D01*
X93372811Y-91520500D01*
X93076825Y-91520500D01*
X93009786Y-91500815D01*
X92964031Y-91448011D01*
X92954087Y-91378853D01*
X92973723Y-91327610D01*
X93080637Y-91167600D01*
X93080637Y-91167599D01*
X93080638Y-91167598D01*
X93159827Y-90976420D01*
X93200197Y-90773465D01*
X93200197Y-90566535D01*
X93159827Y-90363580D01*
X93080638Y-90172402D01*
X92965674Y-90000345D01*
X92965672Y-90000342D01*
X92819354Y-89854024D01*
X92724502Y-89790647D01*
X92647295Y-89739059D01*
X92633792Y-89733466D01*
X92456117Y-89659870D01*
X92456109Y-89659868D01*
X92253166Y-89619500D01*
X92253162Y-89619500D01*
X92046232Y-89619500D01*
X92046227Y-89619500D01*
X91843284Y-89659868D01*
X91843272Y-89659871D01*
X91747725Y-89699448D01*
X91678256Y-89706917D01*
X91615777Y-89675641D01*
X91612592Y-89672568D01*
X91335516Y-89395492D01*
X91302031Y-89334169D01*
X91299197Y-89307811D01*
X91299197Y-89057128D01*
X91318882Y-88990089D01*
X91371686Y-88944334D01*
X91440844Y-88934390D01*
X91492087Y-88954026D01*
X91652097Y-89060940D01*
X91652098Y-89060940D01*
X91652099Y-89060941D01*
X91843277Y-89140130D01*
X91975452Y-89166421D01*
X92046227Y-89180499D01*
X92046231Y-89180500D01*
X92046232Y-89180500D01*
X92253163Y-89180500D01*
X92253164Y-89180499D01*
X92456117Y-89140130D01*
X92647295Y-89060941D01*
X92819352Y-88945977D01*
X92965674Y-88799655D01*
X93080638Y-88627598D01*
X93159827Y-88436420D01*
X93200197Y-88233465D01*
X93200197Y-88026535D01*
X93159827Y-87823580D01*
X93080638Y-87632402D01*
X92965674Y-87460345D01*
X92965672Y-87460342D01*
X92819354Y-87314024D01*
X92653000Y-87202871D01*
X92647295Y-87199059D01*
X92647290Y-87199057D01*
X92456117Y-87119870D01*
X92456109Y-87119868D01*
X92253166Y-87079500D01*
X92253162Y-87079500D01*
X92046232Y-87079500D01*
X92046227Y-87079500D01*
X91843284Y-87119868D01*
X91843276Y-87119870D01*
X91652100Y-87199058D01*
X91492087Y-87305974D01*
X91425409Y-87326851D01*
X91358029Y-87308366D01*
X91311340Y-87256387D01*
X91299197Y-87202871D01*
X91299197Y-86517128D01*
X91318882Y-86450089D01*
X91371686Y-86404334D01*
X91440844Y-86394390D01*
X91492087Y-86414026D01*
X91652097Y-86520940D01*
X91652098Y-86520940D01*
X91652099Y-86520941D01*
X91843277Y-86600130D01*
X92020859Y-86635453D01*
X92046227Y-86640499D01*
X92046231Y-86640500D01*
X92046232Y-86640500D01*
X92253163Y-86640500D01*
X92253164Y-86640499D01*
X92456117Y-86600130D01*
X92647295Y-86520941D01*
X92819352Y-86405977D01*
X92965674Y-86259655D01*
X93080638Y-86087598D01*
X93132643Y-85962046D01*
X93176484Y-85907644D01*
X93242778Y-85885579D01*
X93247204Y-85885500D01*
X94702851Y-85885500D01*
X94702853Y-85885500D01*
X94785639Y-85863318D01*
X94859862Y-85820465D01*
X96134508Y-84545819D01*
X96195831Y-84512334D01*
X96222189Y-84509500D01*
X96945242Y-84509500D01*
X97012281Y-84529185D01*
G37*
%TD.AperFunction*%
%TA.AperFunction,Conductor*%
G36*
X103742391Y-81677738D02*
G01*
X103764480Y-81679318D01*
X103775263Y-81687390D01*
X103788185Y-81691185D01*
X103802684Y-81707918D01*
X103820413Y-81721190D01*
X103825120Y-81733810D01*
X103833940Y-81743989D01*
X103837091Y-81765906D01*
X103844830Y-81786654D01*
X103841967Y-81799814D01*
X103843884Y-81813147D01*
X103834684Y-81833290D01*
X103829978Y-81854927D01*
X103816709Y-81872652D01*
X103814859Y-81876703D01*
X103808827Y-81883181D01*
X103727321Y-81964686D01*
X103727314Y-81964695D01*
X103643717Y-82106051D01*
X103643716Y-82106054D01*
X103597900Y-82263752D01*
X103597899Y-82263758D01*
X103595000Y-82300598D01*
X103595000Y-82703748D01*
X105195000Y-82703748D01*
X105195000Y-82300613D01*
X105194999Y-82300598D01*
X105192100Y-82263758D01*
X105192099Y-82263752D01*
X105146283Y-82106054D01*
X105146282Y-82106051D01*
X105062685Y-81964695D01*
X105062678Y-81964686D01*
X104981173Y-81883181D01*
X104947688Y-81821858D01*
X104952672Y-81752166D01*
X104994544Y-81696233D01*
X105060008Y-81671816D01*
X105068854Y-81671500D01*
X108111508Y-81671500D01*
X108140948Y-81680144D01*
X108170935Y-81686668D01*
X108175950Y-81690422D01*
X108178547Y-81691185D01*
X108199189Y-81707819D01*
X108279189Y-81787819D01*
X108312674Y-81849142D01*
X108307690Y-81918834D01*
X108265818Y-81974767D01*
X108200354Y-81999184D01*
X108191508Y-81999500D01*
X106779944Y-81999500D01*
X106721467Y-82011131D01*
X106721466Y-82011132D01*
X106655144Y-82055447D01*
X106610829Y-82121769D01*
X106610828Y-82121770D01*
X106599197Y-82180247D01*
X106599197Y-83919752D01*
X106610828Y-83978229D01*
X106610829Y-83978230D01*
X106655144Y-84044552D01*
X106721466Y-84088867D01*
X106721467Y-84088868D01*
X106779944Y-84100499D01*
X106779947Y-84100500D01*
X107083649Y-84100500D01*
X107150688Y-84120185D01*
X107196443Y-84172989D01*
X107206387Y-84242147D01*
X107177362Y-84305703D01*
X107135432Y-84335938D01*
X107135818Y-84336694D01*
X106942139Y-84435379D01*
X106770237Y-84560272D01*
X106770232Y-84560276D01*
X106619973Y-84710535D01*
X106619969Y-84710540D01*
X106495076Y-84882442D01*
X106398601Y-85071782D01*
X106332939Y-85273870D01*
X106332939Y-85273873D01*
X106322466Y-85340000D01*
X107216685Y-85340000D01*
X107183772Y-85397007D01*
X107149697Y-85524174D01*
X107149697Y-85655826D01*
X107183772Y-85782993D01*
X107216685Y-85840000D01*
X106322466Y-85840000D01*
X106332939Y-85906126D01*
X106332939Y-85906129D01*
X106398601Y-86108217D01*
X106495076Y-86297557D01*
X106619969Y-86469459D01*
X106619973Y-86469464D01*
X106770232Y-86619723D01*
X106770237Y-86619727D01*
X106942139Y-86744620D01*
X107131479Y-86841095D01*
X107307670Y-86898343D01*
X107365345Y-86937780D01*
X107392544Y-87002139D01*
X107380629Y-87070985D01*
X107333385Y-87122461D01*
X107316805Y-87130835D01*
X107152100Y-87199057D01*
X106980039Y-87314024D01*
X106833721Y-87460342D01*
X106718755Y-87632403D01*
X106639567Y-87823579D01*
X106639565Y-87823587D01*
X106599197Y-88026530D01*
X106599197Y-88233469D01*
X106639565Y-88436412D01*
X106639567Y-88436420D01*
X106664581Y-88496810D01*
X106679145Y-88531969D01*
X106686614Y-88601438D01*
X106655339Y-88663918D01*
X106652265Y-88667103D01*
X104520189Y-90799181D01*
X104458866Y-90832666D01*
X104432508Y-90835500D01*
X103878922Y-90835500D01*
X103811883Y-90815815D01*
X103766128Y-90763011D01*
X103756184Y-90693853D01*
X103756449Y-90692103D01*
X103760499Y-90666525D01*
X103760500Y-90666519D01*
X103760499Y-90053482D01*
X103745646Y-89959696D01*
X103694498Y-89859314D01*
X103681603Y-89790647D01*
X103707879Y-89725906D01*
X103740084Y-89698796D01*
X103739989Y-89698669D01*
X103742228Y-89696992D01*
X103745565Y-89694184D01*
X103747098Y-89693346D01*
X103862187Y-89607190D01*
X103862190Y-89607187D01*
X103948350Y-89492093D01*
X103948354Y-89492086D01*
X103998596Y-89357379D01*
X103998598Y-89357372D01*
X104004999Y-89297844D01*
X104005000Y-89297827D01*
X104005000Y-88175000D01*
X103454000Y-88175000D01*
X103445314Y-88172449D01*
X103436353Y-88173738D01*
X103412312Y-88162759D01*
X103386961Y-88155315D01*
X103381033Y-88148474D01*
X103372797Y-88144713D01*
X103358507Y-88122478D01*
X103341206Y-88102511D01*
X103338918Y-88091996D01*
X103335023Y-88085935D01*
X103330000Y-88051000D01*
X103330000Y-87949000D01*
X103349685Y-87881961D01*
X103402489Y-87836206D01*
X103454000Y-87825000D01*
X104005000Y-87825000D01*
X104005000Y-86702172D01*
X104004999Y-86702155D01*
X103998598Y-86642627D01*
X103998596Y-86642620D01*
X103948354Y-86507913D01*
X103948350Y-86507906D01*
X103862190Y-86392812D01*
X103862187Y-86392809D01*
X103747093Y-86306649D01*
X103747086Y-86306645D01*
X103612379Y-86256403D01*
X103612373Y-86256401D01*
X103609614Y-86256105D01*
X103607618Y-86255278D01*
X103604832Y-86254620D01*
X103604938Y-86254168D01*
X103545064Y-86229366D01*
X103505217Y-86171972D01*
X103502725Y-86102147D01*
X103535189Y-86045137D01*
X103705465Y-85874862D01*
X103712130Y-85863318D01*
X103748318Y-85800638D01*
X103755766Y-85772839D01*
X103792128Y-85713180D01*
X103800514Y-85706413D01*
X103801479Y-85705447D01*
X103801483Y-85705446D01*
X103884198Y-85622731D01*
X103935573Y-85517641D01*
X103945500Y-85449508D01*
X103945500Y-84296264D01*
X103965185Y-84229225D01*
X104017989Y-84183470D01*
X104087147Y-84173526D01*
X104104095Y-84177187D01*
X104142514Y-84188348D01*
X104142511Y-84188348D01*
X104144998Y-84188543D01*
X104145000Y-84188543D01*
X104645000Y-84188543D01*
X104645001Y-84188543D01*
X104647486Y-84188348D01*
X104805198Y-84142529D01*
X104946552Y-84058933D01*
X104946561Y-84058926D01*
X105062678Y-83942809D01*
X105062685Y-83942800D01*
X105146282Y-83801444D01*
X105146283Y-83801441D01*
X105192099Y-83643743D01*
X105192100Y-83643737D01*
X105194999Y-83606897D01*
X105195000Y-83606882D01*
X105195000Y-83203748D01*
X104645000Y-83203748D01*
X104645000Y-84188543D01*
X104145000Y-84188543D01*
X104145000Y-83203748D01*
X103595000Y-83203748D01*
X103595000Y-83606897D01*
X103597899Y-83643737D01*
X103597900Y-83643743D01*
X103623586Y-83732153D01*
X103623387Y-83802023D01*
X103585445Y-83860693D01*
X103521806Y-83889536D01*
X103504510Y-83890748D01*
X103261739Y-83890748D01*
X103193608Y-83900674D01*
X103088514Y-83952051D01*
X103005803Y-84034762D01*
X102954426Y-84139856D01*
X102944500Y-84207987D01*
X102944500Y-85449508D01*
X102954426Y-85517640D01*
X102954426Y-85517641D01*
X102977143Y-85564109D01*
X102988901Y-85632982D01*
X102961558Y-85697279D01*
X102953423Y-85706249D01*
X102569537Y-86090135D01*
X102569535Y-86090138D01*
X102526682Y-86164359D01*
X102504500Y-86247147D01*
X102504500Y-86425500D01*
X102501949Y-86434185D01*
X102503238Y-86443147D01*
X102492259Y-86467187D01*
X102484815Y-86492539D01*
X102477974Y-86498466D01*
X102474213Y-86506703D01*
X102451978Y-86520992D01*
X102432011Y-86538294D01*
X102421496Y-86540581D01*
X102415435Y-86544477D01*
X102380500Y-86549500D01*
X102279500Y-86549500D01*
X102212461Y-86529815D01*
X102166706Y-86477011D01*
X102155500Y-86425500D01*
X102155500Y-85167149D01*
X102155500Y-85167147D01*
X102133318Y-85084362D01*
X102100803Y-85028044D01*
X102090469Y-85010144D01*
X102090463Y-85010136D01*
X101631818Y-84551491D01*
X101598333Y-84490168D01*
X101595499Y-84463810D01*
X101595499Y-84068482D01*
X101593987Y-84058933D01*
X101580646Y-83974696D01*
X101523050Y-83861658D01*
X101523046Y-83861654D01*
X101523045Y-83861652D01*
X101433347Y-83771954D01*
X101433344Y-83771952D01*
X101433342Y-83771950D01*
X101355236Y-83732153D01*
X101320301Y-83714352D01*
X101226524Y-83699500D01*
X100613482Y-83699500D01*
X100532519Y-83712323D01*
X100519696Y-83714354D01*
X100468117Y-83740635D01*
X100406653Y-83771952D01*
X100401647Y-83775590D01*
X100335839Y-83799066D01*
X100267786Y-83783237D01*
X100241086Y-83762949D01*
X99446674Y-82968537D01*
X99446672Y-82968535D01*
X99399713Y-82941423D01*
X99372450Y-82925682D01*
X99342176Y-82917570D01*
X99311214Y-82909274D01*
X99251554Y-82872910D01*
X99221025Y-82810063D01*
X99229320Y-82740688D01*
X99273805Y-82686810D01*
X99340357Y-82665535D01*
X99343308Y-82665500D01*
X99783811Y-82665500D01*
X99850850Y-82685185D01*
X99871492Y-82701819D01*
X100210138Y-83040465D01*
X100262311Y-83070587D01*
X100284362Y-83083319D01*
X100289920Y-83084808D01*
X100345509Y-83116902D01*
X100406652Y-83178045D01*
X100406654Y-83178046D01*
X100406658Y-83178050D01*
X100519694Y-83235645D01*
X100519698Y-83235647D01*
X100613475Y-83250499D01*
X100613481Y-83250500D01*
X101226518Y-83250499D01*
X101320304Y-83235646D01*
X101433342Y-83178050D01*
X101523050Y-83088342D01*
X101546049Y-83043203D01*
X101556497Y-83032140D01*
X101562820Y-83018297D01*
X101580000Y-83007255D01*
X101594023Y-82992409D01*
X101609702Y-82988167D01*
X101621598Y-82980523D01*
X101656533Y-82975500D01*
X101870500Y-82975500D01*
X101937539Y-82995185D01*
X101983294Y-83047989D01*
X101994500Y-83099500D01*
X101994500Y-83574508D01*
X102004426Y-83642639D01*
X102055803Y-83747733D01*
X102138514Y-83830444D01*
X102138515Y-83830444D01*
X102138517Y-83830446D01*
X102243607Y-83881821D01*
X102277673Y-83886784D01*
X102311739Y-83891748D01*
X102311740Y-83891748D01*
X102678261Y-83891748D01*
X102700971Y-83888439D01*
X102746393Y-83881821D01*
X102851483Y-83830446D01*
X102934198Y-83747731D01*
X102985573Y-83642641D01*
X102995500Y-83574508D01*
X102995500Y-82332988D01*
X102993531Y-82319477D01*
X102985573Y-82264856D01*
X102985573Y-82264855D01*
X102934198Y-82159765D01*
X102934196Y-82159763D01*
X102934196Y-82159762D01*
X102851485Y-82077051D01*
X102746391Y-82025674D01*
X102678261Y-82015748D01*
X102678260Y-82015748D01*
X102311740Y-82015748D01*
X102311739Y-82015748D01*
X102243608Y-82025674D01*
X102138514Y-82077051D01*
X102055803Y-82159762D01*
X102037755Y-82196681D01*
X102009263Y-82254961D01*
X101998318Y-82266940D01*
X101991577Y-82281703D01*
X101975236Y-82292204D01*
X101962137Y-82306542D01*
X101945841Y-82311094D01*
X101932799Y-82319477D01*
X101897864Y-82324500D01*
X101656533Y-82324500D01*
X101589494Y-82304815D01*
X101546049Y-82256796D01*
X101523050Y-82211658D01*
X101523046Y-82211654D01*
X101523045Y-82211652D01*
X101433347Y-82121954D01*
X101433344Y-82121952D01*
X101433342Y-82121950D01*
X101345221Y-82077050D01*
X101320301Y-82064352D01*
X101226524Y-82049500D01*
X100613482Y-82049500D01*
X100532519Y-82062323D01*
X100519696Y-82064354D01*
X100406658Y-82121950D01*
X100406657Y-82121951D01*
X100406652Y-82121954D01*
X100397148Y-82131459D01*
X100335825Y-82164944D01*
X100266133Y-82159960D01*
X100221786Y-82131459D01*
X100169864Y-82079537D01*
X100169862Y-82079535D01*
X100132750Y-82058108D01*
X100095640Y-82036682D01*
X100054246Y-82025591D01*
X100012853Y-82014500D01*
X100012852Y-82014500D01*
X96818861Y-82014500D01*
X96751822Y-81994815D01*
X96706067Y-81942011D01*
X96697291Y-81908130D01*
X96696262Y-81908294D01*
X96681470Y-81814897D01*
X96690425Y-81745604D01*
X96735421Y-81692152D01*
X96802173Y-81671513D01*
X96803943Y-81671500D01*
X103721146Y-81671500D01*
X103742391Y-81677738D01*
G37*
%TD.AperFunction*%
%TA.AperFunction,Conductor*%
G36*
X116416117Y-87559010D02*
G01*
X116439819Y-87577256D01*
X116447219Y-87580030D01*
X116459748Y-87592599D01*
X116466762Y-87597998D01*
X116471161Y-87603736D01*
X116472137Y-87605026D01*
X116552685Y-87712979D01*
X116554844Y-87715964D01*
X116989125Y-88335596D01*
X116990107Y-88337018D01*
X117072284Y-88457815D01*
X117074249Y-88460795D01*
X117164048Y-88601332D01*
X117476486Y-89090302D01*
X117477414Y-89091779D01*
X117510394Y-89145124D01*
X117559246Y-89224141D01*
X117561012Y-89227089D01*
X117640047Y-89363269D01*
X117921828Y-89848794D01*
X117938454Y-89916657D01*
X117915751Y-89982735D01*
X117894287Y-90006025D01*
X117246050Y-90549960D01*
X117246040Y-90549970D01*
X117243731Y-90552561D01*
X117184424Y-90589500D01*
X117114561Y-90588511D01*
X117111121Y-90587392D01*
X117012064Y-90553581D01*
X117012067Y-90553581D01*
X116851189Y-90539506D01*
X116691615Y-90564341D01*
X116542626Y-90626642D01*
X116487386Y-90665045D01*
X116331228Y-90796078D01*
X116267219Y-90824090D01*
X116198227Y-90813051D01*
X116146156Y-90766464D01*
X116127538Y-90699121D01*
X116127994Y-90690278D01*
X116128124Y-90688791D01*
X116128490Y-90684611D01*
X116099238Y-90557910D01*
X116054676Y-90483745D01*
X116049115Y-90474489D01*
X116049110Y-90474483D01*
X116036943Y-90459983D01*
X115635614Y-89981699D01*
X115313372Y-89597666D01*
X115313371Y-89597665D01*
X115259740Y-89551043D01*
X115239918Y-89533811D01*
X115239912Y-89533808D01*
X115120225Y-89483002D01*
X115120218Y-89483001D01*
X114990686Y-89471668D01*
X114990684Y-89471669D01*
X114990683Y-89471669D01*
X114863982Y-89500921D01*
X114863980Y-89500921D01*
X114863980Y-89500922D01*
X114780566Y-89551041D01*
X114780564Y-89551042D01*
X114780559Y-89551046D01*
X114130321Y-90096661D01*
X114095522Y-90125861D01*
X114031513Y-90153873D01*
X113962521Y-90142834D01*
X113910450Y-90096247D01*
X113891832Y-90028904D01*
X113912577Y-89962185D01*
X113928132Y-89943193D01*
X114352339Y-89518986D01*
X114352342Y-89518985D01*
X114412945Y-89458382D01*
X114449797Y-89394552D01*
X114455798Y-89384159D01*
X114455799Y-89384154D01*
X114459867Y-89377112D01*
X114461360Y-89377974D01*
X114489318Y-89339838D01*
X114994694Y-88915779D01*
X115042463Y-88862183D01*
X115091976Y-88750701D01*
X115102607Y-88629183D01*
X115102006Y-88626763D01*
X115102150Y-88623341D01*
X115101806Y-88618940D01*
X115102337Y-88618898D01*
X115104951Y-88556956D01*
X115145169Y-88499822D01*
X115209892Y-88473501D01*
X115233152Y-88473346D01*
X115260058Y-88475700D01*
X115260058Y-88475699D01*
X115260059Y-88475700D01*
X115332072Y-88457815D01*
X115383302Y-88445092D01*
X115446887Y-88405805D01*
X116145688Y-87819442D01*
X116195420Y-87763645D01*
X116246963Y-87647588D01*
X116246963Y-87647583D01*
X116248289Y-87642451D01*
X116284104Y-87582459D01*
X116346668Y-87551353D01*
X116416117Y-87559010D01*
G37*
%TD.AperFunction*%
%TA.AperFunction,Conductor*%
G36*
X98227773Y-84936752D02*
G01*
X98248415Y-84953386D01*
X98493181Y-85198152D01*
X98526666Y-85259475D01*
X98529500Y-85285833D01*
X98529500Y-86174138D01*
X98509815Y-86241177D01*
X98505000Y-86247152D01*
X98505000Y-86575986D01*
X98502579Y-86584230D01*
X98503865Y-86592728D01*
X98487073Y-86637035D01*
X98485315Y-86643025D01*
X98484553Y-86643684D01*
X98484102Y-86644877D01*
X98466133Y-86671769D01*
X98466131Y-86671773D01*
X98454500Y-86730247D01*
X98454500Y-87876000D01*
X98451949Y-87884685D01*
X98453238Y-87893647D01*
X98442259Y-87917687D01*
X98434815Y-87943039D01*
X98427974Y-87948966D01*
X98424213Y-87957203D01*
X98401978Y-87971492D01*
X98382011Y-87988794D01*
X98371496Y-87991081D01*
X98365435Y-87994977D01*
X98330500Y-88000000D01*
X98329500Y-88000000D01*
X98262461Y-87980315D01*
X98216706Y-87927511D01*
X98205500Y-87876000D01*
X98205500Y-86730249D01*
X98205499Y-86730247D01*
X98193868Y-86671773D01*
X98193867Y-86671770D01*
X98193867Y-86671769D01*
X98176396Y-86645622D01*
X98173497Y-86636362D01*
X98167088Y-86629075D01*
X98163228Y-86603565D01*
X98155520Y-86578947D01*
X98155500Y-86576734D01*
X98155500Y-86272854D01*
X98155000Y-86265224D01*
X98155000Y-86239574D01*
X98137147Y-86208652D01*
X98137108Y-86208508D01*
X98134872Y-86200160D01*
X98133318Y-86194361D01*
X98090465Y-86120138D01*
X97374867Y-85404540D01*
X97341382Y-85343217D01*
X97346366Y-85273525D01*
X97374863Y-85229183D01*
X97650662Y-84953383D01*
X97711984Y-84919901D01*
X97738342Y-84917067D01*
X98160734Y-84917067D01*
X98227773Y-84936752D01*
G37*
%TD.AperFunction*%
%TD*%
M02*
