%TF.GenerationSoftware,KiCad,Pcbnew,9.0.0*%
%TF.CreationDate,2025-06-05T22:29:36+02:00*%
%TF.ProjectId,SI4684,53493436-3834-42e6-9b69-6361645f7063,A*%
%TF.SameCoordinates,Original*%
%TF.FileFunction,Legend,Bot*%
%TF.FilePolarity,Positive*%
%FSLAX46Y46*%
G04 Gerber Fmt 4.6, Leading zero omitted, Abs format (unit mm)*
G04 Created by KiCad (PCBNEW 9.0.0) date 2025-06-05 22:29:36*
%MOMM*%
%LPD*%
G01*
G04 APERTURE LIST*
%ADD10C,0.150000*%
%ADD11C,0.120000*%
%ADD12C,0.254000*%
G04 APERTURE END LIST*
D10*
X99152857Y-92654819D02*
X99486190Y-92178628D01*
X99724285Y-92654819D02*
X99724285Y-91654819D01*
X99724285Y-91654819D02*
X99343333Y-91654819D01*
X99343333Y-91654819D02*
X99248095Y-91702438D01*
X99248095Y-91702438D02*
X99200476Y-91750057D01*
X99200476Y-91750057D02*
X99152857Y-91845295D01*
X99152857Y-91845295D02*
X99152857Y-91988152D01*
X99152857Y-91988152D02*
X99200476Y-92083390D01*
X99200476Y-92083390D02*
X99248095Y-92131009D01*
X99248095Y-92131009D02*
X99343333Y-92178628D01*
X99343333Y-92178628D02*
X99724285Y-92178628D01*
X98819523Y-91654819D02*
X98200476Y-91654819D01*
X98200476Y-91654819D02*
X98533809Y-92035771D01*
X98533809Y-92035771D02*
X98390952Y-92035771D01*
X98390952Y-92035771D02*
X98295714Y-92083390D01*
X98295714Y-92083390D02*
X98248095Y-92131009D01*
X98248095Y-92131009D02*
X98200476Y-92226247D01*
X98200476Y-92226247D02*
X98200476Y-92464342D01*
X98200476Y-92464342D02*
X98248095Y-92559580D01*
X98248095Y-92559580D02*
X98295714Y-92607200D01*
X98295714Y-92607200D02*
X98390952Y-92654819D01*
X98390952Y-92654819D02*
X98676666Y-92654819D01*
X98676666Y-92654819D02*
X98771904Y-92607200D01*
X98771904Y-92607200D02*
X98819523Y-92559580D01*
X97343333Y-91988152D02*
X97343333Y-92654819D01*
X97581428Y-91607200D02*
X97819523Y-92321485D01*
X97819523Y-92321485D02*
X97200476Y-92321485D01*
X101554094Y-85426819D02*
X101554094Y-86236342D01*
X101554094Y-86236342D02*
X101506475Y-86331580D01*
X101506475Y-86331580D02*
X101458856Y-86379200D01*
X101458856Y-86379200D02*
X101363618Y-86426819D01*
X101363618Y-86426819D02*
X101173142Y-86426819D01*
X101173142Y-86426819D02*
X101077904Y-86379200D01*
X101077904Y-86379200D02*
X101030285Y-86331580D01*
X101030285Y-86331580D02*
X100982666Y-86236342D01*
X100982666Y-86236342D02*
X100982666Y-85426819D01*
X99982666Y-86426819D02*
X100554094Y-86426819D01*
X100268380Y-86426819D02*
X100268380Y-85426819D01*
X100268380Y-85426819D02*
X100363618Y-85569676D01*
X100363618Y-85569676D02*
X100458856Y-85664914D01*
X100458856Y-85664914D02*
X100554094Y-85712533D01*
X99649332Y-85426819D02*
X99030285Y-85426819D01*
X99030285Y-85426819D02*
X99363618Y-85807771D01*
X99363618Y-85807771D02*
X99220761Y-85807771D01*
X99220761Y-85807771D02*
X99125523Y-85855390D01*
X99125523Y-85855390D02*
X99077904Y-85903009D01*
X99077904Y-85903009D02*
X99030285Y-85998247D01*
X99030285Y-85998247D02*
X99030285Y-86236342D01*
X99030285Y-86236342D02*
X99077904Y-86331580D01*
X99077904Y-86331580D02*
X99125523Y-86379200D01*
X99125523Y-86379200D02*
X99220761Y-86426819D01*
X99220761Y-86426819D02*
X99506475Y-86426819D01*
X99506475Y-86426819D02*
X99601713Y-86379200D01*
X99601713Y-86379200D02*
X99649332Y-86331580D01*
X103044285Y-86204819D02*
X103615713Y-86204819D01*
X103329999Y-86204819D02*
X103329999Y-85204819D01*
X103329999Y-85204819D02*
X103425237Y-85347676D01*
X103425237Y-85347676D02*
X103520475Y-85442914D01*
X103520475Y-85442914D02*
X103615713Y-85490533D01*
X96320476Y-86254819D02*
X96891904Y-86254819D01*
X96606190Y-86254819D02*
X96606190Y-85254819D01*
X96606190Y-85254819D02*
X96701428Y-85397676D01*
X96701428Y-85397676D02*
X96796666Y-85492914D01*
X96796666Y-85492914D02*
X96891904Y-85540533D01*
X95415714Y-85254819D02*
X95891904Y-85254819D01*
X95891904Y-85254819D02*
X95939523Y-85731009D01*
X95939523Y-85731009D02*
X95891904Y-85683390D01*
X95891904Y-85683390D02*
X95796666Y-85635771D01*
X95796666Y-85635771D02*
X95558571Y-85635771D01*
X95558571Y-85635771D02*
X95463333Y-85683390D01*
X95463333Y-85683390D02*
X95415714Y-85731009D01*
X95415714Y-85731009D02*
X95368095Y-85826247D01*
X95368095Y-85826247D02*
X95368095Y-86064342D01*
X95368095Y-86064342D02*
X95415714Y-86159580D01*
X95415714Y-86159580D02*
X95463333Y-86207200D01*
X95463333Y-86207200D02*
X95558571Y-86254819D01*
X95558571Y-86254819D02*
X95796666Y-86254819D01*
X95796666Y-86254819D02*
X95891904Y-86207200D01*
X95891904Y-86207200D02*
X95939523Y-86159580D01*
X102977857Y-92244819D02*
X103311190Y-91768628D01*
X103549285Y-92244819D02*
X103549285Y-91244819D01*
X103549285Y-91244819D02*
X103168333Y-91244819D01*
X103168333Y-91244819D02*
X103073095Y-91292438D01*
X103073095Y-91292438D02*
X103025476Y-91340057D01*
X103025476Y-91340057D02*
X102977857Y-91435295D01*
X102977857Y-91435295D02*
X102977857Y-91578152D01*
X102977857Y-91578152D02*
X103025476Y-91673390D01*
X103025476Y-91673390D02*
X103073095Y-91721009D01*
X103073095Y-91721009D02*
X103168333Y-91768628D01*
X103168333Y-91768628D02*
X103549285Y-91768628D01*
X102596904Y-91340057D02*
X102549285Y-91292438D01*
X102549285Y-91292438D02*
X102454047Y-91244819D01*
X102454047Y-91244819D02*
X102215952Y-91244819D01*
X102215952Y-91244819D02*
X102120714Y-91292438D01*
X102120714Y-91292438D02*
X102073095Y-91340057D01*
X102073095Y-91340057D02*
X102025476Y-91435295D01*
X102025476Y-91435295D02*
X102025476Y-91530533D01*
X102025476Y-91530533D02*
X102073095Y-91673390D01*
X102073095Y-91673390D02*
X102644523Y-92244819D01*
X102644523Y-92244819D02*
X102025476Y-92244819D01*
X101644523Y-91340057D02*
X101596904Y-91292438D01*
X101596904Y-91292438D02*
X101501666Y-91244819D01*
X101501666Y-91244819D02*
X101263571Y-91244819D01*
X101263571Y-91244819D02*
X101168333Y-91292438D01*
X101168333Y-91292438D02*
X101120714Y-91340057D01*
X101120714Y-91340057D02*
X101073095Y-91435295D01*
X101073095Y-91435295D02*
X101073095Y-91530533D01*
X101073095Y-91530533D02*
X101120714Y-91673390D01*
X101120714Y-91673390D02*
X101692142Y-92244819D01*
X101692142Y-92244819D02*
X101073095Y-92244819D01*
X95044819Y-80667142D02*
X94568628Y-80333809D01*
X95044819Y-80095714D02*
X94044819Y-80095714D01*
X94044819Y-80095714D02*
X94044819Y-80476666D01*
X94044819Y-80476666D02*
X94092438Y-80571904D01*
X94092438Y-80571904D02*
X94140057Y-80619523D01*
X94140057Y-80619523D02*
X94235295Y-80667142D01*
X94235295Y-80667142D02*
X94378152Y-80667142D01*
X94378152Y-80667142D02*
X94473390Y-80619523D01*
X94473390Y-80619523D02*
X94521009Y-80571904D01*
X94521009Y-80571904D02*
X94568628Y-80476666D01*
X94568628Y-80476666D02*
X94568628Y-80095714D01*
X95044819Y-81619523D02*
X95044819Y-81048095D01*
X95044819Y-81333809D02*
X94044819Y-81333809D01*
X94044819Y-81333809D02*
X94187676Y-81238571D01*
X94187676Y-81238571D02*
X94282914Y-81143333D01*
X94282914Y-81143333D02*
X94330533Y-81048095D01*
X95044819Y-82095714D02*
X95044819Y-82286190D01*
X95044819Y-82286190D02*
X94997200Y-82381428D01*
X94997200Y-82381428D02*
X94949580Y-82429047D01*
X94949580Y-82429047D02*
X94806723Y-82524285D01*
X94806723Y-82524285D02*
X94616247Y-82571904D01*
X94616247Y-82571904D02*
X94235295Y-82571904D01*
X94235295Y-82571904D02*
X94140057Y-82524285D01*
X94140057Y-82524285D02*
X94092438Y-82476666D01*
X94092438Y-82476666D02*
X94044819Y-82381428D01*
X94044819Y-82381428D02*
X94044819Y-82190952D01*
X94044819Y-82190952D02*
X94092438Y-82095714D01*
X94092438Y-82095714D02*
X94140057Y-82048095D01*
X94140057Y-82048095D02*
X94235295Y-82000476D01*
X94235295Y-82000476D02*
X94473390Y-82000476D01*
X94473390Y-82000476D02*
X94568628Y-82048095D01*
X94568628Y-82048095D02*
X94616247Y-82095714D01*
X94616247Y-82095714D02*
X94663866Y-82190952D01*
X94663866Y-82190952D02*
X94663866Y-82381428D01*
X94663866Y-82381428D02*
X94616247Y-82476666D01*
X94616247Y-82476666D02*
X94568628Y-82524285D01*
X94568628Y-82524285D02*
X94473390Y-82571904D01*
X99944819Y-82832142D02*
X99468628Y-82498809D01*
X99944819Y-82260714D02*
X98944819Y-82260714D01*
X98944819Y-82260714D02*
X98944819Y-82641666D01*
X98944819Y-82641666D02*
X98992438Y-82736904D01*
X98992438Y-82736904D02*
X99040057Y-82784523D01*
X99040057Y-82784523D02*
X99135295Y-82832142D01*
X99135295Y-82832142D02*
X99278152Y-82832142D01*
X99278152Y-82832142D02*
X99373390Y-82784523D01*
X99373390Y-82784523D02*
X99421009Y-82736904D01*
X99421009Y-82736904D02*
X99468628Y-82641666D01*
X99468628Y-82641666D02*
X99468628Y-82260714D01*
X99944819Y-83784523D02*
X99944819Y-83213095D01*
X99944819Y-83498809D02*
X98944819Y-83498809D01*
X98944819Y-83498809D02*
X99087676Y-83403571D01*
X99087676Y-83403571D02*
X99182914Y-83308333D01*
X99182914Y-83308333D02*
X99230533Y-83213095D01*
X99373390Y-84355952D02*
X99325771Y-84260714D01*
X99325771Y-84260714D02*
X99278152Y-84213095D01*
X99278152Y-84213095D02*
X99182914Y-84165476D01*
X99182914Y-84165476D02*
X99135295Y-84165476D01*
X99135295Y-84165476D02*
X99040057Y-84213095D01*
X99040057Y-84213095D02*
X98992438Y-84260714D01*
X98992438Y-84260714D02*
X98944819Y-84355952D01*
X98944819Y-84355952D02*
X98944819Y-84546428D01*
X98944819Y-84546428D02*
X98992438Y-84641666D01*
X98992438Y-84641666D02*
X99040057Y-84689285D01*
X99040057Y-84689285D02*
X99135295Y-84736904D01*
X99135295Y-84736904D02*
X99182914Y-84736904D01*
X99182914Y-84736904D02*
X99278152Y-84689285D01*
X99278152Y-84689285D02*
X99325771Y-84641666D01*
X99325771Y-84641666D02*
X99373390Y-84546428D01*
X99373390Y-84546428D02*
X99373390Y-84355952D01*
X99373390Y-84355952D02*
X99421009Y-84260714D01*
X99421009Y-84260714D02*
X99468628Y-84213095D01*
X99468628Y-84213095D02*
X99563866Y-84165476D01*
X99563866Y-84165476D02*
X99754342Y-84165476D01*
X99754342Y-84165476D02*
X99849580Y-84213095D01*
X99849580Y-84213095D02*
X99897200Y-84260714D01*
X99897200Y-84260714D02*
X99944819Y-84355952D01*
X99944819Y-84355952D02*
X99944819Y-84546428D01*
X99944819Y-84546428D02*
X99897200Y-84641666D01*
X99897200Y-84641666D02*
X99849580Y-84689285D01*
X99849580Y-84689285D02*
X99754342Y-84736904D01*
X99754342Y-84736904D02*
X99563866Y-84736904D01*
X99563866Y-84736904D02*
X99468628Y-84689285D01*
X99468628Y-84689285D02*
X99421009Y-84641666D01*
X99421009Y-84641666D02*
X99373390Y-84546428D01*
X104510057Y-80844761D02*
X104462438Y-80749523D01*
X104462438Y-80749523D02*
X104367200Y-80654285D01*
X104367200Y-80654285D02*
X104224342Y-80511428D01*
X104224342Y-80511428D02*
X104176723Y-80416190D01*
X104176723Y-80416190D02*
X104176723Y-80320952D01*
X104414819Y-80368571D02*
X104367200Y-80273333D01*
X104367200Y-80273333D02*
X104271961Y-80178095D01*
X104271961Y-80178095D02*
X104081485Y-80130476D01*
X104081485Y-80130476D02*
X103748152Y-80130476D01*
X103748152Y-80130476D02*
X103557676Y-80178095D01*
X103557676Y-80178095D02*
X103462438Y-80273333D01*
X103462438Y-80273333D02*
X103414819Y-80368571D01*
X103414819Y-80368571D02*
X103414819Y-80559047D01*
X103414819Y-80559047D02*
X103462438Y-80654285D01*
X103462438Y-80654285D02*
X103557676Y-80749523D01*
X103557676Y-80749523D02*
X103748152Y-80797142D01*
X103748152Y-80797142D02*
X104081485Y-80797142D01*
X104081485Y-80797142D02*
X104271961Y-80749523D01*
X104271961Y-80749523D02*
X104367200Y-80654285D01*
X104367200Y-80654285D02*
X104414819Y-80559047D01*
X104414819Y-80559047D02*
X104414819Y-80368571D01*
X103510057Y-81178095D02*
X103462438Y-81225714D01*
X103462438Y-81225714D02*
X103414819Y-81320952D01*
X103414819Y-81320952D02*
X103414819Y-81559047D01*
X103414819Y-81559047D02*
X103462438Y-81654285D01*
X103462438Y-81654285D02*
X103510057Y-81701904D01*
X103510057Y-81701904D02*
X103605295Y-81749523D01*
X103605295Y-81749523D02*
X103700533Y-81749523D01*
X103700533Y-81749523D02*
X103843390Y-81701904D01*
X103843390Y-81701904D02*
X104414819Y-81130476D01*
X104414819Y-81130476D02*
X104414819Y-81749523D01*
X108366688Y-113666925D02*
X107954295Y-113905020D01*
X108592024Y-113866741D02*
X107803349Y-113167383D01*
X107803349Y-113167383D02*
X108014674Y-114200075D01*
X107725999Y-114366741D02*
X107225999Y-113500716D01*
X107225999Y-113500716D02*
X107231127Y-114652456D01*
X107231127Y-114652456D02*
X106731127Y-113786430D01*
X106442452Y-113953097D02*
X105947580Y-114238811D01*
X106695016Y-114961980D02*
X106195016Y-114095954D01*
X105705273Y-115533408D02*
X106200144Y-115247694D01*
X105952708Y-115390551D02*
X105452708Y-114524526D01*
X105452708Y-114524526D02*
X105606616Y-114600625D01*
X105606616Y-114600625D02*
X105736713Y-114635484D01*
X105736713Y-114635484D02*
X105843001Y-114629104D01*
X89721100Y-117979311D02*
X89573572Y-117949122D01*
X89573572Y-117949122D02*
X89367376Y-117830075D01*
X89367376Y-117830075D02*
X89308707Y-117741216D01*
X89308707Y-117741216D02*
X89291277Y-117676167D01*
X89291277Y-117676167D02*
X89297656Y-117569879D01*
X89297656Y-117569879D02*
X89345276Y-117487401D01*
X89345276Y-117487401D02*
X89434134Y-117428732D01*
X89434134Y-117428732D02*
X89499183Y-117411302D01*
X89499183Y-117411302D02*
X89605471Y-117417682D01*
X89605471Y-117417682D02*
X89794238Y-117471680D01*
X89794238Y-117471680D02*
X89900526Y-117478060D01*
X89900526Y-117478060D02*
X89965575Y-117460630D01*
X89965575Y-117460630D02*
X90054433Y-117401961D01*
X90054433Y-117401961D02*
X90102052Y-117319483D01*
X90102052Y-117319483D02*
X90108432Y-117213194D01*
X90108432Y-117213194D02*
X90091002Y-117148146D01*
X90091002Y-117148146D02*
X90032333Y-117059287D01*
X90032333Y-117059287D02*
X89826136Y-116940240D01*
X89826136Y-116940240D02*
X89678609Y-116910050D01*
X89413743Y-116702144D02*
X88707547Y-117449122D01*
X88707547Y-117449122D02*
X88899732Y-116735294D01*
X88899732Y-116735294D02*
X88377632Y-117258646D01*
X88377632Y-117258646D02*
X88671436Y-116273573D01*
X87803701Y-116157486D02*
X87470368Y-116734837D01*
X88200374Y-115946619D02*
X88049427Y-116684257D01*
X88049427Y-116684257D02*
X87513316Y-116374733D01*
X109439342Y-117109068D02*
X108939342Y-116243043D01*
X108939342Y-116243043D02*
X108733145Y-116362090D01*
X108733145Y-116362090D02*
X108633237Y-116474758D01*
X108633237Y-116474758D02*
X108598377Y-116604856D01*
X108598377Y-116604856D02*
X108604757Y-116711144D01*
X108604757Y-116711144D02*
X108658756Y-116899911D01*
X108658756Y-116899911D02*
X108730184Y-117023629D01*
X108730184Y-117023629D02*
X108866662Y-117164776D01*
X108866662Y-117164776D02*
X108955520Y-117223445D01*
X108955520Y-117223445D02*
X109085618Y-117258305D01*
X109085618Y-117258305D02*
X109233145Y-117228116D01*
X109233145Y-117228116D02*
X109439342Y-117109068D01*
X108119684Y-117870973D02*
X108614556Y-117585258D01*
X108367120Y-117728116D02*
X107867120Y-116862090D01*
X107867120Y-116862090D02*
X108021027Y-116938189D01*
X108021027Y-116938189D02*
X108151125Y-116973049D01*
X108151125Y-116973049D02*
X108257413Y-116966669D01*
X93914819Y-96306666D02*
X94629104Y-96306666D01*
X94629104Y-96306666D02*
X94771961Y-96259047D01*
X94771961Y-96259047D02*
X94867200Y-96163809D01*
X94867200Y-96163809D02*
X94914819Y-96020952D01*
X94914819Y-96020952D02*
X94914819Y-95925714D01*
X94914819Y-97306666D02*
X94914819Y-96735238D01*
X94914819Y-97020952D02*
X93914819Y-97020952D01*
X93914819Y-97020952D02*
X94057676Y-96925714D01*
X94057676Y-96925714D02*
X94152914Y-96830476D01*
X94152914Y-96830476D02*
X94200533Y-96735238D01*
X116628147Y-90982067D02*
X116499842Y-90903241D01*
X116499842Y-90903241D02*
X116346797Y-90720849D01*
X116346797Y-90720849D02*
X116322058Y-90617284D01*
X116322058Y-90617284D02*
X116327927Y-90550196D01*
X116327927Y-90550196D02*
X116370275Y-90452500D01*
X116370275Y-90452500D02*
X116443231Y-90391282D01*
X116443231Y-90391282D02*
X116546797Y-90366543D01*
X116546797Y-90366543D02*
X116613884Y-90372412D01*
X116613884Y-90372412D02*
X116711580Y-90414760D01*
X116711580Y-90414760D02*
X116870494Y-90530064D01*
X116870494Y-90530064D02*
X116968191Y-90572412D01*
X116968191Y-90572412D02*
X117035278Y-90578281D01*
X117035278Y-90578281D02*
X117138843Y-90553542D01*
X117138843Y-90553542D02*
X117211800Y-90492324D01*
X117211800Y-90492324D02*
X117254148Y-90394628D01*
X117254148Y-90394628D02*
X117260017Y-90327540D01*
X117260017Y-90327540D02*
X117235277Y-90223975D01*
X117235277Y-90223975D02*
X117082233Y-90041583D01*
X117082233Y-90041583D02*
X116953928Y-89962757D01*
X116776143Y-89676800D02*
X115857054Y-90137196D01*
X115857054Y-90137196D02*
X116281793Y-89532149D01*
X116281793Y-89532149D02*
X115612183Y-89845370D01*
X115612183Y-89845370D02*
X116225183Y-89020191D01*
X115674222Y-88363581D02*
X115980311Y-88728364D01*
X115980311Y-88728364D02*
X115646137Y-89070932D01*
X115646137Y-89070932D02*
X115652006Y-89003845D01*
X115652006Y-89003845D02*
X115627267Y-88900279D01*
X115627267Y-88900279D02*
X115474222Y-88717888D01*
X115474222Y-88717888D02*
X115376526Y-88675540D01*
X115376526Y-88675540D02*
X115309439Y-88669671D01*
X115309439Y-88669671D02*
X115205873Y-88694410D01*
X115205873Y-88694410D02*
X115023482Y-88847455D01*
X115023482Y-88847455D02*
X114981134Y-88945151D01*
X114981134Y-88945151D02*
X114975265Y-89012238D01*
X114975265Y-89012238D02*
X115000004Y-89115804D01*
X115000004Y-89115804D02*
X115153049Y-89298195D01*
X115153049Y-89298195D02*
X115250745Y-89340543D01*
X115250745Y-89340543D02*
X115317832Y-89346412D01*
X81190819Y-99051905D02*
X82000342Y-99051905D01*
X82000342Y-99051905D02*
X82095580Y-99099524D01*
X82095580Y-99099524D02*
X82143200Y-99147143D01*
X82143200Y-99147143D02*
X82190819Y-99242381D01*
X82190819Y-99242381D02*
X82190819Y-99432857D01*
X82190819Y-99432857D02*
X82143200Y-99528095D01*
X82143200Y-99528095D02*
X82095580Y-99575714D01*
X82095580Y-99575714D02*
X82000342Y-99623333D01*
X82000342Y-99623333D02*
X81190819Y-99623333D01*
X82190819Y-100623333D02*
X82190819Y-100051905D01*
X82190819Y-100337619D02*
X81190819Y-100337619D01*
X81190819Y-100337619D02*
X81333676Y-100242381D01*
X81333676Y-100242381D02*
X81428914Y-100147143D01*
X81428914Y-100147143D02*
X81476533Y-100051905D01*
X81286057Y-101004286D02*
X81238438Y-101051905D01*
X81238438Y-101051905D02*
X81190819Y-101147143D01*
X81190819Y-101147143D02*
X81190819Y-101385238D01*
X81190819Y-101385238D02*
X81238438Y-101480476D01*
X81238438Y-101480476D02*
X81286057Y-101528095D01*
X81286057Y-101528095D02*
X81381295Y-101575714D01*
X81381295Y-101575714D02*
X81476533Y-101575714D01*
X81476533Y-101575714D02*
X81619390Y-101528095D01*
X81619390Y-101528095D02*
X82190819Y-100956667D01*
X82190819Y-100956667D02*
X82190819Y-101575714D01*
X110684819Y-91003722D02*
X110208628Y-90670389D01*
X110684819Y-90432294D02*
X109684819Y-90432294D01*
X109684819Y-90432294D02*
X109684819Y-90813246D01*
X109684819Y-90813246D02*
X109732438Y-90908484D01*
X109732438Y-90908484D02*
X109780057Y-90956103D01*
X109780057Y-90956103D02*
X109875295Y-91003722D01*
X109875295Y-91003722D02*
X110018152Y-91003722D01*
X110018152Y-91003722D02*
X110113390Y-90956103D01*
X110113390Y-90956103D02*
X110161009Y-90908484D01*
X110161009Y-90908484D02*
X110208628Y-90813246D01*
X110208628Y-90813246D02*
X110208628Y-90432294D01*
X109780057Y-91384675D02*
X109732438Y-91432294D01*
X109732438Y-91432294D02*
X109684819Y-91527532D01*
X109684819Y-91527532D02*
X109684819Y-91765627D01*
X109684819Y-91765627D02*
X109732438Y-91860865D01*
X109732438Y-91860865D02*
X109780057Y-91908484D01*
X109780057Y-91908484D02*
X109875295Y-91956103D01*
X109875295Y-91956103D02*
X109970533Y-91956103D01*
X109970533Y-91956103D02*
X110113390Y-91908484D01*
X110113390Y-91908484D02*
X110684819Y-91337056D01*
X110684819Y-91337056D02*
X110684819Y-91956103D01*
X110113390Y-92527532D02*
X110065771Y-92432294D01*
X110065771Y-92432294D02*
X110018152Y-92384675D01*
X110018152Y-92384675D02*
X109922914Y-92337056D01*
X109922914Y-92337056D02*
X109875295Y-92337056D01*
X109875295Y-92337056D02*
X109780057Y-92384675D01*
X109780057Y-92384675D02*
X109732438Y-92432294D01*
X109732438Y-92432294D02*
X109684819Y-92527532D01*
X109684819Y-92527532D02*
X109684819Y-92718008D01*
X109684819Y-92718008D02*
X109732438Y-92813246D01*
X109732438Y-92813246D02*
X109780057Y-92860865D01*
X109780057Y-92860865D02*
X109875295Y-92908484D01*
X109875295Y-92908484D02*
X109922914Y-92908484D01*
X109922914Y-92908484D02*
X110018152Y-92860865D01*
X110018152Y-92860865D02*
X110065771Y-92813246D01*
X110065771Y-92813246D02*
X110113390Y-92718008D01*
X110113390Y-92718008D02*
X110113390Y-92527532D01*
X110113390Y-92527532D02*
X110161009Y-92432294D01*
X110161009Y-92432294D02*
X110208628Y-92384675D01*
X110208628Y-92384675D02*
X110303866Y-92337056D01*
X110303866Y-92337056D02*
X110494342Y-92337056D01*
X110494342Y-92337056D02*
X110589580Y-92384675D01*
X110589580Y-92384675D02*
X110637200Y-92432294D01*
X110637200Y-92432294D02*
X110684819Y-92527532D01*
X110684819Y-92527532D02*
X110684819Y-92718008D01*
X110684819Y-92718008D02*
X110637200Y-92813246D01*
X110637200Y-92813246D02*
X110589580Y-92860865D01*
X110589580Y-92860865D02*
X110494342Y-92908484D01*
X110494342Y-92908484D02*
X110303866Y-92908484D01*
X110303866Y-92908484D02*
X110208628Y-92860865D01*
X110208628Y-92860865D02*
X110161009Y-92813246D01*
X110161009Y-92813246D02*
X110113390Y-92718008D01*
X117809311Y-109468899D02*
X117779122Y-109616427D01*
X117779122Y-109616427D02*
X117660075Y-109822623D01*
X117660075Y-109822623D02*
X117571216Y-109881292D01*
X117571216Y-109881292D02*
X117506167Y-109898722D01*
X117506167Y-109898722D02*
X117399879Y-109892343D01*
X117399879Y-109892343D02*
X117317401Y-109844723D01*
X117317401Y-109844723D02*
X117258732Y-109755865D01*
X117258732Y-109755865D02*
X117241302Y-109690816D01*
X117241302Y-109690816D02*
X117247682Y-109584528D01*
X117247682Y-109584528D02*
X117301680Y-109395761D01*
X117301680Y-109395761D02*
X117308060Y-109289473D01*
X117308060Y-109289473D02*
X117290630Y-109224424D01*
X117290630Y-109224424D02*
X117231961Y-109135566D01*
X117231961Y-109135566D02*
X117149483Y-109087947D01*
X117149483Y-109087947D02*
X117043194Y-109081567D01*
X117043194Y-109081567D02*
X116978146Y-109098997D01*
X116978146Y-109098997D02*
X116889287Y-109157666D01*
X116889287Y-109157666D02*
X116770240Y-109363863D01*
X116770240Y-109363863D02*
X116740050Y-109511390D01*
X116532144Y-109776256D02*
X117279122Y-110482452D01*
X117279122Y-110482452D02*
X116565294Y-110290267D01*
X116565294Y-110290267D02*
X117088646Y-110812367D01*
X117088646Y-110812367D02*
X116103573Y-110518563D01*
X115698811Y-111219631D02*
X115794049Y-111054674D01*
X115794049Y-111054674D02*
X115882908Y-110996005D01*
X115882908Y-110996005D02*
X115947956Y-110978575D01*
X115947956Y-110978575D02*
X116119293Y-110967525D01*
X116119293Y-110967525D02*
X116308060Y-111021524D01*
X116308060Y-111021524D02*
X116637975Y-111212000D01*
X116637975Y-111212000D02*
X116696644Y-111300859D01*
X116696644Y-111300859D02*
X116714073Y-111365907D01*
X116714073Y-111365907D02*
X116707694Y-111472195D01*
X116707694Y-111472195D02*
X116612456Y-111637153D01*
X116612456Y-111637153D02*
X116523597Y-111695822D01*
X116523597Y-111695822D02*
X116458548Y-111713252D01*
X116458548Y-111713252D02*
X116352260Y-111706872D01*
X116352260Y-111706872D02*
X116146064Y-111587824D01*
X116146064Y-111587824D02*
X116087395Y-111498966D01*
X116087395Y-111498966D02*
X116069965Y-111433917D01*
X116069965Y-111433917D02*
X116076345Y-111327629D01*
X116076345Y-111327629D02*
X116171583Y-111162672D01*
X116171583Y-111162672D02*
X116260441Y-111104003D01*
X116260441Y-111104003D02*
X116325490Y-111086573D01*
X116325490Y-111086573D02*
X116431778Y-111092953D01*
X112369819Y-104847142D02*
X111893628Y-104513809D01*
X112369819Y-104275714D02*
X111369819Y-104275714D01*
X111369819Y-104275714D02*
X111369819Y-104656666D01*
X111369819Y-104656666D02*
X111417438Y-104751904D01*
X111417438Y-104751904D02*
X111465057Y-104799523D01*
X111465057Y-104799523D02*
X111560295Y-104847142D01*
X111560295Y-104847142D02*
X111703152Y-104847142D01*
X111703152Y-104847142D02*
X111798390Y-104799523D01*
X111798390Y-104799523D02*
X111846009Y-104751904D01*
X111846009Y-104751904D02*
X111893628Y-104656666D01*
X111893628Y-104656666D02*
X111893628Y-104275714D01*
X111465057Y-105228095D02*
X111417438Y-105275714D01*
X111417438Y-105275714D02*
X111369819Y-105370952D01*
X111369819Y-105370952D02*
X111369819Y-105609047D01*
X111369819Y-105609047D02*
X111417438Y-105704285D01*
X111417438Y-105704285D02*
X111465057Y-105751904D01*
X111465057Y-105751904D02*
X111560295Y-105799523D01*
X111560295Y-105799523D02*
X111655533Y-105799523D01*
X111655533Y-105799523D02*
X111798390Y-105751904D01*
X111798390Y-105751904D02*
X112369819Y-105180476D01*
X112369819Y-105180476D02*
X112369819Y-105799523D01*
X112369819Y-106275714D02*
X112369819Y-106466190D01*
X112369819Y-106466190D02*
X112322200Y-106561428D01*
X112322200Y-106561428D02*
X112274580Y-106609047D01*
X112274580Y-106609047D02*
X112131723Y-106704285D01*
X112131723Y-106704285D02*
X111941247Y-106751904D01*
X111941247Y-106751904D02*
X111560295Y-106751904D01*
X111560295Y-106751904D02*
X111465057Y-106704285D01*
X111465057Y-106704285D02*
X111417438Y-106656666D01*
X111417438Y-106656666D02*
X111369819Y-106561428D01*
X111369819Y-106561428D02*
X111369819Y-106370952D01*
X111369819Y-106370952D02*
X111417438Y-106275714D01*
X111417438Y-106275714D02*
X111465057Y-106228095D01*
X111465057Y-106228095D02*
X111560295Y-106180476D01*
X111560295Y-106180476D02*
X111798390Y-106180476D01*
X111798390Y-106180476D02*
X111893628Y-106228095D01*
X111893628Y-106228095D02*
X111941247Y-106275714D01*
X111941247Y-106275714D02*
X111988866Y-106370952D01*
X111988866Y-106370952D02*
X111988866Y-106561428D01*
X111988866Y-106561428D02*
X111941247Y-106656666D01*
X111941247Y-106656666D02*
X111893628Y-106704285D01*
X111893628Y-106704285D02*
X111798390Y-106751904D01*
X97094819Y-82656666D02*
X97809104Y-82656666D01*
X97809104Y-82656666D02*
X97951961Y-82609047D01*
X97951961Y-82609047D02*
X98047200Y-82513809D01*
X98047200Y-82513809D02*
X98094819Y-82370952D01*
X98094819Y-82370952D02*
X98094819Y-82275714D01*
X97094819Y-83037619D02*
X97094819Y-83704285D01*
X97094819Y-83704285D02*
X98094819Y-83275714D01*
X115436663Y-99361969D02*
X116150948Y-99361969D01*
X116150948Y-99361969D02*
X116293805Y-99314350D01*
X116293805Y-99314350D02*
X116389044Y-99219112D01*
X116389044Y-99219112D02*
X116436663Y-99076255D01*
X116436663Y-99076255D02*
X116436663Y-98981017D01*
X115436663Y-100266731D02*
X115436663Y-100076255D01*
X115436663Y-100076255D02*
X115484282Y-99981017D01*
X115484282Y-99981017D02*
X115531901Y-99933398D01*
X115531901Y-99933398D02*
X115674758Y-99838160D01*
X115674758Y-99838160D02*
X115865234Y-99790541D01*
X115865234Y-99790541D02*
X116246186Y-99790541D01*
X116246186Y-99790541D02*
X116341424Y-99838160D01*
X116341424Y-99838160D02*
X116389044Y-99885779D01*
X116389044Y-99885779D02*
X116436663Y-99981017D01*
X116436663Y-99981017D02*
X116436663Y-100171493D01*
X116436663Y-100171493D02*
X116389044Y-100266731D01*
X116389044Y-100266731D02*
X116341424Y-100314350D01*
X116341424Y-100314350D02*
X116246186Y-100361969D01*
X116246186Y-100361969D02*
X116008091Y-100361969D01*
X116008091Y-100361969D02*
X115912853Y-100314350D01*
X115912853Y-100314350D02*
X115865234Y-100266731D01*
X115865234Y-100266731D02*
X115817615Y-100171493D01*
X115817615Y-100171493D02*
X115817615Y-99981017D01*
X115817615Y-99981017D02*
X115865234Y-99885779D01*
X115865234Y-99885779D02*
X115912853Y-99838160D01*
X115912853Y-99838160D02*
X116008091Y-99790541D01*
X146574663Y-105776969D02*
X147288948Y-105776969D01*
X147288948Y-105776969D02*
X147431805Y-105729350D01*
X147431805Y-105729350D02*
X147527044Y-105634112D01*
X147527044Y-105634112D02*
X147574663Y-105491255D01*
X147574663Y-105491255D02*
X147574663Y-105396017D01*
X146574663Y-106729350D02*
X146574663Y-106253160D01*
X146574663Y-106253160D02*
X147050853Y-106205541D01*
X147050853Y-106205541D02*
X147003234Y-106253160D01*
X147003234Y-106253160D02*
X146955615Y-106348398D01*
X146955615Y-106348398D02*
X146955615Y-106586493D01*
X146955615Y-106586493D02*
X147003234Y-106681731D01*
X147003234Y-106681731D02*
X147050853Y-106729350D01*
X147050853Y-106729350D02*
X147146091Y-106776969D01*
X147146091Y-106776969D02*
X147384186Y-106776969D01*
X147384186Y-106776969D02*
X147479424Y-106729350D01*
X147479424Y-106729350D02*
X147527044Y-106681731D01*
X147527044Y-106681731D02*
X147574663Y-106586493D01*
X147574663Y-106586493D02*
X147574663Y-106348398D01*
X147574663Y-106348398D02*
X147527044Y-106253160D01*
X147527044Y-106253160D02*
X147479424Y-106205541D01*
X91354819Y-110397142D02*
X90878628Y-110063809D01*
X91354819Y-109825714D02*
X90354819Y-109825714D01*
X90354819Y-109825714D02*
X90354819Y-110206666D01*
X90354819Y-110206666D02*
X90402438Y-110301904D01*
X90402438Y-110301904D02*
X90450057Y-110349523D01*
X90450057Y-110349523D02*
X90545295Y-110397142D01*
X90545295Y-110397142D02*
X90688152Y-110397142D01*
X90688152Y-110397142D02*
X90783390Y-110349523D01*
X90783390Y-110349523D02*
X90831009Y-110301904D01*
X90831009Y-110301904D02*
X90878628Y-110206666D01*
X90878628Y-110206666D02*
X90878628Y-109825714D01*
X90450057Y-110778095D02*
X90402438Y-110825714D01*
X90402438Y-110825714D02*
X90354819Y-110920952D01*
X90354819Y-110920952D02*
X90354819Y-111159047D01*
X90354819Y-111159047D02*
X90402438Y-111254285D01*
X90402438Y-111254285D02*
X90450057Y-111301904D01*
X90450057Y-111301904D02*
X90545295Y-111349523D01*
X90545295Y-111349523D02*
X90640533Y-111349523D01*
X90640533Y-111349523D02*
X90783390Y-111301904D01*
X90783390Y-111301904D02*
X91354819Y-110730476D01*
X91354819Y-110730476D02*
X91354819Y-111349523D01*
X90354819Y-111682857D02*
X90354819Y-112349523D01*
X90354819Y-112349523D02*
X91354819Y-111920952D01*
D11*
%TO.C,R34*%
X98832224Y-90347500D02*
X98322776Y-90347500D01*
X98832224Y-91392500D02*
X98322776Y-91392500D01*
D10*
%TO.C,U13*%
X105980000Y-78950000D02*
X105980000Y-85200000D01*
X105580000Y-78550000D02*
X94180000Y-78550000D01*
X105180000Y-86000000D02*
X105180000Y-88600000D01*
X103780000Y-88950000D02*
X104780000Y-88950000D01*
X94180000Y-88950000D02*
X95180000Y-88950000D01*
X93780000Y-78950000D02*
X93780000Y-88550000D01*
X105580000Y-78550000D02*
G75*
G02*
X105980000Y-78950000I1J-399999D01*
G01*
X105980000Y-85200000D02*
G75*
G02*
X105580000Y-85600000I-399999J-1D01*
G01*
X105180000Y-86000000D02*
G75*
G02*
X105580000Y-85600000I399999J1D01*
G01*
X105180000Y-88550000D02*
G75*
G02*
X104780000Y-88950000I-399999J-1D01*
G01*
X93780000Y-78950000D02*
G75*
G02*
X94180000Y-78550000I400000J0D01*
G01*
X94180000Y-88950000D02*
G75*
G02*
X93780000Y-88550000I0J400000D01*
G01*
D11*
%TO.C,R22*%
X102097742Y-90882500D02*
X102572258Y-90882500D01*
X102097742Y-89837500D02*
X102572258Y-89837500D01*
%TO.C,R19*%
X95497500Y-81072742D02*
X95497500Y-81547258D01*
X96542500Y-81072742D02*
X96542500Y-81547258D01*
%TO.C,R18*%
X100397500Y-83237742D02*
X100397500Y-83712258D01*
X101442500Y-83237742D02*
X101442500Y-83712258D01*
%TO.C,Q2*%
X101885000Y-83891248D02*
X101885000Y-83241248D01*
X101885000Y-83891248D02*
X101885000Y-84541248D01*
X105005000Y-83891248D02*
X105005000Y-83241248D01*
X105005000Y-83891248D02*
X105005000Y-84541248D01*
X101935000Y-82728748D02*
X101605000Y-82968748D01*
X101605000Y-82488748D01*
X101935000Y-82728748D01*
G36*
X101935000Y-82728748D02*
G01*
X101605000Y-82968748D01*
X101605000Y-82488748D01*
X101935000Y-82728748D01*
G37*
%TO.C,SW4*%
X87211338Y-115067539D02*
X87171337Y-115136820D01*
X88923967Y-114301179D02*
X87971338Y-113751179D01*
X91039171Y-117277538D02*
X90999170Y-117346819D01*
X91799170Y-115961179D02*
X90846542Y-115411180D01*
%TO.C,D1*%
X106915924Y-117434567D02*
X107715923Y-118820208D01*
X107715923Y-118820208D02*
X108504006Y-118365208D01*
X109429525Y-115348254D02*
X110504525Y-117210209D01*
X109716442Y-117665208D02*
X110504525Y-117210209D01*
X106709224Y-116976555D02*
X106543436Y-117349401D01*
X106303436Y-116933709D01*
X106709224Y-116976555D01*
G36*
X106709224Y-116976555D02*
G01*
X106543436Y-117349401D01*
X106303436Y-116933709D01*
X106709224Y-116976555D01*
G37*
%TO.C,J1*%
X95460000Y-95310000D02*
X95460000Y-96640000D01*
X96790000Y-95310000D02*
X95460000Y-95310000D01*
X98060000Y-95310000D02*
X98060000Y-97970000D01*
X98060000Y-95310000D02*
X103200000Y-95310000D01*
X98060000Y-97970000D02*
X103200000Y-97970000D01*
X103200000Y-95310000D02*
X103200000Y-97970000D01*
%TO.C,SW5*%
X113467441Y-89008722D02*
X114174506Y-89851373D01*
X114631829Y-88031686D02*
X114693112Y-87980262D01*
X115601496Y-91551990D02*
X116308563Y-92394640D01*
X117472950Y-91417602D02*
X117534233Y-91366178D01*
D12*
%TO.C,U12*%
X72050000Y-100290000D02*
X72050000Y-100232500D01*
X72050000Y-100353000D02*
X72050000Y-100290000D01*
X75450000Y-98634500D02*
X75450000Y-101945500D01*
X75697000Y-98039500D02*
X75906000Y-97830000D01*
X75746500Y-102660500D02*
X75796000Y-102710000D01*
X79233000Y-107536000D02*
X79400000Y-107536000D01*
X79337000Y-95149500D02*
X79354500Y-105459500D01*
X79354500Y-105459500D02*
X79718000Y-105459500D01*
X79676000Y-95150000D02*
X79343000Y-95150000D01*
X83819000Y-95150000D02*
X81481500Y-95150000D01*
X83819000Y-105460000D02*
X81481500Y-105460000D01*
X85581500Y-105460000D02*
X86496000Y-105460000D01*
X86496000Y-95150000D02*
X85581500Y-95150000D01*
X86496000Y-95250000D02*
X86496000Y-95150000D01*
X86496000Y-95409000D02*
X86496000Y-95250000D01*
X86496000Y-97934000D02*
X86496000Y-97171000D01*
X86496000Y-100884000D02*
X86496000Y-99696000D01*
X86496000Y-103409000D02*
X86496000Y-102646000D01*
X86496000Y-105460000D02*
X86496000Y-105171000D01*
X72050000Y-100232500D02*
G75*
G02*
X79246500Y-93036500I7196855J-855D01*
G01*
X75450000Y-98634500D02*
G75*
G02*
X75697000Y-98039500I845031J-2026D01*
G01*
X75925500Y-102803000D02*
G75*
G02*
X75450001Y-101945500I535390J857470D01*
G01*
X76832500Y-96891500D02*
G75*
G02*
X79300000Y-96090000I2467184J-3396502D01*
G01*
X79220500Y-93036500D02*
G75*
G02*
X83759500Y-94626000I-416J-7276755D01*
G01*
X79233000Y-107536000D02*
G75*
G02*
X72050000Y-100353000I0J7183000D01*
G01*
X79306000Y-104490000D02*
G75*
G02*
X76838500Y-103688500I918J4201803D01*
G01*
X83795000Y-105940500D02*
G75*
G02*
X79256000Y-107530000I-4539023J5686134D01*
G01*
X84986000Y-95610000D02*
G75*
G02*
X86252500Y-97987500I-5513768J-4463282D01*
G01*
X86182500Y-102526500D02*
G75*
G02*
X84916000Y-104904000I-6786160J2088920D01*
G01*
D11*
%TO.C,R28*%
X111260000Y-91928064D02*
X111260000Y-91473936D01*
X112730000Y-91928064D02*
X112730000Y-91473936D01*
%TO.C,SW6*%
X114209144Y-110208789D02*
X113659145Y-111161414D01*
X114975503Y-111921416D02*
X115044785Y-111961415D01*
X115869144Y-107333584D02*
X115319144Y-108286212D01*
X117185503Y-108093585D02*
X117254785Y-108133584D01*
%TO.C,R29*%
X113185000Y-106497064D02*
X113185000Y-106042936D01*
X114655000Y-106497064D02*
X114655000Y-106042936D01*
%TO.C,J7*%
X97595000Y-78840000D02*
X97595000Y-80170000D01*
X98925000Y-78840000D02*
X97595000Y-78840000D01*
X100195000Y-78840000D02*
X100195000Y-81500000D01*
X100195000Y-78840000D02*
X102795000Y-78840000D01*
X100195000Y-81500000D02*
X102795000Y-81500000D01*
X102795000Y-78840000D02*
X102795000Y-81500000D01*
%TO.C,J6*%
X106319697Y-84320000D02*
X106319697Y-99620000D01*
X108979697Y-81720000D02*
X107649697Y-81720000D01*
X108979697Y-83050000D02*
X108979697Y-81720000D01*
X108979697Y-84320000D02*
X106319697Y-84320000D01*
X108979697Y-84320000D02*
X108979697Y-99620000D01*
X108979697Y-99620000D02*
X106319697Y-99620000D01*
%TO.C,J5*%
X90819697Y-84320000D02*
X90819697Y-99620000D01*
X93479697Y-81720000D02*
X92149697Y-81720000D01*
X93479697Y-83050000D02*
X93479697Y-81720000D01*
X93479697Y-84320000D02*
X90819697Y-84320000D01*
X93479697Y-84320000D02*
X93479697Y-99620000D01*
X93479697Y-99620000D02*
X90819697Y-99620000D01*
%TO.C,R27*%
X88105000Y-111037936D02*
X88105000Y-111492064D01*
X89575000Y-111037936D02*
X89575000Y-111492064D01*
%TD*%
M02*
