%TF.GenerationSoftware,KiCad,Pcbnew,9.0.0*%
%TF.CreationDate,2025-06-05T22:29:36+02:00*%
%TF.ProjectId,SI4684,53493436-3834-42e6-9b69-6361645f7063,A*%
%TF.SameCoordinates,Original*%
%TF.FileFunction,Legend,Top*%
%TF.FilePolarity,Positive*%
%FSLAX46Y46*%
G04 Gerber Fmt 4.6, Leading zero omitted, Abs format (unit mm)*
G04 Created by KiCad (PCBNEW 9.0.0) date 2025-06-05 22:29:36*
%MOMM*%
%LPD*%
G01*
G04 APERTURE LIST*
%ADD10C,0.150000*%
%ADD11C,0.152000*%
%ADD12C,0.120000*%
%ADD13C,0.254000*%
G04 APERTURE END LIST*
D10*
X95857142Y-80799580D02*
X95809523Y-80847200D01*
X95809523Y-80847200D02*
X95666666Y-80894819D01*
X95666666Y-80894819D02*
X95571428Y-80894819D01*
X95571428Y-80894819D02*
X95428571Y-80847200D01*
X95428571Y-80847200D02*
X95333333Y-80751961D01*
X95333333Y-80751961D02*
X95285714Y-80656723D01*
X95285714Y-80656723D02*
X95238095Y-80466247D01*
X95238095Y-80466247D02*
X95238095Y-80323390D01*
X95238095Y-80323390D02*
X95285714Y-80132914D01*
X95285714Y-80132914D02*
X95333333Y-80037676D01*
X95333333Y-80037676D02*
X95428571Y-79942438D01*
X95428571Y-79942438D02*
X95571428Y-79894819D01*
X95571428Y-79894819D02*
X95666666Y-79894819D01*
X95666666Y-79894819D02*
X95809523Y-79942438D01*
X95809523Y-79942438D02*
X95857142Y-79990057D01*
X96238095Y-79990057D02*
X96285714Y-79942438D01*
X96285714Y-79942438D02*
X96380952Y-79894819D01*
X96380952Y-79894819D02*
X96619047Y-79894819D01*
X96619047Y-79894819D02*
X96714285Y-79942438D01*
X96714285Y-79942438D02*
X96761904Y-79990057D01*
X96761904Y-79990057D02*
X96809523Y-80085295D01*
X96809523Y-80085295D02*
X96809523Y-80180533D01*
X96809523Y-80180533D02*
X96761904Y-80323390D01*
X96761904Y-80323390D02*
X96190476Y-80894819D01*
X96190476Y-80894819D02*
X96809523Y-80894819D01*
X97666666Y-80228152D02*
X97666666Y-80894819D01*
X97428571Y-79847200D02*
X97190476Y-80561485D01*
X97190476Y-80561485D02*
X97809523Y-80561485D01*
X104647142Y-94164819D02*
X104313809Y-93688628D01*
X104075714Y-94164819D02*
X104075714Y-93164819D01*
X104075714Y-93164819D02*
X104456666Y-93164819D01*
X104456666Y-93164819D02*
X104551904Y-93212438D01*
X104551904Y-93212438D02*
X104599523Y-93260057D01*
X104599523Y-93260057D02*
X104647142Y-93355295D01*
X104647142Y-93355295D02*
X104647142Y-93498152D01*
X104647142Y-93498152D02*
X104599523Y-93593390D01*
X104599523Y-93593390D02*
X104551904Y-93641009D01*
X104551904Y-93641009D02*
X104456666Y-93688628D01*
X104456666Y-93688628D02*
X104075714Y-93688628D01*
X105599523Y-94164819D02*
X105028095Y-94164819D01*
X105313809Y-94164819D02*
X105313809Y-93164819D01*
X105313809Y-93164819D02*
X105218571Y-93307676D01*
X105218571Y-93307676D02*
X105123333Y-93402914D01*
X105123333Y-93402914D02*
X105028095Y-93450533D01*
X106456666Y-93498152D02*
X106456666Y-94164819D01*
X106218571Y-93117200D02*
X105980476Y-93831485D01*
X105980476Y-93831485D02*
X106599523Y-93831485D01*
D11*
X98882142Y-82937869D02*
X98882142Y-83863155D01*
X98882142Y-83863155D02*
X98936571Y-83972012D01*
X98936571Y-83972012D02*
X98991000Y-84026441D01*
X98991000Y-84026441D02*
X99099857Y-84080869D01*
X99099857Y-84080869D02*
X99317571Y-84080869D01*
X99317571Y-84080869D02*
X99426428Y-84026441D01*
X99426428Y-84026441D02*
X99480857Y-83972012D01*
X99480857Y-83972012D02*
X99535285Y-83863155D01*
X99535285Y-83863155D02*
X99535285Y-82937869D01*
X99970714Y-82937869D02*
X100732714Y-82937869D01*
X100732714Y-82937869D02*
X100242857Y-84080869D01*
D10*
X101229580Y-120356510D02*
X101277200Y-120404129D01*
X101277200Y-120404129D02*
X101324819Y-120546986D01*
X101324819Y-120546986D02*
X101324819Y-120642224D01*
X101324819Y-120642224D02*
X101277200Y-120785081D01*
X101277200Y-120785081D02*
X101181961Y-120880319D01*
X101181961Y-120880319D02*
X101086723Y-120927938D01*
X101086723Y-120927938D02*
X100896247Y-120975557D01*
X100896247Y-120975557D02*
X100753390Y-120975557D01*
X100753390Y-120975557D02*
X100562914Y-120927938D01*
X100562914Y-120927938D02*
X100467676Y-120880319D01*
X100467676Y-120880319D02*
X100372438Y-120785081D01*
X100372438Y-120785081D02*
X100324819Y-120642224D01*
X100324819Y-120642224D02*
X100324819Y-120546986D01*
X100324819Y-120546986D02*
X100372438Y-120404129D01*
X100372438Y-120404129D02*
X100420057Y-120356510D01*
X100324819Y-119451748D02*
X100324819Y-119927938D01*
X100324819Y-119927938D02*
X100801009Y-119975557D01*
X100801009Y-119975557D02*
X100753390Y-119927938D01*
X100753390Y-119927938D02*
X100705771Y-119832700D01*
X100705771Y-119832700D02*
X100705771Y-119594605D01*
X100705771Y-119594605D02*
X100753390Y-119499367D01*
X100753390Y-119499367D02*
X100801009Y-119451748D01*
X100801009Y-119451748D02*
X100896247Y-119404129D01*
X100896247Y-119404129D02*
X101134342Y-119404129D01*
X101134342Y-119404129D02*
X101229580Y-119451748D01*
X101229580Y-119451748D02*
X101277200Y-119499367D01*
X101277200Y-119499367D02*
X101324819Y-119594605D01*
X101324819Y-119594605D02*
X101324819Y-119832700D01*
X101324819Y-119832700D02*
X101277200Y-119927938D01*
X101277200Y-119927938D02*
X101229580Y-119975557D01*
X90312319Y-85671904D02*
X91121842Y-85671904D01*
X91121842Y-85671904D02*
X91217080Y-85624285D01*
X91217080Y-85624285D02*
X91264700Y-85576666D01*
X91264700Y-85576666D02*
X91312319Y-85481428D01*
X91312319Y-85481428D02*
X91312319Y-85290952D01*
X91312319Y-85290952D02*
X91264700Y-85195714D01*
X91264700Y-85195714D02*
X91217080Y-85148095D01*
X91217080Y-85148095D02*
X91121842Y-85100476D01*
X91121842Y-85100476D02*
X90312319Y-85100476D01*
X90407557Y-84671904D02*
X90359938Y-84624285D01*
X90359938Y-84624285D02*
X90312319Y-84529047D01*
X90312319Y-84529047D02*
X90312319Y-84290952D01*
X90312319Y-84290952D02*
X90359938Y-84195714D01*
X90359938Y-84195714D02*
X90407557Y-84148095D01*
X90407557Y-84148095D02*
X90502795Y-84100476D01*
X90502795Y-84100476D02*
X90598033Y-84100476D01*
X90598033Y-84100476D02*
X90740890Y-84148095D01*
X90740890Y-84148095D02*
X91312319Y-84719523D01*
X91312319Y-84719523D02*
X91312319Y-84100476D01*
X91109580Y-103430357D02*
X91157200Y-103477976D01*
X91157200Y-103477976D02*
X91204819Y-103620833D01*
X91204819Y-103620833D02*
X91204819Y-103716071D01*
X91204819Y-103716071D02*
X91157200Y-103858928D01*
X91157200Y-103858928D02*
X91061961Y-103954166D01*
X91061961Y-103954166D02*
X90966723Y-104001785D01*
X90966723Y-104001785D02*
X90776247Y-104049404D01*
X90776247Y-104049404D02*
X90633390Y-104049404D01*
X90633390Y-104049404D02*
X90442914Y-104001785D01*
X90442914Y-104001785D02*
X90347676Y-103954166D01*
X90347676Y-103954166D02*
X90252438Y-103858928D01*
X90252438Y-103858928D02*
X90204819Y-103716071D01*
X90204819Y-103716071D02*
X90204819Y-103620833D01*
X90204819Y-103620833D02*
X90252438Y-103477976D01*
X90252438Y-103477976D02*
X90300057Y-103430357D01*
X90300057Y-103049404D02*
X90252438Y-103001785D01*
X90252438Y-103001785D02*
X90204819Y-102906547D01*
X90204819Y-102906547D02*
X90204819Y-102668452D01*
X90204819Y-102668452D02*
X90252438Y-102573214D01*
X90252438Y-102573214D02*
X90300057Y-102525595D01*
X90300057Y-102525595D02*
X90395295Y-102477976D01*
X90395295Y-102477976D02*
X90490533Y-102477976D01*
X90490533Y-102477976D02*
X90633390Y-102525595D01*
X90633390Y-102525595D02*
X91204819Y-103097023D01*
X91204819Y-103097023D02*
X91204819Y-102477976D01*
X90633390Y-101906547D02*
X90585771Y-102001785D01*
X90585771Y-102001785D02*
X90538152Y-102049404D01*
X90538152Y-102049404D02*
X90442914Y-102097023D01*
X90442914Y-102097023D02*
X90395295Y-102097023D01*
X90395295Y-102097023D02*
X90300057Y-102049404D01*
X90300057Y-102049404D02*
X90252438Y-102001785D01*
X90252438Y-102001785D02*
X90204819Y-101906547D01*
X90204819Y-101906547D02*
X90204819Y-101716071D01*
X90204819Y-101716071D02*
X90252438Y-101620833D01*
X90252438Y-101620833D02*
X90300057Y-101573214D01*
X90300057Y-101573214D02*
X90395295Y-101525595D01*
X90395295Y-101525595D02*
X90442914Y-101525595D01*
X90442914Y-101525595D02*
X90538152Y-101573214D01*
X90538152Y-101573214D02*
X90585771Y-101620833D01*
X90585771Y-101620833D02*
X90633390Y-101716071D01*
X90633390Y-101716071D02*
X90633390Y-101906547D01*
X90633390Y-101906547D02*
X90681009Y-102001785D01*
X90681009Y-102001785D02*
X90728628Y-102049404D01*
X90728628Y-102049404D02*
X90823866Y-102097023D01*
X90823866Y-102097023D02*
X91014342Y-102097023D01*
X91014342Y-102097023D02*
X91109580Y-102049404D01*
X91109580Y-102049404D02*
X91157200Y-102001785D01*
X91157200Y-102001785D02*
X91204819Y-101906547D01*
X91204819Y-101906547D02*
X91204819Y-101716071D01*
X91204819Y-101716071D02*
X91157200Y-101620833D01*
X91157200Y-101620833D02*
X91109580Y-101573214D01*
X91109580Y-101573214D02*
X91014342Y-101525595D01*
X91014342Y-101525595D02*
X90823866Y-101525595D01*
X90823866Y-101525595D02*
X90728628Y-101573214D01*
X90728628Y-101573214D02*
X90681009Y-101620833D01*
X90681009Y-101620833D02*
X90633390Y-101716071D01*
X102944819Y-120266510D02*
X102944819Y-120742700D01*
X102944819Y-120742700D02*
X101944819Y-120742700D01*
X102944819Y-119409367D02*
X102944819Y-119980795D01*
X102944819Y-119695081D02*
X101944819Y-119695081D01*
X101944819Y-119695081D02*
X102087676Y-119790319D01*
X102087676Y-119790319D02*
X102182914Y-119885557D01*
X102182914Y-119885557D02*
X102230533Y-119980795D01*
X102907142Y-88164819D02*
X102573809Y-87688628D01*
X102335714Y-88164819D02*
X102335714Y-87164819D01*
X102335714Y-87164819D02*
X102716666Y-87164819D01*
X102716666Y-87164819D02*
X102811904Y-87212438D01*
X102811904Y-87212438D02*
X102859523Y-87260057D01*
X102859523Y-87260057D02*
X102907142Y-87355295D01*
X102907142Y-87355295D02*
X102907142Y-87498152D01*
X102907142Y-87498152D02*
X102859523Y-87593390D01*
X102859523Y-87593390D02*
X102811904Y-87641009D01*
X102811904Y-87641009D02*
X102716666Y-87688628D01*
X102716666Y-87688628D02*
X102335714Y-87688628D01*
X103859523Y-88164819D02*
X103288095Y-88164819D01*
X103573809Y-88164819D02*
X103573809Y-87164819D01*
X103573809Y-87164819D02*
X103478571Y-87307676D01*
X103478571Y-87307676D02*
X103383333Y-87402914D01*
X103383333Y-87402914D02*
X103288095Y-87450533D01*
X104192857Y-87164819D02*
X104859523Y-87164819D01*
X104859523Y-87164819D02*
X104430952Y-88164819D01*
X86294819Y-105342857D02*
X85818628Y-105676190D01*
X86294819Y-105914285D02*
X85294819Y-105914285D01*
X85294819Y-105914285D02*
X85294819Y-105533333D01*
X85294819Y-105533333D02*
X85342438Y-105438095D01*
X85342438Y-105438095D02*
X85390057Y-105390476D01*
X85390057Y-105390476D02*
X85485295Y-105342857D01*
X85485295Y-105342857D02*
X85628152Y-105342857D01*
X85628152Y-105342857D02*
X85723390Y-105390476D01*
X85723390Y-105390476D02*
X85771009Y-105438095D01*
X85771009Y-105438095D02*
X85818628Y-105533333D01*
X85818628Y-105533333D02*
X85818628Y-105914285D01*
X85294819Y-105009523D02*
X85294819Y-104390476D01*
X85294819Y-104390476D02*
X85675771Y-104723809D01*
X85675771Y-104723809D02*
X85675771Y-104580952D01*
X85675771Y-104580952D02*
X85723390Y-104485714D01*
X85723390Y-104485714D02*
X85771009Y-104438095D01*
X85771009Y-104438095D02*
X85866247Y-104390476D01*
X85866247Y-104390476D02*
X86104342Y-104390476D01*
X86104342Y-104390476D02*
X86199580Y-104438095D01*
X86199580Y-104438095D02*
X86247200Y-104485714D01*
X86247200Y-104485714D02*
X86294819Y-104580952D01*
X86294819Y-104580952D02*
X86294819Y-104866666D01*
X86294819Y-104866666D02*
X86247200Y-104961904D01*
X86247200Y-104961904D02*
X86199580Y-105009523D01*
X85390057Y-104009523D02*
X85342438Y-103961904D01*
X85342438Y-103961904D02*
X85294819Y-103866666D01*
X85294819Y-103866666D02*
X85294819Y-103628571D01*
X85294819Y-103628571D02*
X85342438Y-103533333D01*
X85342438Y-103533333D02*
X85390057Y-103485714D01*
X85390057Y-103485714D02*
X85485295Y-103438095D01*
X85485295Y-103438095D02*
X85580533Y-103438095D01*
X85580533Y-103438095D02*
X85723390Y-103485714D01*
X85723390Y-103485714D02*
X86294819Y-104057142D01*
X86294819Y-104057142D02*
X86294819Y-103438095D01*
X91217142Y-109769580D02*
X91169523Y-109817200D01*
X91169523Y-109817200D02*
X91026666Y-109864819D01*
X91026666Y-109864819D02*
X90931428Y-109864819D01*
X90931428Y-109864819D02*
X90788571Y-109817200D01*
X90788571Y-109817200D02*
X90693333Y-109721961D01*
X90693333Y-109721961D02*
X90645714Y-109626723D01*
X90645714Y-109626723D02*
X90598095Y-109436247D01*
X90598095Y-109436247D02*
X90598095Y-109293390D01*
X90598095Y-109293390D02*
X90645714Y-109102914D01*
X90645714Y-109102914D02*
X90693333Y-109007676D01*
X90693333Y-109007676D02*
X90788571Y-108912438D01*
X90788571Y-108912438D02*
X90931428Y-108864819D01*
X90931428Y-108864819D02*
X91026666Y-108864819D01*
X91026666Y-108864819D02*
X91169523Y-108912438D01*
X91169523Y-108912438D02*
X91217142Y-108960057D01*
X91550476Y-108864819D02*
X92169523Y-108864819D01*
X92169523Y-108864819D02*
X91836190Y-109245771D01*
X91836190Y-109245771D02*
X91979047Y-109245771D01*
X91979047Y-109245771D02*
X92074285Y-109293390D01*
X92074285Y-109293390D02*
X92121904Y-109341009D01*
X92121904Y-109341009D02*
X92169523Y-109436247D01*
X92169523Y-109436247D02*
X92169523Y-109674342D01*
X92169523Y-109674342D02*
X92121904Y-109769580D01*
X92121904Y-109769580D02*
X92074285Y-109817200D01*
X92074285Y-109817200D02*
X91979047Y-109864819D01*
X91979047Y-109864819D02*
X91693333Y-109864819D01*
X91693333Y-109864819D02*
X91598095Y-109817200D01*
X91598095Y-109817200D02*
X91550476Y-109769580D01*
X93121904Y-109864819D02*
X92550476Y-109864819D01*
X92836190Y-109864819D02*
X92836190Y-108864819D01*
X92836190Y-108864819D02*
X92740952Y-109007676D01*
X92740952Y-109007676D02*
X92645714Y-109102914D01*
X92645714Y-109102914D02*
X92550476Y-109150533D01*
X88848095Y-104622319D02*
X88848095Y-105431842D01*
X88848095Y-105431842D02*
X88895714Y-105527080D01*
X88895714Y-105527080D02*
X88943333Y-105574700D01*
X88943333Y-105574700D02*
X89038571Y-105622319D01*
X89038571Y-105622319D02*
X89229047Y-105622319D01*
X89229047Y-105622319D02*
X89324285Y-105574700D01*
X89324285Y-105574700D02*
X89371904Y-105527080D01*
X89371904Y-105527080D02*
X89419523Y-105431842D01*
X89419523Y-105431842D02*
X89419523Y-104622319D01*
X90324285Y-104622319D02*
X90133809Y-104622319D01*
X90133809Y-104622319D02*
X90038571Y-104669938D01*
X90038571Y-104669938D02*
X89990952Y-104717557D01*
X89990952Y-104717557D02*
X89895714Y-104860414D01*
X89895714Y-104860414D02*
X89848095Y-105050890D01*
X89848095Y-105050890D02*
X89848095Y-105431842D01*
X89848095Y-105431842D02*
X89895714Y-105527080D01*
X89895714Y-105527080D02*
X89943333Y-105574700D01*
X89943333Y-105574700D02*
X90038571Y-105622319D01*
X90038571Y-105622319D02*
X90229047Y-105622319D01*
X90229047Y-105622319D02*
X90324285Y-105574700D01*
X90324285Y-105574700D02*
X90371904Y-105527080D01*
X90371904Y-105527080D02*
X90419523Y-105431842D01*
X90419523Y-105431842D02*
X90419523Y-105193747D01*
X90419523Y-105193747D02*
X90371904Y-105098509D01*
X90371904Y-105098509D02*
X90324285Y-105050890D01*
X90324285Y-105050890D02*
X90229047Y-105003271D01*
X90229047Y-105003271D02*
X90038571Y-105003271D01*
X90038571Y-105003271D02*
X89943333Y-105050890D01*
X89943333Y-105050890D02*
X89895714Y-105098509D01*
X89895714Y-105098509D02*
X89848095Y-105193747D01*
X103543333Y-92054819D02*
X103210000Y-91578628D01*
X102971905Y-92054819D02*
X102971905Y-91054819D01*
X102971905Y-91054819D02*
X103352857Y-91054819D01*
X103352857Y-91054819D02*
X103448095Y-91102438D01*
X103448095Y-91102438D02*
X103495714Y-91150057D01*
X103495714Y-91150057D02*
X103543333Y-91245295D01*
X103543333Y-91245295D02*
X103543333Y-91388152D01*
X103543333Y-91388152D02*
X103495714Y-91483390D01*
X103495714Y-91483390D02*
X103448095Y-91531009D01*
X103448095Y-91531009D02*
X103352857Y-91578628D01*
X103352857Y-91578628D02*
X102971905Y-91578628D01*
X103876667Y-91054819D02*
X104543333Y-91054819D01*
X104543333Y-91054819D02*
X104114762Y-92054819D01*
X81084819Y-106202857D02*
X80608628Y-106536190D01*
X81084819Y-106774285D02*
X80084819Y-106774285D01*
X80084819Y-106774285D02*
X80084819Y-106393333D01*
X80084819Y-106393333D02*
X80132438Y-106298095D01*
X80132438Y-106298095D02*
X80180057Y-106250476D01*
X80180057Y-106250476D02*
X80275295Y-106202857D01*
X80275295Y-106202857D02*
X80418152Y-106202857D01*
X80418152Y-106202857D02*
X80513390Y-106250476D01*
X80513390Y-106250476D02*
X80561009Y-106298095D01*
X80561009Y-106298095D02*
X80608628Y-106393333D01*
X80608628Y-106393333D02*
X80608628Y-106774285D01*
X80084819Y-105869523D02*
X80084819Y-105250476D01*
X80084819Y-105250476D02*
X80465771Y-105583809D01*
X80465771Y-105583809D02*
X80465771Y-105440952D01*
X80465771Y-105440952D02*
X80513390Y-105345714D01*
X80513390Y-105345714D02*
X80561009Y-105298095D01*
X80561009Y-105298095D02*
X80656247Y-105250476D01*
X80656247Y-105250476D02*
X80894342Y-105250476D01*
X80894342Y-105250476D02*
X80989580Y-105298095D01*
X80989580Y-105298095D02*
X81037200Y-105345714D01*
X81037200Y-105345714D02*
X81084819Y-105440952D01*
X81084819Y-105440952D02*
X81084819Y-105726666D01*
X81084819Y-105726666D02*
X81037200Y-105821904D01*
X81037200Y-105821904D02*
X80989580Y-105869523D01*
X80084819Y-104631428D02*
X80084819Y-104536190D01*
X80084819Y-104536190D02*
X80132438Y-104440952D01*
X80132438Y-104440952D02*
X80180057Y-104393333D01*
X80180057Y-104393333D02*
X80275295Y-104345714D01*
X80275295Y-104345714D02*
X80465771Y-104298095D01*
X80465771Y-104298095D02*
X80703866Y-104298095D01*
X80703866Y-104298095D02*
X80894342Y-104345714D01*
X80894342Y-104345714D02*
X80989580Y-104393333D01*
X80989580Y-104393333D02*
X81037200Y-104440952D01*
X81037200Y-104440952D02*
X81084819Y-104536190D01*
X81084819Y-104536190D02*
X81084819Y-104631428D01*
X81084819Y-104631428D02*
X81037200Y-104726666D01*
X81037200Y-104726666D02*
X80989580Y-104774285D01*
X80989580Y-104774285D02*
X80894342Y-104821904D01*
X80894342Y-104821904D02*
X80703866Y-104869523D01*
X80703866Y-104869523D02*
X80465771Y-104869523D01*
X80465771Y-104869523D02*
X80275295Y-104821904D01*
X80275295Y-104821904D02*
X80180057Y-104774285D01*
X80180057Y-104774285D02*
X80132438Y-104726666D01*
X80132438Y-104726666D02*
X80084819Y-104631428D01*
X99794819Y-120276510D02*
X99794819Y-120752700D01*
X99794819Y-120752700D02*
X98794819Y-120752700D01*
X98794819Y-120038414D02*
X98794819Y-119419367D01*
X98794819Y-119419367D02*
X99175771Y-119752700D01*
X99175771Y-119752700D02*
X99175771Y-119609843D01*
X99175771Y-119609843D02*
X99223390Y-119514605D01*
X99223390Y-119514605D02*
X99271009Y-119466986D01*
X99271009Y-119466986D02*
X99366247Y-119419367D01*
X99366247Y-119419367D02*
X99604342Y-119419367D01*
X99604342Y-119419367D02*
X99699580Y-119466986D01*
X99699580Y-119466986D02*
X99747200Y-119514605D01*
X99747200Y-119514605D02*
X99794819Y-119609843D01*
X99794819Y-119609843D02*
X99794819Y-119895557D01*
X99794819Y-119895557D02*
X99747200Y-119990795D01*
X99747200Y-119990795D02*
X99699580Y-120038414D01*
X112486666Y-85204819D02*
X112486666Y-85919104D01*
X112486666Y-85919104D02*
X112439047Y-86061961D01*
X112439047Y-86061961D02*
X112343809Y-86157200D01*
X112343809Y-86157200D02*
X112200952Y-86204819D01*
X112200952Y-86204819D02*
X112105714Y-86204819D01*
X112867619Y-85204819D02*
X113486666Y-85204819D01*
X113486666Y-85204819D02*
X113153333Y-85585771D01*
X113153333Y-85585771D02*
X113296190Y-85585771D01*
X113296190Y-85585771D02*
X113391428Y-85633390D01*
X113391428Y-85633390D02*
X113439047Y-85681009D01*
X113439047Y-85681009D02*
X113486666Y-85776247D01*
X113486666Y-85776247D02*
X113486666Y-86014342D01*
X113486666Y-86014342D02*
X113439047Y-86109580D01*
X113439047Y-86109580D02*
X113391428Y-86157200D01*
X113391428Y-86157200D02*
X113296190Y-86204819D01*
X113296190Y-86204819D02*
X113010476Y-86204819D01*
X113010476Y-86204819D02*
X112915238Y-86157200D01*
X112915238Y-86157200D02*
X112867619Y-86109580D01*
X82624819Y-106092857D02*
X82148628Y-106426190D01*
X82624819Y-106664285D02*
X81624819Y-106664285D01*
X81624819Y-106664285D02*
X81624819Y-106283333D01*
X81624819Y-106283333D02*
X81672438Y-106188095D01*
X81672438Y-106188095D02*
X81720057Y-106140476D01*
X81720057Y-106140476D02*
X81815295Y-106092857D01*
X81815295Y-106092857D02*
X81958152Y-106092857D01*
X81958152Y-106092857D02*
X82053390Y-106140476D01*
X82053390Y-106140476D02*
X82101009Y-106188095D01*
X82101009Y-106188095D02*
X82148628Y-106283333D01*
X82148628Y-106283333D02*
X82148628Y-106664285D01*
X81624819Y-105759523D02*
X81624819Y-105140476D01*
X81624819Y-105140476D02*
X82005771Y-105473809D01*
X82005771Y-105473809D02*
X82005771Y-105330952D01*
X82005771Y-105330952D02*
X82053390Y-105235714D01*
X82053390Y-105235714D02*
X82101009Y-105188095D01*
X82101009Y-105188095D02*
X82196247Y-105140476D01*
X82196247Y-105140476D02*
X82434342Y-105140476D01*
X82434342Y-105140476D02*
X82529580Y-105188095D01*
X82529580Y-105188095D02*
X82577200Y-105235714D01*
X82577200Y-105235714D02*
X82624819Y-105330952D01*
X82624819Y-105330952D02*
X82624819Y-105616666D01*
X82624819Y-105616666D02*
X82577200Y-105711904D01*
X82577200Y-105711904D02*
X82529580Y-105759523D01*
X82624819Y-104188095D02*
X82624819Y-104759523D01*
X82624819Y-104473809D02*
X81624819Y-104473809D01*
X81624819Y-104473809D02*
X81767676Y-104569047D01*
X81767676Y-104569047D02*
X81862914Y-104664285D01*
X81862914Y-104664285D02*
X81910533Y-104759523D01*
X88616666Y-93584819D02*
X88616666Y-94299104D01*
X88616666Y-94299104D02*
X88569047Y-94441961D01*
X88569047Y-94441961D02*
X88473809Y-94537200D01*
X88473809Y-94537200D02*
X88330952Y-94584819D01*
X88330952Y-94584819D02*
X88235714Y-94584819D01*
X89235714Y-94013390D02*
X89140476Y-93965771D01*
X89140476Y-93965771D02*
X89092857Y-93918152D01*
X89092857Y-93918152D02*
X89045238Y-93822914D01*
X89045238Y-93822914D02*
X89045238Y-93775295D01*
X89045238Y-93775295D02*
X89092857Y-93680057D01*
X89092857Y-93680057D02*
X89140476Y-93632438D01*
X89140476Y-93632438D02*
X89235714Y-93584819D01*
X89235714Y-93584819D02*
X89426190Y-93584819D01*
X89426190Y-93584819D02*
X89521428Y-93632438D01*
X89521428Y-93632438D02*
X89569047Y-93680057D01*
X89569047Y-93680057D02*
X89616666Y-93775295D01*
X89616666Y-93775295D02*
X89616666Y-93822914D01*
X89616666Y-93822914D02*
X89569047Y-93918152D01*
X89569047Y-93918152D02*
X89521428Y-93965771D01*
X89521428Y-93965771D02*
X89426190Y-94013390D01*
X89426190Y-94013390D02*
X89235714Y-94013390D01*
X89235714Y-94013390D02*
X89140476Y-94061009D01*
X89140476Y-94061009D02*
X89092857Y-94108628D01*
X89092857Y-94108628D02*
X89045238Y-94203866D01*
X89045238Y-94203866D02*
X89045238Y-94394342D01*
X89045238Y-94394342D02*
X89092857Y-94489580D01*
X89092857Y-94489580D02*
X89140476Y-94537200D01*
X89140476Y-94537200D02*
X89235714Y-94584819D01*
X89235714Y-94584819D02*
X89426190Y-94584819D01*
X89426190Y-94584819D02*
X89521428Y-94537200D01*
X89521428Y-94537200D02*
X89569047Y-94489580D01*
X89569047Y-94489580D02*
X89616666Y-94394342D01*
X89616666Y-94394342D02*
X89616666Y-94203866D01*
X89616666Y-94203866D02*
X89569047Y-94108628D01*
X89569047Y-94108628D02*
X89521428Y-94061009D01*
X89521428Y-94061009D02*
X89426190Y-94013390D01*
X83120595Y-92829819D02*
X83120595Y-93639342D01*
X83120595Y-93639342D02*
X83168214Y-93734580D01*
X83168214Y-93734580D02*
X83215833Y-93782200D01*
X83215833Y-93782200D02*
X83311071Y-93829819D01*
X83311071Y-93829819D02*
X83501547Y-93829819D01*
X83501547Y-93829819D02*
X83596785Y-93782200D01*
X83596785Y-93782200D02*
X83644404Y-93734580D01*
X83644404Y-93734580D02*
X83692023Y-93639342D01*
X83692023Y-93639342D02*
X83692023Y-92829819D01*
X84596785Y-93163152D02*
X84596785Y-93829819D01*
X84358690Y-92782200D02*
X84120595Y-93496485D01*
X84120595Y-93496485D02*
X84739642Y-93496485D01*
X88657142Y-98814819D02*
X88323809Y-98338628D01*
X88085714Y-98814819D02*
X88085714Y-97814819D01*
X88085714Y-97814819D02*
X88466666Y-97814819D01*
X88466666Y-97814819D02*
X88561904Y-97862438D01*
X88561904Y-97862438D02*
X88609523Y-97910057D01*
X88609523Y-97910057D02*
X88657142Y-98005295D01*
X88657142Y-98005295D02*
X88657142Y-98148152D01*
X88657142Y-98148152D02*
X88609523Y-98243390D01*
X88609523Y-98243390D02*
X88561904Y-98291009D01*
X88561904Y-98291009D02*
X88466666Y-98338628D01*
X88466666Y-98338628D02*
X88085714Y-98338628D01*
X89609523Y-98814819D02*
X89038095Y-98814819D01*
X89323809Y-98814819D02*
X89323809Y-97814819D01*
X89323809Y-97814819D02*
X89228571Y-97957676D01*
X89228571Y-97957676D02*
X89133333Y-98052914D01*
X89133333Y-98052914D02*
X89038095Y-98100533D01*
X90514285Y-97814819D02*
X90038095Y-97814819D01*
X90038095Y-97814819D02*
X89990476Y-98291009D01*
X89990476Y-98291009D02*
X90038095Y-98243390D01*
X90038095Y-98243390D02*
X90133333Y-98195771D01*
X90133333Y-98195771D02*
X90371428Y-98195771D01*
X90371428Y-98195771D02*
X90466666Y-98243390D01*
X90466666Y-98243390D02*
X90514285Y-98291009D01*
X90514285Y-98291009D02*
X90561904Y-98386247D01*
X90561904Y-98386247D02*
X90561904Y-98624342D01*
X90561904Y-98624342D02*
X90514285Y-98719580D01*
X90514285Y-98719580D02*
X90466666Y-98767200D01*
X90466666Y-98767200D02*
X90371428Y-98814819D01*
X90371428Y-98814819D02*
X90133333Y-98814819D01*
X90133333Y-98814819D02*
X90038095Y-98767200D01*
X90038095Y-98767200D02*
X89990476Y-98719580D01*
D12*
%TO.C,C24*%
X93910000Y-81605580D02*
X93910000Y-81324420D01*
X94930000Y-81605580D02*
X94930000Y-81324420D01*
%TO.C,R14*%
X101902936Y-93045000D02*
X102357064Y-93045000D01*
X101902936Y-94515000D02*
X102357064Y-94515000D01*
%TO.C,R13*%
X108717500Y-104317258D02*
X108717500Y-103842742D01*
X109762500Y-104317258D02*
X109762500Y-103842742D01*
%TO.C,C17*%
X109839420Y-106960000D02*
X110120580Y-106960000D01*
X109839420Y-107980000D02*
X110120580Y-107980000D01*
D13*
%TO.C,U7*%
X97710000Y-85972000D02*
X97710000Y-86364000D01*
X97710000Y-85972000D02*
X98105000Y-85972000D01*
X97710000Y-88576000D02*
X97710000Y-88972000D01*
X97710000Y-88972000D02*
X98105000Y-88972000D01*
X100316000Y-85972000D02*
X100710000Y-85972000D01*
X100318000Y-88972000D02*
X100710000Y-88972000D01*
X100710000Y-86364000D02*
X100710000Y-85972000D01*
X100710000Y-88972000D02*
X100710000Y-88576000D01*
X97975000Y-89317000D02*
G75*
G02*
X97867000Y-89317000I-54000J0D01*
G01*
X97867000Y-89317000D02*
G75*
G02*
X97975000Y-89317000I54000J0D01*
G01*
D12*
%TO.C,C5*%
X100370000Y-117473733D02*
X100370000Y-117766267D01*
X101390000Y-117473733D02*
X101390000Y-117766267D01*
%TO.C,C16*%
X104015000Y-85353752D02*
X104015000Y-84831248D01*
X105485000Y-85353752D02*
X105485000Y-84831248D01*
%TO.C,X1*%
X108220000Y-108580000D02*
X108220000Y-112580000D01*
X111520000Y-108580000D02*
X108220000Y-108580000D01*
%TO.C,C11*%
X117935000Y-105561248D02*
X117935000Y-106083752D01*
X119405000Y-105561248D02*
X119405000Y-106083752D01*
%TO.C,R5*%
X105617500Y-104327258D02*
X105617500Y-103852742D01*
X106662500Y-104327258D02*
X106662500Y-103852742D01*
%TO.C,U2*%
X89767500Y-83200000D02*
X86907500Y-83200000D01*
X89767500Y-86620000D02*
X86907500Y-86620000D01*
X90287500Y-83310000D02*
X90007500Y-83310000D01*
X90007500Y-83030000D01*
X90287500Y-83310000D01*
G36*
X90287500Y-83310000D02*
G01*
X90007500Y-83310000D01*
X90007500Y-83030000D01*
X90287500Y-83310000D01*
G37*
%TO.C,C28*%
X88335000Y-102526248D02*
X88335000Y-103048752D01*
X89805000Y-102526248D02*
X89805000Y-103048752D01*
%TO.C,L1*%
X101890000Y-117781267D02*
X101890000Y-117438733D01*
X102910000Y-117781267D02*
X102910000Y-117438733D01*
%TO.C,C35*%
X93600820Y-101072356D02*
X93881980Y-101072356D01*
X93600820Y-102092356D02*
X93881980Y-102092356D01*
%TO.C,C19*%
X111470000Y-95260580D02*
X111470000Y-94979420D01*
X112490000Y-95260580D02*
X112490000Y-94979420D01*
%TO.C,R17*%
X103322936Y-88625000D02*
X103777064Y-88625000D01*
X103322936Y-90095000D02*
X103777064Y-90095000D01*
%TO.C,C8*%
X111805000Y-104228748D02*
X111805000Y-104751252D01*
X113275000Y-104228748D02*
X113275000Y-104751252D01*
%TO.C,L2*%
X113470000Y-112757221D02*
X113470000Y-113082779D01*
X114490000Y-112757221D02*
X114490000Y-113082779D01*
%TO.C,R10*%
X114587500Y-95397258D02*
X114587500Y-94922742D01*
X115632500Y-95397258D02*
X115632500Y-94922742D01*
%TO.C,R25*%
X97257500Y-118047258D02*
X97257500Y-117572742D01*
X98302500Y-118047258D02*
X98302500Y-117572742D01*
%TO.C,C26*%
X96719420Y-101080000D02*
X97000580Y-101080000D01*
X96719420Y-102100000D02*
X97000580Y-102100000D01*
%TO.C,C20*%
X106820580Y-99690000D02*
X106539420Y-99690000D01*
X106820580Y-100710000D02*
X106539420Y-100710000D01*
%TO.C,R11*%
X109782500Y-91738258D02*
X109782500Y-91263742D01*
X110827500Y-91738258D02*
X110827500Y-91263742D01*
%TO.C,C7*%
X108370000Y-114450580D02*
X108370000Y-114169420D01*
X109390000Y-114450580D02*
X109390000Y-114169420D01*
%TO.C,C29*%
X94031200Y-104301536D02*
X94031200Y-104020376D01*
X95051200Y-104301536D02*
X95051200Y-104020376D01*
%TO.C,C12*%
X106842100Y-114456436D02*
X106842100Y-114175276D01*
X107862100Y-114456436D02*
X107862100Y-114175276D01*
%TO.C,U5*%
X109750000Y-97250000D02*
X110475000Y-97250000D01*
X109750000Y-97975000D02*
X109750000Y-97250000D01*
X109750000Y-100745000D02*
X109750000Y-101470000D01*
X113970000Y-97250000D02*
X113245000Y-97250000D01*
X113970000Y-97975000D02*
X113970000Y-97250000D01*
X113970000Y-100745000D02*
X113970000Y-101470000D01*
X113970000Y-101470000D02*
X113245000Y-101470000D01*
%TO.C,C10*%
X115815000Y-105578748D02*
X115815000Y-106101252D01*
X117285000Y-105578748D02*
X117285000Y-106101252D01*
%TO.C,C3*%
X103420000Y-118899420D02*
X103420000Y-119180580D01*
X104440000Y-118899420D02*
X104440000Y-119180580D01*
%TO.C,R26*%
X95767500Y-116867258D02*
X95767500Y-116392742D01*
X96812500Y-116867258D02*
X96812500Y-116392742D01*
%TO.C,C40*%
X95329180Y-108895556D02*
X95048020Y-108895556D01*
X95329180Y-109915556D02*
X95048020Y-109915556D01*
%TO.C,R32*%
X85297500Y-101115276D02*
X85297500Y-101624724D01*
X86342500Y-101115276D02*
X86342500Y-101624724D01*
%TO.C,C31*%
X89578748Y-110155000D02*
X90101252Y-110155000D01*
X89578748Y-111625000D02*
X90101252Y-111625000D01*
%TO.C,R12*%
X107177500Y-104316302D02*
X107177500Y-103841786D01*
X108222500Y-104316302D02*
X108222500Y-103841786D01*
%TO.C,U6*%
X89610000Y-106007500D02*
X88810000Y-106007500D01*
X89610000Y-106007500D02*
X90410000Y-106007500D01*
X89610000Y-109127500D02*
X88810000Y-109127500D01*
X89610000Y-109127500D02*
X90410000Y-109127500D01*
X88310000Y-106057500D02*
X88070000Y-105727500D01*
X88550000Y-105727500D01*
X88310000Y-106057500D01*
G36*
X88310000Y-106057500D02*
G01*
X88070000Y-105727500D01*
X88550000Y-105727500D01*
X88310000Y-106057500D01*
G37*
%TO.C,R8*%
X116322500Y-91737258D02*
X116322500Y-91262742D01*
X117367500Y-91737258D02*
X117367500Y-91262742D01*
%TO.C,R7*%
X100977064Y-90805000D02*
X100522936Y-90805000D01*
X100977064Y-92275000D02*
X100522936Y-92275000D01*
%TO.C,C41*%
X95329180Y-110825956D02*
X95048020Y-110825956D01*
X95329180Y-111845956D02*
X95048020Y-111845956D01*
%TO.C,R1*%
X117937500Y-94312742D02*
X117937500Y-94787258D01*
X118982500Y-94312742D02*
X118982500Y-94787258D01*
%TO.C,C9*%
X113845000Y-104228748D02*
X113845000Y-104751252D01*
X115315000Y-104228748D02*
X115315000Y-104751252D01*
%TO.C,U3*%
X98231600Y-107374756D02*
X98706600Y-107374756D01*
X98231600Y-107849756D02*
X98231600Y-107374756D01*
X98231600Y-114119756D02*
X98231600Y-114594756D01*
X105451600Y-107374756D02*
X104976600Y-107374756D01*
X105451600Y-107849756D02*
X105451600Y-107374756D01*
X105451600Y-114119756D02*
X105451600Y-114594756D01*
X105451600Y-114594756D02*
X104976600Y-114594756D01*
%TO.C,C15*%
X112990000Y-95260580D02*
X112990000Y-94979420D01*
X114010000Y-95260580D02*
X114010000Y-94979420D01*
%TO.C,C22*%
X101975000Y-85351252D02*
X101975000Y-84828748D01*
X103445000Y-85351252D02*
X103445000Y-84828748D01*
%TO.C,ANT1*%
X106917774Y-118088104D02*
X107879064Y-117533101D01*
X107865018Y-116328774D02*
X108331524Y-116636789D01*
X108298029Y-116078776D02*
X107865018Y-116328774D01*
X108331524Y-116636789D02*
X108298029Y-116078776D01*
X108542773Y-120902686D02*
X109504061Y-120347686D01*
X109333986Y-116693104D02*
X110295275Y-116138102D01*
X110958984Y-119507686D02*
X111920275Y-118952685D01*
%TO.C,C38*%
X95342180Y-107066756D02*
X95061020Y-107066756D01*
X95342180Y-108086756D02*
X95061020Y-108086756D01*
%TO.C,R30*%
X80067500Y-102075276D02*
X80067500Y-102584724D01*
X81112500Y-102075276D02*
X81112500Y-102584724D01*
%TO.C,R3*%
X102017500Y-104327258D02*
X102017500Y-103852742D01*
X103062500Y-104327258D02*
X103062500Y-103852742D01*
%TO.C,L3*%
X98830000Y-117448733D02*
X98830000Y-117791267D01*
X99850000Y-117448733D02*
X99850000Y-117791267D01*
%TO.C,J3*%
X109270000Y-88640000D02*
X109270000Y-89890000D01*
X109270000Y-89890000D02*
X110520000Y-89890000D01*
X109370000Y-87830000D02*
X109370000Y-88130000D01*
X109370000Y-88130000D02*
X109570000Y-88130000D01*
X109470000Y-87830000D02*
X109470000Y-88130000D01*
X109570000Y-81470000D02*
X109570000Y-89590000D01*
X109570000Y-87030000D02*
X110180000Y-87030000D01*
X109570000Y-87830000D02*
X109370000Y-87830000D01*
X109570000Y-89590000D02*
X114290000Y-89590000D01*
X110180000Y-82080000D02*
X110180000Y-84030000D01*
X110180000Y-84030000D02*
X109570000Y-84030000D01*
X110180000Y-87030000D02*
X110180000Y-88980000D01*
X110180000Y-88980000D02*
X113680000Y-88980000D01*
X110880000Y-81470000D02*
X110880000Y-82080000D01*
X110880000Y-89590000D02*
X110880000Y-88980000D01*
X112180000Y-81470000D02*
X112180000Y-82080000D01*
X112180000Y-89590000D02*
X112180000Y-88980000D01*
X113180000Y-84430000D02*
X113680000Y-84430000D01*
X113180000Y-84630000D02*
X113180000Y-84430000D01*
X113180000Y-86430000D02*
X113680000Y-86430000D01*
X113180000Y-86630000D02*
X113180000Y-86430000D01*
X113680000Y-82080000D02*
X110180000Y-82080000D01*
X113680000Y-84530000D02*
X113180000Y-84530000D01*
X113680000Y-84630000D02*
X113180000Y-84630000D01*
X113680000Y-86530000D02*
X113180000Y-86530000D01*
X113680000Y-86630000D02*
X113180000Y-86630000D01*
X113680000Y-88980000D02*
X113680000Y-82080000D01*
X114290000Y-81470000D02*
X109570000Y-81470000D01*
X114290000Y-89590000D02*
X114290000Y-81470000D01*
%TO.C,C6*%
X111930000Y-113050580D02*
X111930000Y-112769420D01*
X112950000Y-113050580D02*
X112950000Y-112769420D01*
%TO.C,L4*%
X104698733Y-115760000D02*
X105041267Y-115760000D01*
X104698733Y-116780000D02*
X105041267Y-116780000D01*
%TO.C,R2*%
X100457500Y-104327258D02*
X100457500Y-103852742D01*
X101502500Y-104327258D02*
X101502500Y-103852742D01*
%TO.C,C14*%
X110250000Y-103939420D02*
X110250000Y-104220580D01*
X111270000Y-103939420D02*
X111270000Y-104220580D01*
%TO.C,C4*%
X95018420Y-112680156D02*
X95299580Y-112680156D01*
X95018420Y-113700156D02*
X95299580Y-113700156D01*
%TO.C,R31*%
X81647500Y-102075276D02*
X81647500Y-102584724D01*
X82692500Y-102075276D02*
X82692500Y-102584724D01*
%TO.C,J8*%
X87130000Y-90900000D02*
X87130000Y-88300000D01*
X89790000Y-88300000D02*
X87130000Y-88300000D01*
X89790000Y-90900000D02*
X87130000Y-90900000D01*
X89790000Y-90900000D02*
X89790000Y-88300000D01*
X89790000Y-92170000D02*
X89790000Y-93500000D01*
X89790000Y-93500000D02*
X88460000Y-93500000D01*
%TO.C,R4*%
X104083500Y-104327258D02*
X104083500Y-103852742D01*
X105128500Y-104327258D02*
X105128500Y-103852742D01*
%TO.C,C21*%
X109720000Y-95260580D02*
X109720000Y-94979420D01*
X110740000Y-95260580D02*
X110740000Y-94979420D01*
%TO.C,C30*%
X92202400Y-104301536D02*
X92202400Y-104020376D01*
X93222400Y-104301536D02*
X93222400Y-104020376D01*
%TO.C,U4*%
X83882500Y-94090000D02*
X81682500Y-94090000D01*
X83882500Y-94090000D02*
X86082500Y-94090000D01*
X83882500Y-99560000D02*
X81682500Y-99560000D01*
X83882500Y-99560000D02*
X86082500Y-99560000D01*
X80022500Y-94550000D02*
X79692500Y-94790000D01*
X79692500Y-94310000D01*
X80022500Y-94550000D01*
G36*
X80022500Y-94550000D02*
G01*
X79692500Y-94790000D01*
X79692500Y-94310000D01*
X80022500Y-94550000D01*
G37*
%TO.C,C25*%
X95660000Y-104230580D02*
X95660000Y-103949420D01*
X96680000Y-104230580D02*
X96680000Y-103949420D01*
%TO.C,C23*%
X97230000Y-104210580D02*
X97230000Y-103929420D01*
X98250000Y-104210580D02*
X98250000Y-103929420D01*
%TO.C,C18*%
X107815580Y-101220000D02*
X107534420Y-101220000D01*
X107815580Y-102240000D02*
X107534420Y-102240000D01*
%TO.C,C34*%
X113155000Y-91365420D02*
X113155000Y-91646580D01*
X114175000Y-91365420D02*
X114175000Y-91646580D01*
%TO.C,C1*%
X91997580Y-112680156D02*
X91716420Y-112680156D01*
X91997580Y-113700156D02*
X91716420Y-113700156D01*
%TO.C,R15*%
X89537258Y-96407500D02*
X89062742Y-96407500D01*
X89537258Y-97452500D02*
X89062742Y-97452500D01*
%TO.C,U1*%
X93259500Y-114744156D02*
X91459500Y-114744156D01*
X93259500Y-114744156D02*
X94059500Y-114744156D01*
X93259500Y-117864156D02*
X92459500Y-117864156D01*
X93259500Y-117864156D02*
X94059500Y-117864156D01*
%TO.C,C39*%
X111485000Y-91360420D02*
X111485000Y-91641580D01*
X112505000Y-91360420D02*
X112505000Y-91641580D01*
%TO.C,R9*%
X114797500Y-91747258D02*
X114797500Y-91272742D01*
X115842500Y-91747258D02*
X115842500Y-91272742D01*
%TO.C,R6*%
X98897500Y-104317258D02*
X98897500Y-103842742D01*
X99942500Y-104317258D02*
X99942500Y-103842742D01*
%TD*%
M02*
