M48
; DRILL file {KiCad 9.0.0} date 2025-06-05T22:29:38+0200
; FORMAT={-:-/ absolute / inch / decimal}
; #@! TF.CreationDate,2025-06-05T22:29:38+02:00
; #@! TF.GenerationSoftware,Kicad,Pcbnew,9.0.0
; #@! TF.FileFunction,Plated,1,2,PTH
FMAT,2
INCH
; #@! TA.AperFunction,Plated,PTH,ViaDrill
T1C0.0118
; #@! TA.AperFunction,Plated,PTH,ViaDrill
T2C0.0157
; #@! TA.AperFunction,Plated,PTH,ComponentDrill
T3C0.0295
; #@! TA.AperFunction,Plated,PTH,ComponentDrill
T4C0.0374
; #@! TA.AperFunction,Plated,PTH,ComponentDrill
T5C0.0394
%
G90
G05
T1
X3.9783Y-4.55
X4.0063Y-4.55
X4.0373Y-4.5492
X4.1886Y-4.2252
X4.2487Y-4.405
T2
X3.1205Y-3.8992
X3.1224Y-3.8268
X3.189Y-3.6591
X3.2422Y-3.8701
X3.2526Y-3.7503
X3.27Y-3.688
X3.2788Y-3.8895
X3.337Y-3.9019
X3.3421Y-3.9409
X3.363Y-3.7829
X3.3714Y-4.0924
X3.4043Y-3.3272
X3.422Y-3.6591
X3.4681Y-4.4602
X3.4846Y-3.4346
X3.487Y-3.8585
X3.491Y-4.1406
X3.4984Y-3.9449
X3.5079Y-4.5882
X3.5098Y-3.2547
X3.513Y-3.7102
X3.5228Y-4.2374
X3.5343Y-4.161
X3.5823Y-4.3118
X3.656Y-4.3594
X3.674Y-4.5908
X3.6855Y-4.0371
X3.7085Y-4.186
X3.7382Y-3.3988
X3.7392Y-3.2874
X3.7598Y-3.9276
X3.8054Y-3.6114
X3.8088Y-4.0286
X3.8091Y-3.365
X3.8236Y-4.3449
X3.8244Y-4.511
X3.8248Y-4.3047
X3.8248Y-4.3882
X3.8248Y-4.4287
X3.8248Y-4.4689
X3.8264Y-4.2295
X3.8332Y-4.5722
X3.8525Y-3.359
X3.8701Y-3.7157
X3.9059Y-4.7354
X3.9217Y-3.6669
X3.9717Y-4.7409
X4.0748Y-3.2461
X4.0771Y-3.7589
X4.1219Y-4.0197
X4.1425Y-4.7067
X4.1633Y-3.7098
X4.1633Y-3.5849
X4.1862Y-4.6807
X4.2402Y-4.0651
X4.2933Y-4.6422
X4.3008Y-4.0652
X4.3223Y-4.0275
X4.3393Y-4.1533
X4.3594Y-3.6737
X4.387Y-4.5791
X4.402Y-4.2349
X4.4059Y-3.9098
X4.4118Y-4.2984
X4.413Y-4.3354
X4.413Y-4.3717
X4.4382Y-3.7752
X4.4386Y-4.5319
X4.4397Y-4.2703
X4.4505Y-3.6874
X4.4512Y-3.4594
X4.4961Y-3.6768
X4.5811Y-3.4984
X4.5866Y-4.3406
X4.6157Y-3.7358
X4.6287Y-3.69
X4.665Y-3.6472
X4.6713Y-4.2287
T3
X4.385Y-3.2886
X4.385Y-3.3673
X4.385Y-3.4461
T4
X3.4183Y-4.5574
X3.5683Y-4.644
X4.5371Y-3.4461
X4.5537Y-4.4216
X4.6403Y-4.2715
X4.6485Y-3.5788
T5
X3.4827Y-3.5287
X3.4827Y-3.6287
X3.6279Y-3.2697
X3.6279Y-3.3697
X3.6279Y-3.4697
X3.6279Y-3.5697
X3.6279Y-3.6697
X3.6279Y-3.7697
X3.6279Y-3.8697
X3.8106Y-3.8047
X3.8947Y-3.1563
X3.9106Y-3.8047
X3.9947Y-3.1563
X4.0106Y-3.8047
X4.2382Y-3.2697
X4.2382Y-3.3697
X4.2382Y-3.4697
X4.2382Y-3.5697
X4.2382Y-3.6697
X4.2382Y-3.7697
X4.2382Y-3.8697
M30
