%TF.GenerationSoftware,KiCad,Pcbnew,9.0.0*%
%TF.CreationDate,2025-06-04T20:21:36+02:00*%
%TF.ProjectId,SI4684,53493436-3834-42e6-9b69-6361645f7063,A*%
%TF.SameCoordinates,Original*%
%TF.FileFunction,Soldermask,Bot*%
%TF.FilePolarity,Negative*%
%FSLAX46Y46*%
G04 Gerber Fmt 4.6, Leading zero omitted, Abs format (unit mm)*
G04 Created by KiCad (PCBNEW 9.0.0) date 2025-06-04 20:21:36*
%MOMM*%
%LPD*%
G01*
G04 APERTURE LIST*
G04 Aperture macros list*
%AMRoundRect*
0 Rectangle with rounded corners*
0 $1 Rounding radius*
0 $2 $3 $4 $5 $6 $7 $8 $9 X,Y pos of 4 corners*
0 Add a 4 corners polygon primitive as box body*
4,1,4,$2,$3,$4,$5,$6,$7,$8,$9,$2,$3,0*
0 Add four circle primitives for the rounded corners*
1,1,$1+$1,$2,$3*
1,1,$1+$1,$4,$5*
1,1,$1+$1,$6,$7*
1,1,$1+$1,$8,$9*
0 Add four rect primitives between the rounded corners*
20,1,$1+$1,$2,$3,$4,$5,0*
20,1,$1+$1,$4,$5,$6,$7,0*
20,1,$1+$1,$6,$7,$8,$9,0*
20,1,$1+$1,$8,$9,$2,$3,0*%
%AMRotRect*
0 Rectangle, with rotation*
0 The origin of the aperture is its center*
0 $1 length*
0 $2 width*
0 $3 Rotation angle, in degrees counterclockwise*
0 Add horizontal line*
21,1,$1,$2,0,0,$3*%
G04 Aperture macros list end*
%ADD10R,1.700000X1.700000*%
%ADD11O,1.700000X1.700000*%
%ADD12RoundRect,0.250000X-0.350000X-0.450000X0.350000X-0.450000X0.350000X0.450000X-0.350000X0.450000X0*%
%ADD13RoundRect,0.250000X-0.450000X0.350000X-0.450000X-0.350000X0.450000X-0.350000X0.450000X0.350000X0*%
%ADD14RoundRect,0.250000X0.431939X-1.598141X1.168061X-1.173141X-0.431939X1.598141X-1.168061X1.173141X0*%
%ADD15RoundRect,0.250000X0.625000X-0.350000X0.625000X0.350000X-0.625000X0.350000X-0.625000X-0.350000X0*%
%ADD16O,1.750000X1.200000*%
%ADD17RoundRect,0.165000X0.550920X0.184221X-0.115920X0.569221X-0.550920X-0.184221X0.115920X-0.569221X0*%
%ADD18RoundRect,0.180000X0.573731X0.153731X-0.153731X0.573731X-0.573731X-0.153731X0.153731X-0.573731X0*%
%ADD19C,0.950000*%
%ADD20RoundRect,0.210000X0.712654X0.154352X-0.222654X0.694352X-0.712654X-0.154352X0.222654X-0.694352X0*%
%ADD21RoundRect,0.175000X-0.314054X0.193958X0.010946X-0.368958X0.314054X-0.193958X-0.010946X0.368958X0*%
%ADD22RoundRect,0.165000X-0.564829X0.135715X-0.203336X-0.544155X0.564829X-0.135715X0.203336X0.544155X0*%
%ADD23RoundRect,0.180000X-0.568016X0.173660X-0.173660X-0.568016X0.568016X-0.173660X0.173660X0.568016X0*%
%ADD24RoundRect,0.210000X-0.686159X0.246751X-0.179130X-0.706833X0.686159X-0.246751X0.179130X0.706833X0*%
%ADD25R,1.300000X1.200000*%
%ADD26RotRect,0.850000X1.200000X135.000000*%
%ADD27RotRect,0.850000X1.200000X225.000000*%
%ADD28R,1.400000X1.300000*%
%ADD29RoundRect,0.165000X-0.184221X0.550920X-0.569221X-0.115920X0.184221X-0.550920X0.569221X0.115920X0*%
%ADD30RoundRect,0.180000X-0.153731X0.573731X-0.573731X-0.153731X0.153731X-0.573731X0.573731X0.153731X0*%
%ADD31RoundRect,0.210000X-0.154352X0.712654X-0.694352X-0.222654X0.154352X-0.712654X0.694352X0.222654X0*%
G04 APERTURE END LIST*
D10*
%TO.C,J2*%
X95850000Y-83040000D03*
D11*
X95850000Y-85580000D03*
X95850000Y-88120000D03*
X95850000Y-90660000D03*
%TD*%
D12*
%TO.C,R29*%
X110740000Y-110290000D03*
X112740000Y-110290000D03*
%TD*%
D13*
%TO.C,R27*%
X92360000Y-111825000D03*
X92360000Y-113825000D03*
%TD*%
D11*
%TO.C,J1*%
X101870000Y-96640000D03*
X99330000Y-96640000D03*
D10*
X96790000Y-96640000D03*
%TD*%
D14*
%TO.C,AE1*%
X106890000Y-119790000D03*
X111783044Y-116965001D03*
%TD*%
D15*
%TO.C,J3*%
X111380000Y-87530000D03*
D16*
X111380000Y-85530000D03*
X111380000Y-83530000D03*
%TD*%
D10*
%TO.C,J8*%
X88460000Y-92170000D03*
D11*
X88460000Y-89630000D03*
%TD*%
D17*
%TO.C,SW4*%
X91280607Y-116539358D03*
X87729902Y-114489359D03*
D18*
X90610512Y-117999999D03*
D19*
X90635510Y-117956697D03*
D20*
X89817754Y-114973093D03*
D18*
X86800000Y-115800000D03*
D19*
X86824998Y-115756699D03*
%TD*%
D21*
%TO.C,D1*%
X107150000Y-116520001D03*
X108795448Y-115570001D03*
X109172723Y-118123462D03*
%TD*%
D22*
%TO.C,SW5*%
X114689425Y-89406538D03*
X116614259Y-93026623D03*
D19*
X115987574Y-88546414D03*
D23*
X116031723Y-88522942D03*
D24*
X115100000Y-91510000D03*
D23*
X118097396Y-92407911D03*
D19*
X118053248Y-92431385D03*
%TD*%
D25*
%TO.C,U12*%
X84700000Y-105690000D03*
X80600000Y-105690000D03*
D26*
X76472000Y-103118500D03*
D27*
X76472000Y-97461500D03*
D25*
X80600000Y-94890000D03*
X84700000Y-94890000D03*
D28*
X87000000Y-96290000D03*
X87000000Y-104290000D03*
X87000000Y-101765000D03*
X87000000Y-98815000D03*
%TD*%
D29*
%TO.C,SW6*%
X116447325Y-107852148D03*
X114397324Y-111402853D03*
D19*
X117864662Y-108497242D03*
D30*
X117907963Y-108522244D03*
D31*
X114881058Y-109315000D03*
D19*
X115664664Y-112307755D03*
D30*
X115707964Y-112332756D03*
%TD*%
D10*
%TO.C,J7*%
X98960000Y-79950000D03*
D11*
X101500000Y-79950000D03*
%TD*%
D10*
%TO.C,J6*%
X107649697Y-83050000D03*
D11*
X107649697Y-85590000D03*
X107649697Y-88130000D03*
X107649697Y-90670000D03*
X107649697Y-93210000D03*
X107649697Y-95750000D03*
X107649697Y-98290000D03*
%TD*%
D10*
%TO.C,J5*%
X92149697Y-83050000D03*
D11*
X92149697Y-85590000D03*
X92149697Y-88130000D03*
X92149697Y-90670000D03*
X92149697Y-93210000D03*
X92149697Y-95750000D03*
X92149697Y-98290000D03*
%TD*%
M02*
