%TF.GenerationSoftware,KiCad,Pcbnew,9.0.0*%
%TF.CreationDate,2025-06-04T23:05:04+02:00*%
%TF.ProjectId,SI4684,53493436-3834-42e6-9b69-6361645f7063,A*%
%TF.SameCoordinates,Original*%
%TF.FileFunction,Profile,NP*%
%FSLAX46Y46*%
G04 Gerber Fmt 4.6, Leading zero omitted, Abs format (unit mm)*
G04 Created by KiCad (PCBNEW 9.0.0) date 2025-06-04 23:05:04*
%MOMM*%
%LPD*%
G01*
G04 APERTURE LIST*
%TA.AperFunction,Profile*%
%ADD10C,0.038100*%
%TD*%
%TA.AperFunction,Profile*%
%ADD11C,0.100000*%
%TD*%
%TA.AperFunction,Profile*%
%ADD12C,0.000000*%
%TD*%
G04 APERTURE END LIST*
D10*
X82188165Y-108502948D02*
G75*
G02*
X79990930Y-108159810I-823765J1931548D01*
G01*
X82188165Y-108502948D02*
G75*
G02*
X86470661Y-114288677I1451435J-3403452D01*
G01*
X118405873Y-103755477D02*
G75*
G02*
X119967781Y-105338503I-487173J-2042723D01*
G01*
X86156956Y-116490304D02*
G75*
G02*
X86470596Y-114288622I1920444J849604D01*
G01*
X86156956Y-83822466D02*
G75*
G02*
X119967839Y-94974280I13357134J-16333924D01*
G01*
X95931413Y-120950000D02*
G75*
G02*
X86156957Y-116490302I3582587J20793400D01*
G01*
X79990907Y-108159836D02*
G75*
G02*
X79990911Y-92152935I19523163J8003446D01*
G01*
D11*
X103097785Y-120951878D02*
G75*
G02*
X95931462Y-120945483I-3563085J22501178D01*
G01*
D10*
X86470629Y-86024120D02*
G75*
G02*
X86156942Y-83822460I1606871J1352120D01*
G01*
X118405873Y-103755477D02*
G75*
G02*
X118405880Y-96557321I858227J3599077D01*
G01*
X79990907Y-92152934D02*
G75*
G02*
X82188170Y-91809810I1373493J-1588566D01*
G01*
X86470629Y-86024120D02*
G75*
G02*
X82188166Y-91809819I-2831049J-2382260D01*
G01*
X119967839Y-94974280D02*
G75*
G02*
X118405875Y-96557299I-2049139J459780D01*
G01*
X119967839Y-105338490D02*
G75*
G02*
X103096771Y-120949997I-20453749J5182110D01*
G01*
D12*
%TA.AperFunction,Profile*%
%TO.C,U12*%
G36*
X83978517Y-96510058D02*
G01*
X84147607Y-96569225D01*
X84299292Y-96664535D01*
X84425965Y-96791208D01*
X84521275Y-96942893D01*
X84580442Y-97111983D01*
X84600500Y-97290000D01*
X84580442Y-97468017D01*
X84521275Y-97637107D01*
X84425965Y-97788792D01*
X84299292Y-97915465D01*
X84147607Y-98010775D01*
X83978517Y-98069942D01*
X83800500Y-98090000D01*
X83622483Y-98069942D01*
X83453393Y-98010775D01*
X83301708Y-97915465D01*
X83175035Y-97788792D01*
X83079725Y-97637107D01*
X83020558Y-97468017D01*
X83000500Y-97290000D01*
X83020558Y-97111983D01*
X83079725Y-96942893D01*
X83175035Y-96791208D01*
X83301708Y-96664535D01*
X83453393Y-96569225D01*
X83622483Y-96510058D01*
X83800500Y-96490000D01*
X83978517Y-96510058D01*
G37*
%TD.AperFunction*%
%TA.AperFunction,Profile*%
G36*
X83978517Y-102510058D02*
G01*
X84147607Y-102569225D01*
X84299292Y-102664535D01*
X84425965Y-102791208D01*
X84521275Y-102942893D01*
X84580442Y-103111983D01*
X84600500Y-103290000D01*
X84580442Y-103468017D01*
X84521275Y-103637107D01*
X84425965Y-103788792D01*
X84299292Y-103915465D01*
X84147607Y-104010775D01*
X83978517Y-104069942D01*
X83800500Y-104090000D01*
X83622483Y-104069942D01*
X83453393Y-104010775D01*
X83301708Y-103915465D01*
X83175035Y-103788792D01*
X83079725Y-103637107D01*
X83020558Y-103468017D01*
X83000500Y-103290000D01*
X83020558Y-103111983D01*
X83079725Y-102942893D01*
X83175035Y-102791208D01*
X83301708Y-102664535D01*
X83453393Y-102569225D01*
X83622483Y-102510058D01*
X83800500Y-102490000D01*
X83978517Y-102510058D01*
G37*
%TD.AperFunction*%
%TD*%
M02*
