%TF.GenerationSoftware,KiCad,Pcbnew,9.0.0*%
%TF.CreationDate,2025-06-05T22:29:36+02:00*%
%TF.ProjectId,SI4684,53493436-3834-42e6-9b69-6361645f7063,A*%
%TF.SameCoordinates,Original*%
%TF.FileFunction,Soldermask,Bot*%
%TF.FilePolarity,Negative*%
%FSLAX46Y46*%
G04 Gerber Fmt 4.6, Leading zero omitted, Abs format (unit mm)*
G04 Created by KiCad (PCBNEW 9.0.0) date 2025-06-05 22:29:36*
%MOMM*%
%LPD*%
G01*
G04 APERTURE LIST*
G04 Aperture macros list*
%AMRoundRect*
0 Rectangle with rounded corners*
0 $1 Rounding radius*
0 $2 $3 $4 $5 $6 $7 $8 $9 X,Y pos of 4 corners*
0 Add a 4 corners polygon primitive as box body*
4,1,4,$2,$3,$4,$5,$6,$7,$8,$9,$2,$3,0*
0 Add four circle primitives for the rounded corners*
1,1,$1+$1,$2,$3*
1,1,$1+$1,$4,$5*
1,1,$1+$1,$6,$7*
1,1,$1+$1,$8,$9*
0 Add four rect primitives between the rounded corners*
20,1,$1+$1,$2,$3,$4,$5,0*
20,1,$1+$1,$4,$5,$6,$7,0*
20,1,$1+$1,$6,$7,$8,$9,0*
20,1,$1+$1,$8,$9,$2,$3,0*%
G04 Aperture macros list end*
%ADD10RoundRect,0.237500X0.250000X0.237500X-0.250000X0.237500X-0.250000X-0.237500X0.250000X-0.237500X0*%
%ADD11R,0.350000X2.500000*%
%ADD12RoundRect,0.200000X-0.200000X-0.275000X0.200000X-0.275000X0.200000X0.275000X-0.200000X0.275000X0*%
%ADD13RoundRect,0.200000X-0.275000X0.200000X-0.275000X-0.200000X0.275000X-0.200000X0.275000X0.200000X0*%
%ADD14RoundRect,0.150000X-0.150000X0.587500X-0.150000X-0.587500X0.150000X-0.587500X0.150000X0.587500X0*%
%ADD15RoundRect,0.250000X0.431939X-1.598141X1.168061X-1.173141X-0.431939X1.598141X-1.168061X1.173141X0*%
%ADD16RoundRect,0.250000X0.625000X-0.350000X0.625000X0.350000X-0.625000X0.350000X-0.625000X-0.350000X0*%
%ADD17O,1.750000X1.200000*%
%ADD18R,1.700000X1.700000*%
%ADD19O,1.700000X1.700000*%
%ADD20RoundRect,0.165000X0.550920X0.184221X-0.115920X0.569221X-0.550920X-0.184221X0.115920X-0.569221X0*%
%ADD21RoundRect,0.180000X0.573731X0.153731X-0.153731X0.573731X-0.573731X-0.153731X0.153731X-0.573731X0*%
%ADD22C,0.950000*%
%ADD23RoundRect,0.210000X0.712654X0.154352X-0.222654X0.694352X-0.712654X-0.154352X0.222654X-0.694352X0*%
%ADD24RoundRect,0.175000X-0.314054X0.193958X0.010946X-0.368958X0.314054X-0.193958X-0.010946X0.368958X0*%
%ADD25RoundRect,0.165000X-0.580703X0.015315X-0.085756X-0.574540X0.580703X-0.015315X0.085756X0.574540X0*%
%ADD26RoundRect,0.180000X-0.591709X0.051768X-0.051768X-0.591709X0.591709X-0.051768X0.051768X0.591709X0*%
%ADD27RoundRect,0.210000X-0.722467X0.098698X-0.028256X-0.728630X0.722467X-0.098698X0.028256X0.728630X0*%
%ADD28R,1.300000X1.200000*%
%ADD29R,1.400000X1.300000*%
%ADD30RoundRect,0.250000X0.450000X-0.350000X0.450000X0.350000X-0.450000X0.350000X-0.450000X-0.350000X0*%
%ADD31RoundRect,0.165000X-0.184221X0.550920X-0.569221X-0.115920X0.184221X-0.550920X0.569221X0.115920X0*%
%ADD32RoundRect,0.180000X-0.153731X0.573731X-0.573731X-0.153731X0.153731X-0.573731X0.573731X0.153731X0*%
%ADD33RoundRect,0.210000X-0.154352X0.712654X-0.694352X-0.222654X0.154352X-0.712654X0.694352X0.222654X0*%
%ADD34RoundRect,0.250000X-0.450000X0.350000X-0.450000X-0.350000X0.450000X-0.350000X0.450000X0.350000X0*%
G04 APERTURE END LIST*
D10*
%TO.C,R34*%
X99490000Y-90870000D03*
X97665000Y-90870000D03*
%TD*%
D11*
%TO.C,U13*%
X103330000Y-88000000D03*
X102830000Y-88000000D03*
X102330000Y-88000000D03*
X101830000Y-88000000D03*
X101330000Y-88000000D03*
X100830000Y-88000000D03*
X100330000Y-88000000D03*
X99830000Y-88000000D03*
X99330000Y-88000000D03*
X98830000Y-88000000D03*
X98330000Y-88000000D03*
X97830000Y-88000000D03*
X97330000Y-88000000D03*
X96830000Y-88000000D03*
X96330000Y-88000000D03*
%TD*%
D12*
%TO.C,R22*%
X101510000Y-90360000D03*
X103160000Y-90360000D03*
%TD*%
D13*
%TO.C,R19*%
X96020000Y-80485000D03*
X96020000Y-82135000D03*
%TD*%
%TO.C,R18*%
X100920000Y-82650000D03*
X100920000Y-84300000D03*
%TD*%
D14*
%TO.C,Q2*%
X102495000Y-82953748D03*
X104395000Y-82953748D03*
X103445000Y-84828748D03*
%TD*%
D15*
%TO.C,ANT1*%
X106890000Y-119790000D03*
X111783044Y-116965001D03*
%TD*%
D16*
%TO.C,J3*%
X111380000Y-87530000D03*
D17*
X111380000Y-85530000D03*
X111380000Y-83530000D03*
%TD*%
D18*
%TO.C,J8*%
X88460000Y-92170000D03*
D19*
X88460000Y-89630000D03*
%TD*%
D20*
%TO.C,SW4*%
X91280607Y-116539358D03*
X87729902Y-114489359D03*
D21*
X90610512Y-117999999D03*
D22*
X90635510Y-117956697D03*
D23*
X89817754Y-114973093D03*
D21*
X86800000Y-115800000D03*
D22*
X86824998Y-115756699D03*
%TD*%
D24*
%TO.C,D1*%
X107150000Y-116520001D03*
X108795448Y-115570001D03*
X109172723Y-118123462D03*
%TD*%
D18*
%TO.C,J1*%
X96790000Y-96640000D03*
D19*
X99330000Y-96640000D03*
X101870000Y-96640000D03*
%TD*%
D25*
%TO.C,SW5*%
X114152480Y-88642772D03*
X116787911Y-91783553D03*
D22*
X115243432Y-87531543D03*
D26*
X115281736Y-87499405D03*
D27*
X114991418Y-90614904D03*
D26*
X118110000Y-90870000D03*
D22*
X118071697Y-90902140D03*
%TD*%
D28*
%TO.C,U12*%
X84700000Y-105690000D03*
X80600000Y-105690000D03*
X80600000Y-94890000D03*
X84700000Y-94890000D03*
D29*
X87000000Y-96290000D03*
X87000000Y-104290000D03*
X87000000Y-101765000D03*
X87000000Y-98815000D03*
%TD*%
D30*
%TO.C,R28*%
X111995000Y-92701000D03*
X111995000Y-90701000D03*
%TD*%
D31*
%TO.C,SW6*%
X116447325Y-107852148D03*
X114397324Y-111402853D03*
D22*
X117864662Y-108497242D03*
D32*
X117907963Y-108522244D03*
D33*
X114881058Y-109315000D03*
D22*
X115664664Y-112307755D03*
D32*
X115707964Y-112332756D03*
%TD*%
D30*
%TO.C,R29*%
X113920000Y-107270000D03*
X113920000Y-105270000D03*
%TD*%
D18*
%TO.C,J7*%
X98925000Y-80170000D03*
D19*
X101465000Y-80170000D03*
%TD*%
D18*
%TO.C,J6*%
X107649697Y-83050000D03*
D19*
X107649697Y-85590000D03*
X107649697Y-88130000D03*
X107649697Y-90670000D03*
X107649697Y-93210000D03*
X107649697Y-95750000D03*
X107649697Y-98290000D03*
%TD*%
D18*
%TO.C,J5*%
X92149697Y-83050000D03*
D19*
X92149697Y-85590000D03*
X92149697Y-88130000D03*
X92149697Y-90670000D03*
X92149697Y-93210000D03*
X92149697Y-95750000D03*
X92149697Y-98290000D03*
%TD*%
D34*
%TO.C,R27*%
X88840000Y-110265000D03*
X88840000Y-112265000D03*
%TD*%
M02*
